<svg width="28" height="28" viewBox="0 0 28 28" fill="none" xmlns="http://www.w3.org/2000/svg">
<circle cx="14" cy="14" r="14" fill="#EB0029"/>
<path d="M7.25 19.25V12.5528C7.25 12.0513 7.50065 11.5829 7.91795 11.3047L13.1679 7.8047C13.6718 7.46881 14.3282 7.46881 14.8321 7.8047L20.082 11.3047C20.4993 11.5829 20.75 12.0513 20.75 12.5528V19.25M7.25 19.25C7.25 20.0784 7.92157 20.75 8.75 20.75H19.25C20.0784 20.75 20.75 20.0784 20.75 19.25M7.25 19.25L12.3125 15.875M20.75 19.25L15.6875 15.875M7.25 12.5L12.3125 15.875M20.75 12.5L15.6875 15.875M15.6875 15.875L14.8321 16.4453C14.3282 16.7812 13.6718 16.7812 13.1679 16.4453L12.3125 15.875" stroke="white" stroke-width="1.5" stroke-linecap="round" stroke-linejoin="round"/>
</svg>
