<svg width="486" height="114" viewBox="0 0 486 114" fill="none" xmlns="http://www.w3.org/2000/svg">
<path d="M194.868 21.801C194.59 24.9302 194.381 27.9551 194.242 30.8758C194.172 33.7964 194.138 36.0564 194.138 37.6558C194.138 39.1856 194.172 40.6459 194.242 42.0367C194.311 43.4275 194.381 44.6096 194.451 45.5831H192.052C191.148 40.1591 189.896 35.9173 188.297 32.8576C186.698 29.7284 184.716 27.5031 182.352 26.1819C180.057 24.8607 177.311 24.2001 174.112 24.2001H170.67C168.654 24.2001 167.124 24.3739 166.081 24.7216C165.038 25.0693 164.343 25.7647 163.995 26.8078C163.647 27.8508 163.473 29.4502 163.473 31.6059V83.9684C163.473 86.6804 163.751 88.697 164.308 90.0182C164.864 91.3394 165.942 92.2087 167.541 92.6259C169.14 93.0431 171.504 93.2865 174.633 93.3561V95.6508C172.478 95.5813 169.697 95.5118 166.289 95.4422C162.882 95.3727 159.301 95.3379 155.547 95.3379C152.557 95.3379 149.636 95.3727 146.785 95.4422C143.934 95.5118 141.362 95.5813 139.067 95.6508V93.5647C141.292 93.4256 142.961 93.1475 144.073 92.7302C145.186 92.313 145.916 91.4785 146.264 90.2268C146.681 88.9752 146.89 87.0976 146.89 84.5942V32.8576C146.89 30.2847 146.681 28.4071 146.264 27.225C145.916 25.9733 145.151 25.1388 143.969 24.7216C142.857 24.2348 141.223 23.9567 139.067 23.8871V21.801C141.918 21.8705 144.943 21.9401 148.141 22.0096C151.34 22.0096 154.504 22.0444 157.633 22.1139C160.762 22.1139 163.682 22.1139 166.394 22.1139C169.106 22.1139 171.331 22.1139 173.069 22.1139C176.268 22.1139 179.883 22.1139 183.916 22.1139C188.019 22.0444 191.669 21.9401 194.868 21.801ZM179.327 57.8915C179.327 57.8915 179.327 58.2391 179.327 58.9345C179.327 59.6299 179.327 59.9776 179.327 59.9776H160.344C160.344 59.9776 160.344 59.6299 160.344 58.9345C160.344 58.2391 160.344 57.8915 160.344 57.8915H179.327ZM181.934 44.1228C181.656 48.0865 181.517 51.1115 181.517 53.1976C181.587 55.2838 181.622 57.1961 181.622 58.9345C181.622 60.673 181.656 62.5853 181.726 64.6715C181.795 66.7576 181.969 69.7825 182.247 73.7462H179.848C179.431 71.3124 178.771 69.0524 177.867 66.9662C176.963 64.8801 175.642 63.2112 173.903 61.9595C172.165 60.6382 169.905 59.9776 167.124 59.9776V57.8915C169.21 57.8915 170.948 57.4742 172.339 56.6398C173.799 55.7358 175.016 54.5884 175.989 53.1976C176.963 51.7373 177.728 50.2075 178.284 48.6081C178.84 47.0087 179.257 45.5136 179.536 44.1228H181.934Z" fill="#0A0F0F"/>
<path d="M223.488 40.2635C228.564 40.2635 233.014 41.2022 236.839 43.0798C240.663 44.9573 243.653 47.9822 245.809 52.1545C247.964 56.3268 249.042 61.8551 249.042 68.7395C249.042 75.6238 247.964 81.1521 245.809 85.3244C243.653 89.4271 240.663 92.4173 236.839 94.2948C233.014 96.1724 228.564 97.1112 223.488 97.1112C218.552 97.1112 214.136 96.1724 210.242 94.2948C206.418 92.4173 203.393 89.4271 201.168 85.3244C199.013 81.1521 197.935 75.6238 197.935 68.7395C197.935 61.8551 199.013 56.3268 201.168 52.1545C203.393 47.9822 206.418 44.9573 210.242 43.0798C214.136 41.2022 218.552 40.2635 223.488 40.2635ZM223.488 42.3496C220.707 42.3496 218.378 44.4358 216.5 48.6081C214.623 52.7108 213.684 59.4213 213.684 68.7395C213.684 78.0576 214.623 84.7681 216.5 88.8708C218.378 92.9736 220.707 95.025 223.488 95.025C226.339 95.025 228.669 92.9736 230.477 88.8708C232.354 84.7681 233.293 78.0576 233.293 68.7395C233.293 59.4213 232.354 52.7108 230.477 48.6081C228.669 44.4358 226.339 42.3496 223.488 42.3496Z" fill="#0A0F0F"/>
<path d="M281.941 40.2635C287.017 40.2635 291.467 41.2022 295.292 43.0798C299.116 44.9573 302.106 47.9822 304.262 52.1545C306.417 56.3268 307.495 61.8551 307.495 68.7395C307.495 75.6238 306.417 81.1521 304.262 85.3244C302.106 89.4271 299.116 92.4173 295.292 94.2948C291.467 96.1724 287.017 97.1112 281.941 97.1112C277.005 97.1112 272.589 96.1724 268.695 94.2948C264.871 92.4173 261.846 89.4271 259.621 85.3244C257.466 81.1521 256.388 75.6238 256.388 68.7395C256.388 61.8551 257.466 56.3268 259.621 52.1545C261.846 47.9822 264.871 44.9573 268.695 43.0798C272.589 41.2022 277.005 40.2635 281.941 40.2635ZM281.941 42.3496C279.16 42.3496 276.831 44.4358 274.953 48.6081C273.076 52.7108 272.137 59.4213 272.137 68.7395C272.137 78.0576 273.076 84.7681 274.953 88.8708C276.831 92.9736 279.16 95.025 281.941 95.025C284.792 95.025 287.122 92.9736 288.93 88.8708C290.807 84.7681 291.746 78.0576 291.746 68.7395C291.746 59.4213 290.807 52.7108 288.93 48.6081C287.122 44.4358 284.792 42.3496 281.941 42.3496Z" fill="#0A0F0F"/>
<path d="M364.801 13.9779V84.177C364.801 87.3062 365.287 89.6358 366.261 91.1656C367.234 92.6259 368.973 93.3561 371.476 93.3561V95.5465C369.32 95.3379 367.165 95.2336 365.009 95.2336C362.089 95.2336 359.342 95.3379 356.77 95.5465C354.266 95.7551 351.937 96.1376 349.781 96.6939V26.4948C349.781 23.3656 349.295 21.0708 348.321 19.6105C347.417 18.0807 345.679 17.3158 343.106 17.3158V15.1253C345.331 15.3339 347.487 15.4382 349.573 15.4382C352.424 15.4382 355.135 15.3339 357.708 15.1253C360.281 14.8471 362.645 14.4647 364.801 13.9779ZM338.204 40.2635C341.264 40.2635 343.941 40.785 346.235 41.8281C348.599 42.8016 350.442 44.4705 351.763 46.8348L350.512 47.9822C349.608 46.3133 348.391 45.1311 346.861 44.4358C345.401 43.6708 343.836 43.2884 342.167 43.2884C338.621 43.2884 335.805 45.3745 333.719 49.5468C331.633 53.6496 330.625 60.0124 330.694 68.6351C330.694 74.5459 331.077 79.2745 331.842 82.821C332.676 86.2979 333.823 88.8013 335.284 90.3311C336.813 91.861 338.552 92.6259 340.499 92.6259C342.863 92.6259 344.984 91.6871 346.861 89.8096C348.738 87.9321 349.747 85.3939 349.886 82.1951L350.407 85.8459C349.364 89.5315 347.661 92.3478 345.296 94.2948C343.002 96.1724 339.977 97.1112 336.222 97.1112C332.12 97.1112 328.435 96.1028 325.167 94.0862C321.968 92.0696 319.465 88.9751 317.657 84.8028C315.849 80.561 314.945 75.1022 314.945 68.4265C314.945 62.0985 315.953 56.8831 317.97 52.7804C319.986 48.6081 322.733 45.4788 326.21 43.3927C329.756 41.3065 333.754 40.2635 338.204 40.2635Z" fill="#0A0F0F"/>
<path d="M396.472 13.9779V85.9502C396.472 88.8708 396.924 90.8527 397.828 91.8958C398.801 92.9388 400.435 93.4604 402.73 93.4604V95.6508C401.409 95.5813 399.462 95.5118 396.889 95.4422C394.386 95.3032 391.813 95.2336 389.171 95.2336C386.459 95.2336 383.713 95.3032 380.931 95.4422C378.22 95.5118 376.168 95.5813 374.778 95.6508V93.4604C377.211 93.4604 378.915 92.9388 379.888 91.8958C380.931 90.8527 381.453 88.8708 381.453 85.9502V26.4948C381.453 23.3656 380.966 21.0708 379.993 19.6105C379.089 18.0807 377.35 17.3158 374.778 17.3158V15.1253C377.003 15.3339 379.158 15.4382 381.244 15.4382C384.095 15.4382 386.807 15.3339 389.38 15.1253C391.952 14.8471 394.317 14.4647 396.472 13.9779ZM430.474 41.7238V43.8099C428.318 44.2271 426.163 45.1311 424.007 46.5219C421.852 47.9127 419.661 49.6859 417.436 51.8416L409.405 60.1862L410.448 58.2044L428.284 88.0364C429.049 89.2881 429.848 90.4007 430.683 91.3742C431.517 92.3478 432.525 93.0432 433.707 93.4604V95.6508C432.664 95.5813 431.1 95.5118 429.014 95.4422C426.928 95.3032 424.842 95.2336 422.756 95.2336C420.183 95.2336 417.61 95.3032 415.038 95.4422C412.465 95.5118 410.553 95.5813 409.301 95.6508V93.4604C410.692 93.4604 411.63 93.1474 412.117 92.5216C412.604 91.8262 412.534 90.957 411.909 89.9139L401.583 71.2428C400.748 69.9216 399.914 69.0871 399.08 68.7395C398.315 68.3222 397.272 68.0788 395.951 68.0093V66.0275C397.411 65.8884 398.662 65.645 399.705 65.2973C400.818 64.9496 401.826 64.289 402.73 63.3155L410.657 55.5967C413.021 53.3715 414.203 51.3896 414.203 49.6511C414.203 47.9127 413.438 46.5219 411.909 45.4788C410.448 44.4358 408.501 43.8795 406.068 43.8099V41.7238C408.015 41.7933 410.135 41.8628 412.43 41.9324C414.725 42.0019 416.672 42.0367 418.271 42.0367C419.661 42.0367 421.122 42.0367 422.651 42.0367C424.251 41.9671 425.746 41.9324 427.136 41.9324C428.527 41.8628 429.64 41.7933 430.474 41.7238Z" fill="#0A0F0F"/>
<path d="M460.254 40.2635C465.33 40.2635 469.78 41.2022 473.605 43.0798C477.429 44.9573 480.419 47.9822 482.574 52.1545C484.73 56.3268 485.808 61.8551 485.808 68.7395C485.808 75.6238 484.73 81.1521 482.574 85.3244C480.419 89.4271 477.429 92.4173 473.605 94.2948C469.78 96.1724 465.33 97.1112 460.254 97.1112C455.317 97.1112 450.902 96.1724 447.008 94.2948C443.184 92.4173 440.159 89.4271 437.934 85.3244C435.778 81.1521 434.701 75.6238 434.701 68.7395C434.701 61.8551 435.778 56.3268 437.934 52.1545C440.159 47.9822 443.184 44.9573 447.008 43.0798C450.902 41.2022 455.317 40.2635 460.254 40.2635ZM460.254 42.3496C457.473 42.3496 455.143 44.4358 453.266 48.6081C451.389 52.7108 450.45 59.4213 450.45 68.7395C450.45 78.0576 451.389 84.7681 453.266 88.8708C455.143 92.9736 457.473 95.025 460.254 95.025C463.105 95.025 465.434 92.9736 467.242 88.8708C469.12 84.7681 470.058 78.0576 470.058 68.7395C470.058 59.4213 469.12 52.7108 467.242 48.6081C465.434 44.4358 463.105 42.3496 460.254 42.3496Z" fill="#0A0F0F"/>
<path fill-rule="evenodd" clip-rule="evenodd" d="M56.496 113.939C87.6979 113.939 112.992 88.6435 112.992 57.4395C112.992 26.2354 87.6979 0.939453 56.496 0.939453C25.2941 0.939453 0 26.2354 0 57.4395C0 88.6435 25.2941 113.939 56.496 113.939ZM52.1502 101.832C76.1516 101.832 95.6086 81.957 95.6086 57.4395C95.6086 32.922 76.1516 13.0466 52.1502 13.0466C28.1487 13.0466 8.69169 32.922 8.69169 57.4395C8.69169 81.957 28.1487 101.832 52.1502 101.832Z" fill="#EB0029"/>
<path fill-rule="evenodd" clip-rule="evenodd" d="M52.1507 97.7963C73.7519 97.7963 91.2633 79.7278 91.2633 57.4392C91.2633 35.1506 73.7519 17.0821 52.1507 17.0821C30.5493 17.0821 13.038 35.1506 13.038 57.4392C13.038 79.7278 30.5493 97.7963 52.1507 97.7963ZM47.8048 81.6535C59.8055 81.6535 69.534 70.8124 69.534 57.4392C69.534 44.066 59.8055 33.2249 47.8048 33.2249C35.8041 33.2249 26.0756 44.066 26.0756 57.4392C26.0756 70.8124 35.8041 81.6535 47.8048 81.6535Z" fill="#0A0F0F"/>
<path d="M65.1876 57.4402C65.1876 68.5846 57.4048 77.6188 47.8042 77.6188C38.2037 77.6188 30.4209 68.5846 30.4209 57.4402C30.4209 46.2959 38.2037 37.2617 47.8042 37.2617C57.4048 37.2617 65.1876 46.2959 65.1876 57.4402Z" fill="#FFD40D"/>
</svg>
