<svg width="151" height="35" viewBox="0 0 151 35" fill="none" xmlns="http://www.w3.org/2000/svg">
<path d="M60.3573 6.46143C60.2711 7.43066 60.2065 8.36759 60.1634 9.2722C60.1419 10.1768 60.1311 10.8768 60.1311 11.3722C60.1311 11.846 60.1419 12.2984 60.1634 12.7291C60.185 13.1599 60.2065 13.526 60.228 13.8276H59.485C59.205 12.1476 58.8174 10.8337 58.322 9.88605C57.8267 8.91682 57.2129 8.22759 56.4806 7.81836C55.7699 7.40912 54.9192 7.20451 53.9285 7.20451H52.8624C52.2378 7.20451 51.764 7.25836 51.441 7.36605C51.1179 7.47374 50.9026 7.68913 50.7949 8.0122C50.6872 8.33528 50.6333 8.83066 50.6333 9.49836V25.7168C50.6333 26.5568 50.7195 27.1814 50.8918 27.5907C51.0641 27.9999 51.3979 28.2691 51.8933 28.3984C52.3886 28.5276 53.1209 28.603 54.09 28.6245V29.3353C53.4224 29.3137 52.5609 29.2922 51.5056 29.2707C50.4503 29.2491 49.3411 29.2384 48.1781 29.2384C47.252 29.2384 46.3475 29.2491 45.4645 29.2707C44.5815 29.2922 43.7846 29.3137 43.0739 29.3353V28.6891C43.7631 28.646 44.2799 28.5599 44.6245 28.4307C44.9691 28.3014 45.1953 28.043 45.3029 27.6553C45.4322 27.2676 45.4968 26.686 45.4968 25.9107V9.88605C45.4968 9.08912 45.4322 8.50759 45.3029 8.14143C45.1953 7.75374 44.9584 7.49528 44.5922 7.36605C44.2476 7.21528 43.7415 7.12912 43.0739 7.10759V6.46143C43.9569 6.48297 44.8937 6.50451 45.8844 6.52605C46.8751 6.52605 47.8551 6.53682 48.8242 6.55835C49.7934 6.55835 50.698 6.55835 51.5379 6.55835C52.3778 6.55835 53.067 6.55835 53.6054 6.55835C54.5961 6.55835 55.7161 6.55835 56.9652 6.55835C58.2359 6.53682 59.3666 6.50451 60.3573 6.46143ZM55.5438 17.6399C55.5438 17.6399 55.5438 17.7476 55.5438 17.963C55.5438 18.1784 55.5438 18.286 55.5438 18.286H49.6642C49.6642 18.286 49.6642 18.1784 49.6642 17.963C49.6642 17.7476 49.6642 17.6399 49.6642 17.6399H55.5438ZM56.3514 13.3753C56.2652 14.603 56.2222 15.5399 56.2222 16.186C56.2437 16.8322 56.2545 17.4245 56.2545 17.963C56.2545 18.5014 56.2653 19.0937 56.2868 19.7399C56.3083 20.386 56.3622 21.323 56.4483 22.5507H55.7053C55.5761 21.7968 55.3715 21.0968 55.0915 20.4507C54.8115 19.8045 54.4023 19.2876 53.8639 18.8999C53.3255 18.4907 52.6255 18.286 51.764 18.286V17.6399C52.4101 17.6399 52.9486 17.5107 53.3793 17.2522C53.8316 16.9722 54.2085 16.6168 54.51 16.186C54.8115 15.7337 55.0484 15.2599 55.2207 14.7645C55.393 14.2691 55.5222 13.806 55.6084 13.3753H56.3514Z" fill="white"/>
<path d="M69.2221 12.1799C70.7943 12.1799 72.1726 12.4707 73.3572 13.0522C74.5417 13.6337 75.4678 14.5707 76.1354 15.863C76.8031 17.1553 77.1369 18.8676 77.1369 20.9999C77.1369 23.1322 76.8031 24.8445 76.1354 26.1368C75.4678 27.4076 74.5417 28.3337 73.3572 28.9153C72.1726 29.4968 70.7943 29.7876 69.2221 29.7876C67.693 29.7876 66.3254 29.4968 65.1193 28.9153C63.9348 28.3337 62.9979 27.4076 62.3087 26.1368C61.6411 24.8445 61.3072 23.1322 61.3072 20.9999C61.3072 18.8676 61.6411 17.1553 62.3087 15.863C62.9979 14.5707 63.9348 13.6337 65.1193 13.0522C66.3254 12.4707 67.693 12.1799 69.2221 12.1799ZM69.2221 12.826C68.3606 12.826 67.6391 13.4722 67.0576 14.7645C66.4761 16.0353 66.1854 18.1137 66.1854 20.9999C66.1854 23.886 66.4761 25.9645 67.0576 27.2353C67.6391 28.506 68.3606 29.1414 69.2221 29.1414C70.1051 29.1414 70.8266 28.506 71.3865 27.2353C71.968 25.9645 72.2588 23.886 72.2588 20.9999C72.2588 18.1137 71.968 16.0353 71.3865 14.7645C70.8266 13.4722 70.1051 12.826 69.2221 12.826Z" fill="white"/>
<path d="M87.327 12.1799C88.8992 12.1799 90.2775 12.4707 91.4621 13.0522C92.6466 13.6337 93.5727 14.5707 94.2403 15.863C94.908 17.1553 95.2418 18.8676 95.2418 20.9999C95.2418 23.1322 94.908 24.8445 94.2403 26.1368C93.5727 27.4076 92.6466 28.3337 91.4621 28.9153C90.2775 29.4968 88.8992 29.7876 87.327 29.7876C85.7979 29.7876 84.4303 29.4968 83.2242 28.9153C82.0397 28.3337 81.1028 27.4076 80.4136 26.1368C79.746 24.8445 79.4122 23.1322 79.4122 20.9999C79.4122 18.8676 79.746 17.1553 80.4136 15.863C81.1028 14.5707 82.0397 13.6337 83.2242 13.0522C84.4303 12.4707 85.7979 12.1799 87.327 12.1799ZM87.327 12.826C86.4655 12.826 85.744 13.4722 85.1625 14.7645C84.581 16.0353 84.2903 18.1137 84.2903 20.9999C84.2903 23.886 84.581 25.9645 85.1625 27.2353C85.744 28.506 86.4655 29.1414 87.327 29.1414C88.21 29.1414 88.9315 28.506 89.4914 27.2353C90.0729 25.9645 90.3637 23.886 90.3637 20.9999C90.3637 18.1137 90.0729 16.0353 89.4914 14.7645C88.9315 13.4722 88.21 12.826 87.327 12.826Z" fill="white"/>
<path d="M112.991 4.03835V25.7814C112.991 26.7507 113.142 27.4722 113.444 27.9461C113.745 28.3984 114.284 28.6245 115.059 28.6245V29.303C114.391 29.2384 113.724 29.206 113.056 29.206C112.151 29.206 111.301 29.2384 110.504 29.303C109.729 29.3676 109.007 29.486 108.339 29.6584V7.91528C108.339 6.94605 108.189 6.23528 107.887 5.78297C107.607 5.30912 107.069 5.0722 106.272 5.0722V4.39374C106.961 4.45835 107.629 4.49066 108.275 4.49066C109.158 4.49066 109.998 4.45835 110.795 4.39374C111.591 4.30759 112.324 4.18912 112.991 4.03835ZM104.753 12.1799C105.701 12.1799 106.53 12.3414 107.241 12.6645C107.973 12.966 108.544 13.483 108.953 14.2153L108.566 14.5707C108.286 14.0537 107.909 13.6876 107.435 13.4722C106.983 13.2353 106.498 13.1168 105.981 13.1168C104.883 13.1168 104.01 13.763 103.364 15.0553C102.718 16.326 102.406 18.2968 102.427 20.9676C102.427 22.7984 102.546 24.263 102.783 25.3614C103.041 26.4384 103.397 27.2137 103.849 27.6876C104.323 28.1614 104.861 28.3984 105.464 28.3984C106.196 28.3984 106.853 28.1076 107.435 27.5261C108.016 26.9445 108.329 26.1584 108.372 25.1676L108.533 26.2984C108.21 27.4399 107.683 28.3122 106.95 28.9153C106.24 29.4968 105.303 29.7876 104.14 29.7876C102.869 29.7876 101.728 29.4753 100.715 28.8507C99.7246 28.226 98.9493 27.2676 98.3893 25.9753C97.8294 24.6614 97.5494 22.9707 97.5494 20.903C97.5494 18.943 97.8617 17.3276 98.4862 16.0568C99.1108 14.7645 99.9615 13.7953 101.038 13.1491C102.137 12.503 103.375 12.1799 104.753 12.1799Z" fill="white"/>
<path d="M122.801 4.03835V26.3307C122.801 27.2353 122.941 27.8491 123.221 28.1722C123.523 28.4953 124.029 28.6568 124.739 28.6568V29.3353C124.33 29.3137 123.727 29.2922 122.93 29.2707C122.155 29.2276 121.358 29.206 120.54 29.206C119.7 29.206 118.849 29.2276 117.988 29.2707C117.148 29.2922 116.512 29.3137 116.082 29.3353V28.6568C116.835 28.6568 117.363 28.4953 117.665 28.1722C117.988 27.8491 118.149 27.2353 118.149 26.3307V7.91528C118.149 6.94605 117.998 6.23528 117.697 5.78297C117.417 5.30912 116.878 5.0722 116.082 5.0722V4.39374C116.771 4.45835 117.438 4.49066 118.084 4.49066C118.968 4.49066 119.807 4.45835 120.604 4.39374C121.401 4.30759 122.133 4.18912 122.801 4.03835ZM133.333 12.6322V13.2784C132.665 13.4076 131.997 13.6876 131.33 14.1184C130.662 14.5491 129.984 15.0984 129.294 15.766L126.807 18.3507L127.13 17.7368L132.654 26.9768C132.891 27.3645 133.139 27.7091 133.397 28.0107C133.656 28.3122 133.968 28.5276 134.334 28.6568V29.3353C134.011 29.3137 133.526 29.2922 132.88 29.2707C132.234 29.2276 131.588 29.206 130.942 29.206C130.145 29.206 129.348 29.2276 128.551 29.2707C127.755 29.2922 127.162 29.3137 126.775 29.3353V28.6568C127.205 28.6568 127.496 28.5599 127.647 28.366C127.798 28.1507 127.776 27.8814 127.582 27.5584L124.384 21.7753C124.126 21.366 123.867 21.1076 123.609 20.9999C123.372 20.8707 123.049 20.7953 122.64 20.7737V20.1599C123.092 20.1168 123.479 20.0414 123.803 19.9337C124.147 19.826 124.459 19.6214 124.739 19.3199L127.195 16.9291C127.927 16.2399 128.293 15.626 128.293 15.0876C128.293 14.5491 128.056 14.1184 127.582 13.7953C127.13 13.4722 126.527 13.2999 125.773 13.2784V12.6322C126.376 12.6537 127.033 12.6753 127.744 12.6968C128.455 12.7184 129.058 12.7291 129.553 12.7291C129.984 12.7291 130.436 12.7291 130.91 12.7291C131.405 12.7076 131.868 12.6968 132.299 12.6968C132.73 12.6753 133.074 12.6537 133.333 12.6322Z" fill="white"/>
<path d="M142.557 12.1799C144.129 12.1799 145.507 12.4707 146.692 13.0522C147.876 13.6337 148.802 14.5707 149.47 15.863C150.138 17.1553 150.471 18.8676 150.471 20.9999C150.471 23.1322 150.138 24.8445 149.47 26.1368C148.802 27.4076 147.876 28.3337 146.692 28.9153C145.507 29.4968 144.129 29.7876 142.557 29.7876C141.027 29.7876 139.66 29.4968 138.454 28.9153C137.269 28.3337 136.332 27.4076 135.643 26.1368C134.976 24.8445 134.642 23.1322 134.642 20.9999C134.642 18.8676 134.976 17.1553 135.643 15.863C136.332 14.5707 137.269 13.6337 138.454 13.0522C139.66 12.4707 141.027 12.1799 142.557 12.1799ZM142.557 12.826C141.695 12.826 140.974 13.4722 140.392 14.7645C139.811 16.0353 139.52 18.1137 139.52 20.9999C139.52 23.886 139.811 25.9645 140.392 27.2353C140.974 28.506 141.695 29.1414 142.557 29.1414C143.44 29.1414 144.161 28.506 144.721 27.2353C145.303 25.9645 145.593 23.886 145.593 20.9999C145.593 18.1137 145.303 16.0353 144.721 14.7645C144.161 13.4722 143.44 12.826 142.557 12.826Z" fill="white"/>
<path fill-rule="evenodd" clip-rule="evenodd" d="M17.4988 34.9999C27.1631 34.9999 34.9975 27.1649 34.9975 17.4999C34.9975 7.83491 27.1631 -0.000106812 17.4988 -0.000106812C7.83446 -0.000106812 0 7.83491 0 17.4999C0 27.1649 7.83446 34.9999 17.4988 34.9999ZM16.1527 31.2499C23.5868 31.2499 29.6133 25.0938 29.6133 17.4999C29.6133 9.90598 23.5868 3.74989 16.1527 3.74989C8.71863 3.74989 2.69212 9.90598 2.69212 17.4999C2.69212 25.0938 8.71863 31.2499 16.1527 31.2499Z" fill="#EB0029"/>
<path fill-rule="evenodd" clip-rule="evenodd" d="M16.1529 29.9998C22.8435 29.9998 28.2674 24.4034 28.2674 17.4998C28.2674 10.5963 22.8435 4.99981 16.1529 4.99981C9.46219 4.99981 4.03833 10.5963 4.03833 17.4998C4.03833 24.4034 9.46219 29.9998 16.1529 29.9998ZM14.8068 24.9998C18.5238 24.9998 21.5371 21.6419 21.5371 17.4998C21.5371 13.3577 18.5238 9.99981 14.8068 9.99981C11.0898 9.99981 8.07651 13.3577 8.07651 17.4998C8.07651 21.6419 11.0898 24.9998 14.8068 24.9998Z" fill="white"/>
<path d="M20.1909 17.5001C20.1909 20.9519 17.7803 23.7501 14.8066 23.7501C11.833 23.7501 9.42239 20.9519 9.42239 17.5001C9.42239 14.0484 11.833 11.2501 14.8066 11.2501C17.7803 11.2501 20.1909 14.0484 20.1909 17.5001Z" fill="#FFD40D"/>
</svg>
