<svg width="196" height="186" viewBox="0 0 196 186" fill="none" xmlns="http://www.w3.org/2000/svg">
<g opacity="0.2">
<path d="M37.1908 47.7942C37.1002 50.144 37.7009 51.2893 39.6796 52.425C43.465 54.5977 46.4552 54.3696 47.8871 51.8748C49.6648 48.7776 52.2757 47.4169 56.1756 47.5966C60.7892 47.7285 63.9566 51.3764 65.3829 58.2568C66.6882 64.1527 66.4285 64.8043 58.2582 71.6664C54.4749 74.8704 52.7975 76.9957 50.6233 81.5808C48.7581 85.4282 47.1047 87.9104 45.491 88.9285C44.1975 89.7873 42.0406 91.7518 40.6595 93.3609C36.8986 97.7215 37.6556 100.786 45.7527 112.982C49.6785 118.896 54.6337 127.001 56.9025 130.819C67.5953 149.652 90.8556 165.519 109.665 166.822C119.581 167.481 136.906 159.812 140.857 152.929C142.042 150.864 143.138 150.35 145.795 150.503C149.388 150.62 154.13 147.738 156.204 144.125C159.808 137.844 160.668 112.833 157.729 99.0226C156.974 95.1579 154.319 87.2293 151.808 81.4418C149.297 75.6543 145.685 66.6043 143.677 61.3346C138.474 47.4831 134.18 41.0155 127.864 37.2755C123.132 34.5597 122.603 34.4848 118.343 35.9285C115.943 36.7237 112.299 37.4918 110.343 37.5127C108.301 37.4842 105.124 38.6347 103.128 40.1196C101.046 41.5551 97.5492 42.8649 94.8299 43.0197C92.3319 43.1872 89.0821 44.0668 87.6038 45.0483L84.9307 46.7165L77.8411 41.7323C74.0446 38.9813 68.3059 35.2301 65.1228 33.4031C59.4942 30.0581 59.2727 30.0454 53.3641 31.572C44.2056 33.9783 37.2779 40.8674 37.1908 47.7942ZM46.7947 37.6374C48.7414 36.2386 52.5216 34.634 55.2664 34.0364L60.3005 33.0371L68.0784 38.4163C80.255 46.8921 86.18 49.7209 93.2772 50.7065C97.816 51.3672 99.3406 51.8992 98.8962 52.6735C97.3161 55.4264 95.2977 55.7548 89.0129 54.5493C85.4586 53.7674 82.5432 53.4666 82.6532 53.8728C82.7504 54.5005 88.0141 55.6917 93.5246 56.4527C95.1114 56.6772 95.1719 57.1695 94.0362 59.1482C91.1229 64.224 89.5219 65.0206 86.068 63.2669L82.9215 61.5753L85.9071 63.7465C89.3595 66.2999 89.1238 67.3084 84.4787 70.8183C82.0143 72.7207 81.1158 72.8912 79.8508 71.7076C78.6352 70.438 78.4504 70.5607 78.7182 72.0869C79.2043 75.2252 77.2862 74.5818 75.755 71.0723C74.775 68.7943 74.1855 68.2272 74.0359 69.285C73.8989 70.1214 74.4869 71.4882 75.1991 72.2401C76.6601 73.8793 75.7219 75.5138 73.6556 75.1285C72.5611 74.8434 72.4049 72.9238 72.4583 64.2622C72.4374 62.3058 72.1697 60.7797 71.8128 60.8036C70.8156 61.1462 71.0635 73.0688 72.0322 74.7686C72.6823 75.8279 72.4227 76.4795 70.9938 77.375C69.9838 77.939 68.8511 78.3182 68.507 78.1207C68.1629 77.9232 67.9506 73.1121 68.0967 67.4774C68.2555 61.6212 67.7134 55.5914 66.8562 53.4981C63.561 45.8882 56.4668 43.3033 49.9259 47.3263C46.6125 49.3132 44.4347 49.3213 44.3278 47.3156C44.2576 45.4454 50.9435 42.7636 54.6093 43.1521C59.3694 43.8255 63.671 46.2945 67.8452 50.9778C69.7237 53.0853 71.8856 54.898 72.5866 55.0716C74.7883 55.4203 66.204 47.0621 61.8165 44.5438C56.1385 41.2848 47.1567 41.3907 45.0461 44.8686C44.7005 45.4708 43.974 45.7401 43.4578 45.4438C42.4255 44.8513 44.842 42.2352 48.3641 40.4826C49.6943 39.7592 52.3531 39.1122 54.4448 39.0547C57.7425 38.8887 59.1317 39.4573 65.4598 43.7756C69.5272 46.4533 73.8399 49.5005 75.0189 50.6347C76.3333 51.7322 77.4644 52.1527 77.7607 51.6365C78.0075 51.2064 74.1871 48.0986 68.8786 44.5942C61.3828 39.72 58.6664 38.2753 55.665 37.9251C51.2123 37.3137 46.3361 39.4329 42.6006 43.3506L39.9005 46.2614L41.5428 43.2009C42.481 41.5663 44.8481 39.0363 46.7947 37.6374ZM44.6037 51.0195C45.3159 51.7714 44.5289 51.5484 42.8943 50.6103C41.2597 49.6721 40.6702 49.105 41.5926 49.2913C42.5517 49.613 43.9282 50.4031 44.6037 51.0195ZM46.7178 90.7764C51.6083 87.636 54.401 87.7521 60.5952 91.3073C66.654 94.8993 66.2366 94.4309 85.4769 121.486C97.6001 138.624 105.718 146.6 118.315 153.944C124.939 157.746 127.716 159.683 127.149 160.273C126.594 160.641 125.795 160.639 125.328 160.257C124.911 159.789 124.085 160.23 123.493 161.263C122.802 162.467 122.124 162.65 121.498 161.948C120.749 161.06 120.429 161.22 120.23 162.364C120.018 163.729 119.662 163.753 118.397 162.569C117.562 161.633 116.775 161.41 116.872 162.037C116.883 162.616 116.353 163.34 115.663 163.745C114.887 164.1 114.384 163.583 114.165 161.971C113.936 159.78 113.85 159.731 113.415 161.883C112.77 164.601 111.762 164.365 111.275 161.227C110.984 159.344 110.848 159.381 110.179 161.742C109.202 164.84 108.365 164.703 107.191 161.17C106.346 158.855 106.26 158.806 106.256 161.205C106.114 164.441 103.887 164.535 103.807 161.286C103.748 159.994 103.332 158.726 102.902 158.479C102.558 158.282 102.298 158.934 102.505 159.967C102.76 161.715 101.293 163.275 100.003 162.534C99.6587 162.337 99.3416 160.896 99.4307 159.346C99.5198 157.796 99.2759 156.627 98.8697 156.737C98.5129 156.761 98.3632 157.819 98.5704 158.853C98.8015 160.243 98.4925 160.981 97.5446 161.238C96.5968 161.494 95.9834 160.57 95.6311 158.195C95.3394 156.312 94.8008 154.859 94.4806 155.018C94.0744 155.128 94.0235 156.014 94.4521 157.061C95.3333 159.511 94.6053 160.58 92.7127 159.494C91.7663 158.95 91.2405 157.276 91.3296 155.726C91.554 154.139 91.2242 152.921 90.7686 153.117C90.2763 153.177 90.09 154.1 90.3099 154.912C90.8963 157.079 90.2178 158.062 88.6692 157.173C87.981 156.778 87.5539 154.931 87.5697 153.11C87.6348 151.204 87.5025 149.641 87.2444 149.493C87.0723 149.394 86.8 150.267 86.8224 151.423C86.6014 157.587 83.1602 155.612 82.9016 149.287C82.7036 143.455 81.6473 142.506 81.7226 148.153C81.7995 153.001 81.7007 153.173 80.0662 152.235C79.2919 151.79 78.6209 148.775 78.4916 145.613C78.4117 142.364 78.0228 139.854 77.666 139.878C77.3458 140.037 77.1085 141.845 77.2027 144.072C77.2923 148.698 77.1187 149.399 75.5702 148.511C74.9679 148.165 74.3958 144.977 74.3286 141.508C74.2247 137.902 73.9234 134.641 73.6413 134.136C72.9546 132.942 72.8116 136.977 73.1226 141.616C73.5451 145.861 72.7057 147.324 71.2462 144.885C70.5468 143.912 69.9761 139.924 69.885 136.098C69.7939 132.271 69.4686 128.653 69.1499 128.013C68.4999 126.954 68.4317 130.46 68.7605 138.655C68.9025 141.596 68.1507 142.308 66.653 140.533C65.6955 139.412 65.3814 136.372 65.0062 126.664C64.9869 123.908 64.5852 121.619 64.179 121.729C63.8588 121.888 63.6806 124.988 63.8705 128.643C64.011 132.383 63.8822 135.397 63.6114 135.471C62.3927 135.8 60.9394 130.163 60.4975 123.161C60.247 119.014 59.6749 115.827 59.2559 116.158C58.837 116.489 58.7703 119.196 59.011 121.965C59.3379 124.783 59.4193 127.232 59.1485 127.305C57.7084 127.622 56.4846 124.175 55.8819 117.653C55.3973 113.715 54.8251 110.527 54.4188 110.637C54.148 110.71 54.1928 113.023 54.6057 115.891C55.4202 121.047 53.4129 121.954 52.3276 116.871C52.0105 115.431 51.3604 114.371 50.9176 114.346C49.0473 114.416 47.7487 111.498 47.3771 106.366C47.0996 103.462 46.612 101.123 46.2057 101.233C45.7995 101.343 45.7104 102.893 46.0021 104.776C46.7545 110.241 44.9112 109.068 43.9007 103.456C43.4385 100.675 42.7039 98.766 42.457 99.1962C42.1608 99.7124 42.0971 100.82 42.3537 101.767C43.0501 104.34 41.4043 102.824 40.5358 100.152C39.6674 97.4807 42.1475 93.7574 46.7178 90.7764ZM61.3217 71.7091L65.2643 68.8253L64.9971 73.4756C64.8937 76.0468 65.0612 78.5448 65.3799 79.1852C65.6619 79.6901 65.0057 81.8297 63.87 83.8084C61.7961 87.4217 61.6607 87.4584 56.6918 86.5507C53.9246 85.9918 51.3788 85.4455 51.0346 85.248C49.8302 84.5567 57.379 74.593 61.3217 71.7091ZM69.7323 80.7683C71.3954 79.6642 74.8682 77.9975 77.5031 76.9937C85.3217 73.9327 88.3037 71.5269 93.9792 63.2328C100.419 54.0052 103.782 51.9323 107.985 54.5733C110.897 56.4736 122.903 77.2034 128.476 90.0098C135.581 106.326 142.626 141.478 140.286 148.942C139.098 152.606 134.587 156.879 131.794 156.763C127.709 156.706 115.861 150.249 108.442 144.046C99.7076 136.745 93.2263 128.908 83.179 113.534C79.0572 107.165 72.9088 98.9468 69.52 95.2861L63.3686 88.6674L65.0968 85.6563C66.035 84.0217 68.0692 81.8725 69.7323 80.7683ZM95.8719 44.9903C98.714 45.0203 101.878 44.0913 104.834 42.1283L109.441 39.2827L107.477 43.3022C105.303 47.8873 103.629 48.4132 94.3651 48.0141C89.5794 47.7835 89.1493 47.5366 90.1974 46.3082C90.8139 45.6327 93.3373 45.0223 95.8719 44.9903ZM115.519 39.4543C121.85 35.9967 128.587 38.6057 133.776 46.5022C137.948 52.7849 140.483 58.9293 138.969 58.9756C138.169 58.9741 137.688 59.6129 137.76 60.6835C137.806 62.1969 138.028 62.2096 138.769 60.9192C139.213 60.1449 139.78 59.5554 139.952 59.6542C141.157 60.3455 154.475 96.1251 155.388 101.11C155.96 104.297 156.647 111.669 156.845 117.501C157.659 135.81 154.749 145.463 148.114 147.259C146.305 147.821 144.471 148.027 144.127 147.829C143.697 147.583 143.333 144.629 143.303 141.295C143.218 134.269 138.675 109.703 135.997 101.417C131.618 87.9241 115.497 57.6266 110.497 53.3846C106.001 49.6604 106.001 49.6603 109.184 45.311C110.91 43.0996 113.684 40.4597 115.519 39.4543Z" fill="#393D3D"/>
<path d="M73.9516 87.7651C73.7241 90.9513 73.9155 93.8061 74.2596 94.0036C74.9479 94.3986 75.347 85.1348 74.7987 82.3039C74.3716 80.4576 74.2219 81.5154 73.9516 87.7651Z" fill="#393D3D"/>
<path d="M77.2878 92.3114C77.0699 96.8756 77.1371 100.345 77.47 99.9646C77.9144 99.1903 79.0649 83.0379 78.5487 82.7416C77.8605 82.3466 77.6105 84.3762 77.2878 92.3114Z" fill="#393D3D"/>
<path d="M81.4449 87.2627C80.8885 101.583 81.0229 108.523 81.7254 107.896C82.1937 107.479 82.5089 103.542 82.4065 99.1375C82.3042 94.7326 82.3643 89.0485 82.6891 86.49C83.0663 82.246 82.8479 80.6338 81.9591 82.1824C81.7616 82.5265 81.4989 84.7775 81.4449 87.2627Z" fill="#393D3D"/>
<path d="M85.4299 100.644C85.2583 106.722 85.3225 111.791 85.6666 111.989C86.2688 112.334 87.3297 91.5557 86.928 89.2665C86.2077 86.3369 85.7078 90.3961 85.4299 100.644Z" fill="#393D3D"/>
<path d="M89.3741 110.113C89.4082 118.025 90.1092 118.198 90.3825 110.349C90.6656 103.878 90.4614 101.244 89.8195 102.363C89.6587 102.842 89.369 106.336 89.3741 110.113Z" fill="#393D3D"/>
<path d="M92.7473 116.394C92.7315 118.215 92.9626 119.606 93.2828 119.447C93.689 119.337 93.9263 117.528 93.8687 115.437C93.7298 110.896 92.8425 111.645 92.7473 116.394Z" fill="#393D3D"/>
<path d="M95.3308 121.653C95.5253 122.908 95.93 123.598 96.2262 123.082C96.4731 122.652 96.5622 121.102 96.4171 119.76C96.2227 118.505 95.818 117.815 95.5217 118.332C95.2748 118.762 95.1857 120.312 95.3308 121.653Z" fill="#393D3D"/>
<path d="M119.225 44.5554C118.877 46.757 118.984 48.7627 119.414 49.0096C119.844 49.2565 120.302 47.4611 120.442 45.0252C120.582 42.5894 120.439 40.4483 120.267 40.3495C119.751 40.0533 119.763 39.8318 119.225 44.5554Z" fill="#393D3D"/>
<path d="M122.801 47.2935C122.831 50.6279 123.035 53.2612 123.392 53.2373C124.389 52.8947 124.718 41.7606 123.772 41.2174C123.256 40.9212 122.948 40.859 122.899 40.9451C122.886 41.1665 122.856 44.0086 122.801 47.2935Z" fill="#393D3D"/>
<path d="M127.014 50.5127C127.019 54.2899 127.359 56.8866 127.754 56.1983C128.445 54.9939 128.245 43.785 127.557 43.3899C127.04 43.0937 127.028 43.3151 127.014 50.5127Z" fill="#393D3D"/>
<path d="M130.55 53.9157C130.667 57.2994 130.955 60.7818 131.298 61.7791C131.934 63.8596 132.237 53.1684 131.729 48.8735C131.098 44.3938 130.39 47.4191 130.55 53.9157Z" fill="#393D3D"/>
<path d="M134.806 54.8704C135.185 56.003 135.257 57.0736 135.036 57.0608C134.851 57.1835 134.701 58.2414 134.76 59.5333C134.781 61.4896 134.867 61.539 135.644 60.384C136.434 59.0075 135.429 50.9959 134.602 52.237C134.404 52.5811 134.562 53.7011 134.806 54.8704Z" fill="#393D3D"/>
<path d="M150.479 107.671C149.982 110.131 149.99 112.308 150.42 112.555C151.28 113.049 152.451 105.829 151.864 103.663C151.461 102.173 151.412 102.259 150.479 107.671Z" fill="#393D3D"/>
<path d="M152.881 112.252C152.768 113.446 152.37 115.733 152.096 117.406C151.822 119.079 151.881 120.371 152.201 120.211C152.743 120.065 154.781 109.34 154.451 108.121C154.244 107.087 153.008 110.038 152.881 112.252Z" fill="#393D3D"/>
<path d="M153.051 126.303C152.678 128.148 152.626 129.833 152.97 130.031C153.314 130.228 154.044 128.36 154.504 125.764C155.05 123.219 155.263 121.054 155.091 120.955C154.575 120.659 153.796 122.613 153.051 126.303Z" fill="#393D3D"/>
</g>
</svg>
