<svg width="334" height="301" viewBox="0 0 334 301" fill="none" xmlns="http://www.w3.org/2000/svg">
<circle cx="62.001" cy="297" r="4" fill="white"/>
<circle cx="72.501" cy="283.5" r="6.5" fill="white"/>
<circle cx="85.501" cy="267.5" r="7.5" fill="white"/>
<path fill-rule="evenodd" clip-rule="evenodd" d="M163.37 40.2386C166.802 40.2769 170.631 40.3196 171.88 40.3341C173.128 40.3487 174.153 40.3994 174.158 40.446C174.17 40.5482 176.679 40.7398 177.873 40.7304C178.34 40.7265 178.868 40.897 179.048 41.1098C179.325 41.438 187.027 42.959 189.971 43.2661C190.488 43.3203 193.528 43.9664 196.726 44.7027C199.923 45.439 203.303 46.0567 204.237 46.0766C205.17 46.0959 206.427 46.2221 207.03 46.3569C207.828 46.5356 207.995 46.391 207.644 45.8249C207.379 45.3976 207.576 45.4842 208.082 46.0172C209.056 47.0444 210.07 47.2936 209.371 46.3338C208.849 45.6165 209.59 45.5346 210.77 46.1792C211.574 46.6181 211.582 46.6864 210.839 46.7985C209.976 46.9281 212.533 47.9373 215.024 48.4498C216.399 48.7332 216.404 48.7192 215.212 47.9137C214.538 47.4592 214.162 47.0588 214.376 47.0247C214.59 46.99 215.514 47.5632 216.429 48.2971C217.345 49.0315 218.307 49.4535 218.567 49.2343C219.144 48.7494 224.253 50.3067 224.332 50.9916C224.363 51.2606 224.605 51.2981 224.871 51.0753C225.136 50.8519 225.522 50.9017 225.729 51.1855C225.936 51.4694 228.17 52.4903 230.694 53.4542C233.217 54.4186 236.231 55.7208 237.391 56.348C242.74 59.2421 244.35 60.0393 244.816 60.0252C245.092 60.0173 245.5 60.2411 245.721 60.5227C245.943 60.8048 247.266 61.5592 248.661 62.1996C250.057 62.8394 251.234 63.6882 251.278 64.0856C251.321 64.4823 251.825 65.1338 252.396 65.5328C253.106 66.0286 253.275 66.0332 252.93 65.5467C251.896 64.0919 254.965 64.9754 256.525 66.5814C257.385 67.4677 257.839 67.8117 257.535 67.3463C257.225 66.8731 257.746 67.0175 258.719 67.6747C259.674 68.3209 260.742 68.8174 261.092 68.7788C261.443 68.7401 262.738 69.4252 263.971 70.3009C265.892 71.6655 266.415 71.7828 267.625 71.1227C268.401 70.699 268.867 70.1204 268.661 69.8371C268.455 69.5538 268.868 69.3973 269.58 69.4894C272.18 69.8248 274.472 70.9428 276.904 73.0634C278.272 74.2553 279.546 75.1007 279.736 74.9421C280.284 74.4818 281.646 76.1818 281.324 76.9232C281.164 77.2923 281.259 77.5696 281.535 77.5391C281.81 77.5087 283.456 79.2472 285.192 81.4024C286.928 83.5577 288.584 85.1225 288.873 84.88C289.171 84.6291 289.259 84.759 289.075 85.1816C288.898 85.5898 288.979 85.8992 289.256 85.8686C289.533 85.838 290.206 86.8514 290.752 88.1201C291.298 89.3888 292.065 90.5199 292.457 90.6339C293.166 90.8403 294.496 94.0921 294.467 95.5468C294.458 95.969 294.679 96.2886 294.958 96.2577C295.237 96.2269 295.471 96.8708 295.479 97.6891C295.488 98.8034 295.695 99.0646 296.303 98.7298C296.942 98.3782 297.062 98.5861 296.863 99.7044C296.699 100.627 296.799 100.967 297.149 100.674C297.445 100.425 297.875 100.481 298.107 100.797C298.337 101.114 298.211 101.408 297.826 101.45C297.368 101.501 297.462 101.755 298.1 102.185C298.635 102.547 299.677 104.593 300.415 106.733C303.311 115.128 304.301 122.007 303.874 130.779C303.639 135.623 300.814 147.221 298.7 152.021C297.854 153.942 297.31 156.017 297.491 156.631C297.672 157.245 297.643 157.739 297.428 157.73C296.337 157.684 296.154 158.047 296.884 158.808C297.562 159.514 297.535 159.604 296.715 159.366C295.649 159.056 295.692 157.438 296.828 155.143C297.176 154.441 297.403 153.452 297.333 152.945C297.263 152.438 296.974 152.876 296.691 153.917C296.407 154.959 295.939 155.81 295.65 155.81C295.362 155.809 295.268 156.332 295.442 156.971C295.637 157.687 295.508 158.004 295.108 157.796C294.751 157.611 294.489 157.738 294.527 158.081C294.565 158.422 294.137 158.597 293.578 158.469C292.749 158.28 292.724 158.336 293.443 158.77C293.928 159.062 294.506 159.149 294.728 158.963C294.95 158.776 294.791 159.479 294.376 160.524C293.96 161.57 293.344 162.286 293.005 162.117C292.666 161.948 292.764 162.21 293.223 162.699C293.866 163.385 293.914 163.708 293.433 164.112C293.012 164.467 292.928 164.364 293.175 163.795C293.424 163.221 293.339 163.123 292.906 163.486C292.558 163.778 292.456 164.398 292.681 164.861C292.906 165.325 292.83 165.57 292.513 165.405C291.971 165.123 289.869 167.785 290.137 168.416C290.205 168.577 288.371 171.102 286.062 174.029C283.752 176.956 281.04 180.47 280.035 181.839C279.03 183.208 277.682 184.576 277.039 184.879C276.161 185.293 276.068 185.534 276.665 185.844C277.164 186.103 277.685 185.85 278.063 185.163C278.462 184.437 278.7 184.33 278.769 184.845C278.847 185.433 279.125 185.434 279.92 184.849C280.631 184.326 280.991 184.28 281.038 184.704C281.076 185.048 280.729 185.372 280.267 185.423C279.805 185.474 279.466 185.862 279.513 186.286C279.559 186.709 278.711 187.684 277.627 188.453C276.544 189.222 275.274 190.278 274.806 190.8C273.905 191.806 272.725 191.573 272.606 190.366C272.558 189.874 272.714 189.884 273.098 190.399C273.547 191.001 273.71 190.942 273.907 190.106C274.249 188.653 274.228 188.622 273.152 188.971C272.625 189.142 271.993 189.325 271.747 189.378C271.501 189.432 271.516 189.773 271.782 190.138C272.101 190.576 271.953 190.71 271.346 190.533C270.806 190.376 270.059 190.831 269.533 191.637C268.655 192.985 268.659 192.994 269.786 192.18C271.265 191.111 271.359 191.115 271.908 192.249C272.259 192.973 272.182 193.068 271.586 192.641C270.546 191.898 268.942 193.451 269.01 195.134C269.038 195.815 268.88 196.278 268.661 196.164C268.442 196.051 268.255 195.057 268.246 193.957C268.236 192.739 268.082 192.284 267.852 192.794C267.644 193.255 266.941 193.735 266.29 193.861C265.639 193.987 265.021 194.455 264.915 194.901C264.692 195.851 265.614 195.896 266.022 194.955C266.176 194.602 266.729 194.277 267.251 194.233C267.813 194.186 267.453 194.715 266.369 195.529C264.343 197.051 263.503 197.367 263.898 196.457C264.041 196.128 263.883 195.716 263.547 195.541C263.211 195.367 262.971 195.542 263.014 195.93C263.057 196.324 262.684 196.516 262.164 196.365C261.571 196.192 261.36 196.357 261.578 196.823C261.765 197.224 262.212 197.443 262.571 197.311C262.93 197.179 263.111 197.333 262.971 197.653C262.478 198.789 259.724 199.248 258.607 198.38C258.008 197.915 257.372 197.733 257.193 197.975C257.014 198.218 257.161 198.383 257.52 198.344C257.879 198.304 258.223 198.722 258.284 199.273C258.383 200.172 258.268 200.174 257.15 199.299C256.466 198.764 255.759 198.524 255.58 198.766C255.401 199.008 255.563 199.172 255.941 199.13C256.318 199.089 256.499 199.349 256.343 199.708C256.187 200.067 255.803 200.229 255.49 200.066C254.282 199.439 252.138 199.574 251.825 200.297C251.602 200.809 251.784 200.896 252.384 200.565C252.913 200.274 253.31 200.374 253.363 200.812C253.42 201.277 253.616 201.193 253.896 200.581C254.263 199.779 254.364 199.82 254.489 200.821C254.614 201.823 254.715 201.864 255.082 201.062C255.325 200.53 255.554 200.332 255.591 200.621C255.628 200.911 255.999 200.768 256.415 200.302C256.848 199.818 257.2 199.719 257.239 200.069C257.345 201.033 252.953 203.644 249.898 204.432C247.856 204.958 247.225 205.36 247.511 205.951C247.746 206.435 247.53 206.794 246.967 206.856C246.455 206.913 246.159 206.672 246.312 206.321C246.473 205.95 245.99 205.803 245.161 205.97C244.258 206.153 243.865 206.532 244.093 207.002C244.291 207.411 244.069 207.789 243.598 207.841C243.128 207.893 242.869 207.646 243.022 207.292C243.176 206.938 242.908 206.692 242.429 206.745C241.949 206.798 241.59 207.183 241.631 207.599C241.686 208.155 241.576 208.182 241.216 207.7C240.668 206.968 237.686 207.71 237.779 208.555C237.811 208.848 237.142 209.139 236.292 209.199L234.746 209.309L236.092 208.67C237.35 208.073 237.314 208.041 235.552 208.179C234.094 208.293 233.762 208.523 234.089 209.197C234.372 209.782 234.164 210.107 233.456 210.186C232.875 210.25 232.236 209.976 232.035 209.577C231.742 208.998 231.677 209.005 231.708 209.614C231.733 210.096 230.779 210.512 229.098 210.75C227.64 210.957 227.028 211.182 227.736 211.25C229.677 211.435 229.544 213.067 227.57 213.285C226.664 213.385 225.809 213.73 225.669 214.053C225.371 214.741 223.957 214.762 223.251 214.09C222.979 213.831 223.136 213.803 223.598 214.026C224.152 214.294 224.282 214.217 223.979 213.801C223.325 212.903 213.461 214.554 212.99 215.64C212.708 216.289 212.47 216.301 211.82 215.696C211.145 215.067 211.159 215.007 211.9 215.35C212.696 215.719 212.688 215.65 211.832 214.736C211.097 213.951 211.028 213.628 211.54 213.375C212.987 212.66 212.019 211.33 210.204 211.54C208.92 211.688 208.635 211.883 209.234 212.203C209.701 212.451 210.351 212.567 210.679 212.461C211.007 212.353 210.739 212.6 210.083 213.008C209.427 213.415 208.923 214.05 208.964 214.418C209.01 214.83 208.252 215.075 206.988 215.055C205.617 215.034 205.168 214.832 205.63 214.443C206.169 213.99 206.082 213.793 205.236 213.546C204.639 213.373 203.718 213.597 203.19 214.046C201.932 215.113 201.675 215.108 201.554 214.017C201.499 213.518 201.076 213.152 200.614 213.203C200.152 213.254 199.806 213.584 199.845 213.936C199.884 214.288 200.149 214.38 200.434 214.141C200.72 213.901 200.985 213.994 201.024 214.346C201.063 214.698 200.465 215.056 199.695 215.141C198.925 215.226 198.264 215.007 198.225 214.655C198.186 214.303 198.425 214.155 198.755 214.326C199.086 214.498 199.328 214.379 199.293 214.062C199.205 213.268 197.642 212.883 196.672 213.417C196.231 213.659 195.84 213.581 195.802 213.241C195.765 212.903 195.301 212.745 194.772 212.89C194.243 213.035 193.455 212.753 193.021 212.264C192.564 211.748 192.258 211.673 192.293 212.085C192.335 212.576 191.754 212.553 190.426 212.014C189.365 211.582 187.584 211.318 186.469 211.426C185.075 211.561 184.498 211.375 184.624 210.831C184.75 210.291 184.506 210.205 183.861 210.56C183.273 210.883 183.022 210.831 183.199 210.422C183.377 210.013 182.972 209.929 182.134 210.201C181.391 210.442 180.816 210.932 180.855 211.289C180.895 211.647 180.562 211.519 180.116 211.006C179.669 210.493 178.299 210.016 177.071 209.947C175.843 209.877 174.187 209.634 173.391 209.406C172.596 209.177 171.848 209.121 171.73 209.281C171.612 209.441 172.057 209.694 172.721 209.842C173.957 210.119 174.509 211.19 173.473 211.304C173.155 211.339 172.044 211.092 171.004 210.755C169.346 210.217 165.344 209.639 164.547 209.822C164.391 209.858 163.307 209.577 162.138 209.197C159.474 208.332 158.848 208.402 160.81 209.347C162.024 209.932 162.091 210.053 161.164 209.99C160.536 209.948 159.562 209.786 158.999 209.629C158.437 209.472 157.568 209.253 157.069 209.142C156.533 209.023 156.292 208.611 156.482 208.136C156.878 207.144 154.024 210.401 153.516 211.52C153.315 211.963 152.81 212.363 152.395 212.409C151.98 212.455 150.289 213.721 148.639 215.223C146.988 216.724 145.362 217.816 145.025 217.647C144.688 217.479 144.757 217.71 145.179 218.16C145.827 218.853 145.652 219.001 144.037 219.122C142.896 219.206 142.294 219.491 142.54 219.829C142.782 220.161 142.562 220.281 142.007 220.12C141.462 219.961 140.573 220.42 139.909 221.202L138.756 222.56L140.136 221.419C141.075 220.643 141.658 220.474 141.961 220.89C142.206 221.226 142.192 221.46 141.929 221.409C141.667 221.358 140.918 221.723 140.265 222.218C139.612 222.714 138.771 222.961 138.397 222.766C137.97 222.545 137.9 222.667 138.21 223.091C138.74 223.819 137.905 225.642 136.995 225.742C136.692 225.776 136.547 225.365 136.674 224.828C136.81 224.248 136.687 224.034 136.369 224.301C136.076 224.547 136.055 225.274 136.323 225.915C136.767 226.976 136.614 227.071 134.621 226.967C133.154 226.891 132.72 227.011 133.307 227.331C133.789 227.594 134.353 227.666 134.561 227.492C134.768 227.317 135.127 227.433 135.358 227.75C135.588 228.067 135.499 228.356 135.159 228.394C134.82 228.431 132.871 229.971 130.83 231.816C124.407 237.618 117.726 242.564 116.06 242.748C115.596 242.799 115.247 243.11 115.283 243.439C115.32 243.768 114.779 244.066 114.082 244.1C113.384 244.134 112.096 244.587 111.218 245.107C110.341 245.627 108.983 246.218 108.201 246.42C106.015 246.984 103.919 248.271 103.999 248.999C104.039 249.36 104.305 249.459 104.59 249.219C104.875 248.979 105.137 249.042 105.172 249.359C105.207 249.676 104.878 250.132 104.441 250.372C104.004 250.613 103.652 250.613 103.658 250.371C103.695 249.027 103.3 248.418 102.715 248.916C102.359 249.219 101.468 249.625 100.734 249.818C100 250.011 98.9487 250.501 98.3974 250.906C97.8462 251.312 97.2315 251.502 97.0315 251.328C96.831 251.155 96.9614 250.98 97.3202 250.941C97.6795 250.901 97.9433 250.596 97.9066 250.264C97.8104 249.393 96.2909 249.687 96.0548 250.621C95.9018 251.227 95.826 251.227 95.7245 250.622C95.6524 250.189 95.3714 250.021 95.1003 250.249C94.8297 250.476 94.2975 250.178 93.9176 249.585C93.1707 248.42 93.8639 244.418 95.3412 241.364C96.6593 238.638 99.5771 224.516 99.3209 222.1C99.2416 221.351 99.395 220.715 99.662 220.685C99.9296 220.655 100.277 219.171 100.434 217.386C100.828 212.914 100.941 212.045 101.204 211.44C101.683 210.336 101.608 207.597 101.11 208.016C100.279 208.714 97.6479 206.904 97.4962 205.531C97.3761 204.444 97.4949 204.361 98.3255 204.955C99.1295 205.529 99.366 205.49 99.7074 204.724C100.228 203.557 99.8994 202.744 98.8315 202.556C98.1561 202.437 98.1712 202.512 98.9118 202.959C100.321 203.808 98.8881 203.704 97.1982 202.834C96.3721 202.409 96.1536 202.159 96.7119 202.278C97.27 202.397 97.7043 202.286 97.6761 202.031C97.6075 201.411 93.53 200.336 93.1578 200.839C92.9977 201.057 93.2024 201.197 93.6127 201.152C94.023 201.106 94.2431 201.226 94.1011 201.418C93.6964 201.965 91.8981 201.274 92.1596 200.671C92.2884 200.375 91.4348 199.768 90.2637 199.322C88.6904 198.723 88.1727 198.212 88.2811 197.363C88.3621 196.731 88.2001 196.24 87.9208 196.271C87.642 196.302 87.4588 196.735 87.5139 197.234C87.569 197.733 87.3471 198.171 87.0214 198.207C86.6956 198.243 86.5528 197.986 86.7045 197.636C86.8639 197.269 86.6226 197.198 86.1318 197.468C85.6649 197.725 84.79 197.55 84.1877 197.078C83.5861 196.607 82.591 196.17 81.9772 196.107C81.3629 196.044 80.0129 195.749 78.9767 195.452C77.941 195.155 77.0143 195.013 76.9187 195.138C76.8224 195.262 76.2372 194.924 75.6181 194.387C74.9985 193.851 74.3664 193.581 74.2136 193.787C74.0602 193.994 74.2689 194.453 74.6768 194.806C75.5967 195.603 75.7176 196.395 74.9323 196.482C74.6065 196.518 74.465 196.258 74.6186 195.904C74.7721 195.551 74.6491 195.289 74.3457 195.322C74.0424 195.356 73.6264 194.919 73.4211 194.353C73.0662 193.372 73.0505 193.374 73.1003 194.389C73.1543 195.492 72.0843 196.043 71.966 194.973C71.9292 194.64 71.7141 194.421 71.4872 194.486C70.3877 194.801 70.0159 194.492 70.7074 193.838C71.3009 193.277 71.1827 193.237 70.1924 193.664C69.28 194.057 69.0027 193.999 69.2353 193.463C69.4295 193.016 69.2598 192.788 68.8194 192.904C66.9221 193.403 66.1408 193.142 66.3345 192.075C66.5017 191.153 66.4538 191.134 66.029 191.956C65.6013 192.782 65.4965 192.747 65.3384 191.726C65.2291 191.019 65.0673 190.862 64.9462 191.346C64.8331 191.799 65.2421 192.649 65.8542 193.235C66.4668 193.821 66.7939 194.32 66.5818 194.344C65.8978 194.419 62.9663 192.718 61.7645 191.548C61.1233 190.924 60.8241 190.77 61.0995 191.206C61.3748 191.642 60.7387 191.454 59.6861 190.788C58.6328 190.122 57.7471 189.357 57.7172 189.086C57.6874 188.816 57.3131 188.634 56.886 188.681C56.4589 188.728 54.7837 187.992 53.164 187.045C51.5443 186.098 50.0444 185.368 49.8312 185.423C49.0001 185.639 43.904 181.48 44.0806 180.73C44.1835 180.292 42.9564 178.607 41.3543 176.983C38.1167 173.701 35.3938 169.867 37.2369 171.184C38.4408 172.045 38.467 171.733 37.358 169.747C36.9073 168.94 36.1378 168.319 35.6475 168.368C35.0742 168.425 34.9617 168.274 35.3315 167.944C35.6609 167.649 35.6918 166.41 35.4035 165.037C35.1271 163.721 34.8452 162.031 34.7759 161.28C34.7001 160.456 34.3159 159.954 33.8049 160.01C33.3403 160.062 32.5724 159.389 32.0997 158.515C31.6264 157.642 31.0685 156.808 30.8598 156.663C30.0632 156.109 29.3906 149.695 29.7414 145.993C29.8866 144.462 29.8032 142.932 29.5554 142.592C29.2969 142.237 29.383 142.119 29.7581 142.314C30.1169 142.5 30.538 142.358 30.6944 141.998C30.8501 141.639 30.6931 141.377 30.3455 141.415C29.9519 141.458 29.978 141.126 30.4148 140.535C30.8008 140.013 31.5231 137.936 32.0193 135.919C32.5155 133.903 33.1634 131.814 33.4587 131.276C33.754 130.738 34.3714 129.194 34.8301 127.843C35.2883 126.493 35.9372 125.233 36.2709 125.043C36.6051 124.852 36.6928 124.185 36.466 123.558C36.2305 122.909 36.3361 122.388 36.7111 122.346C37.0733 122.306 37.2439 122.563 37.0903 122.916C36.5475 124.167 37.2457 123.487 38.657 121.389C39.443 120.221 39.6246 119.7 39.0601 120.232C38.4017 120.853 38.4752 120.595 39.264 119.514C40.3145 118.073 40.5651 117.963 40.9816 118.753C41.3933 119.534 41.4699 119.536 41.4741 118.759C41.4772 118.254 41.4314 117.649 41.3721 117.415C41.3133 117.181 41.6221 117.093 42.0594 117.221C42.5266 117.356 42.921 116.926 43.017 116.175C43.1165 115.398 43.6408 114.846 44.3522 114.768C45.0211 114.694 45.4813 114.249 45.4241 113.731C45.369 113.232 45.6894 112.783 46.1355 112.734C46.5822 112.685 47.1238 112.187 47.3391 111.628C47.5544 111.069 47.9552 110.543 48.2297 110.458C48.5037 110.374 48.6234 110.063 48.4956 109.768C48.3672 109.473 48.709 109.551 49.2547 109.941C50.0895 110.538 50.2046 110.517 49.9803 109.811C49.8342 109.35 50.0888 108.901 50.5466 108.814C55.0225 107.965 55.9368 107.267 57.6011 103.428C58.5572 101.221 59.5167 99.7765 59.8959 99.9734C60.2571 100.161 60.3572 100.051 60.1213 99.7262C59.6078 99.022 60.8134 95.0884 61.7861 94.2922C62.1664 93.9808 62.4489 93.4654 62.4136 93.1466C62.3784 92.8273 62.9473 91.6282 63.6773 90.4818C65.8597 87.056 71.356 79.5475 70.6573 80.9458C70.0171 82.2281 70.0222 82.2281 71.1327 80.9515C71.75 80.2417 72.2172 79.3165 72.1706 78.8949C72.124 78.4728 72.9172 77.724 73.9329 77.2297C74.9492 76.736 75.838 76.1291 75.9087 75.8819C76.1939 74.8838 81.5638 70.7287 82.8596 70.5029C83.6229 70.3702 84.2275 70.0781 84.2027 69.8537C84.1784 69.6293 85.4598 68.5351 87.0507 67.4215C88.6416 66.3078 89.9195 65.1816 89.8904 64.9185C89.8613 64.6554 90.1331 64.4074 90.4941 64.3676C90.8552 64.3277 93.3063 62.8569 95.9406 61.0997C100.272 58.2096 103.077 56.723 104.082 56.7852C104.284 56.7979 104.575 56.5355 104.728 56.202C105.024 55.5615 115.132 50.3417 117.92 49.3889C119.95 48.6957 124.188 47.669 125.52 47.5476C126.067 47.4982 126.373 47.2642 126.2 47.0274C126.029 46.7911 126.679 46.6353 127.647 46.6808C128.896 46.7399 129.266 46.571 128.922 46.0986C128.576 45.6238 128.863 45.5002 129.925 45.6656C130.744 45.7931 131.832 45.6447 132.344 45.3347C132.856 45.0253 133.988 44.7552 134.858 44.7342C135.729 44.7139 136.953 44.2476 137.577 43.6986C138.201 43.1497 139.452 42.7286 140.357 42.7621C141.261 42.7963 142.383 42.567 142.85 42.2527C144.168 41.3664 156.442 40.1612 163.37 40.2386ZM161.07 47.6265C161.085 47.7572 161.492 47.9791 161.975 48.1198C162.457 48.2599 162.823 48.1111 162.788 47.7893C162.752 47.467 162.345 47.245 161.884 47.2961C161.422 47.3471 161.056 47.4959 161.07 47.6265ZM167.883 47.7516C167.914 48.0267 170.042 48.3652 172.612 48.5035C175.585 48.6641 177.607 49.0915 178.167 49.6791C178.651 50.1876 178.85 50.2807 178.609 49.8861C178.369 49.4921 178.376 49.151 178.625 49.1283C179.373 49.061 183.397 50.1694 183.86 50.5701C184.096 50.7748 184.877 50.8771 185.595 50.7976C186.379 50.711 186.941 51.0138 187.001 51.5545C187.084 52.3081 187.265 52.2661 188.106 51.2965C188.658 50.6587 189.076 49.8578 189.034 49.5166C188.991 49.1748 188.776 49.3002 188.555 49.7948C188.326 50.3073 187.735 50.5716 187.179 50.4102C186.643 50.2546 186.331 49.8354 186.486 49.4792C186.64 49.1229 186.5 48.8612 186.174 48.8972C185.848 48.9332 185.611 49.2348 185.648 49.5675C185.685 49.9001 185.463 50.2001 185.155 50.2341C184.847 50.2681 184.552 49.9041 184.499 49.4244C184.446 48.9448 184.09 48.391 183.709 48.1932C183.254 47.9569 183.197 48.0832 183.545 48.5602C183.881 49.0214 183.816 49.2257 183.368 49.1184C182.98 49.0249 182.648 48.6814 182.63 48.3552C182.596 47.7113 179.446 46.7015 177.802 46.8079C177.22 46.8459 176.972 47.1316 177.224 47.4767C177.665 48.0823 177.285 48.0858 171.258 47.5292C167.707 47.201 167.821 47.1933 167.883 47.7516ZM164.089 48.0851C164.641 48.1772 165.649 48.0713 166.329 47.8498C167.009 47.6283 166.558 47.5527 165.326 47.6821C164.094 47.8116 163.537 47.9931 164.089 48.0851ZM127.707 53.3464C127.804 54.23 127.931 54.2539 129.105 53.6075C130.286 52.9578 130.079 52.2975 128.74 52.4455C128.125 52.5135 127.659 52.9188 127.707 53.3464ZM179.624 47.6045C180.333 47.6718 180.937 47.9552 180.968 48.2334C181.037 48.8575 178.834 48.5396 178.334 47.8529C178.135 47.5792 178.053 47.3832 178.153 47.418C178.253 47.4529 178.915 47.5365 179.624 47.6045ZM122.721 54.3784C122.776 54.8774 123.209 55.2428 123.683 55.1904C124.395 55.1118 124.403 54.9554 123.725 54.2908C122.684 53.2684 122.599 53.2753 122.721 54.3784ZM125.3 54.3427C125.16 54.663 125.535 54.7274 126.132 54.4852C127.398 53.9712 127.518 53.5423 126.359 53.6703C125.915 53.7194 125.439 54.0218 125.3 54.3427ZM148.933 52.9365C149.451 53.3855 152.107 53.0321 152.346 52.4816C152.472 52.191 151.689 52.1165 150.606 52.3164C149.523 52.5168 148.77 52.7954 148.933 52.9365ZM116.955 56.8289C116.294 56.9149 115.891 57.176 116.062 57.41C116.529 58.052 118.073 57.6928 119.843 56.5306L121.428 55.4899L119.793 56.0813C118.894 56.4065 117.617 56.7429 116.955 56.8289ZM111.995 59.8618C112.006 59.9592 112.87 59.6458 113.916 59.166C115.098 58.6233 115.545 58.1527 115.1 57.9216C114.515 57.6177 111.926 59.2359 111.995 59.8618ZM189.793 51.1805C189.807 51.3081 190.338 51.4991 190.973 51.6053C191.609 51.7114 191.961 51.5666 191.754 51.2845C191.395 50.791 189.74 50.7033 189.793 51.1805ZM188.646 53.5368C188.847 53.8133 189.384 53.8347 189.841 53.5835C190.488 53.2273 190.5 53.0399 189.897 52.7264C188.985 52.2529 188.119 52.8145 188.646 53.5368ZM185.769 53.2272C185.996 53.5388 186.606 53.7273 187.124 53.6468C187.892 53.5264 187.848 53.4266 186.889 53.1034C185.314 52.5735 185.294 52.5756 185.769 53.2272ZM179.375 55.0283C179.795 55.1288 180.373 54.8948 180.66 54.5068C181.025 54.0122 180.798 53.9577 179.896 54.3237C179.163 54.6214 178.939 54.9235 179.375 55.0283ZM157.92 56.7637C157.806 57.0291 158.823 57.1305 160.178 56.9892C161.534 56.8486 162.62 56.5223 162.591 56.2635C162.525 55.6611 158.195 56.1242 157.92 56.7637ZM151.131 57.667C150.978 58.0206 151.119 58.2805 151.445 58.2445C151.771 58.2085 152.007 57.9068 151.971 57.5742C151.934 57.2416 151.793 56.9816 151.657 56.9967C151.521 57.0117 151.285 57.3133 151.131 57.667ZM182.544 54.8079C182.391 55.1615 182.532 55.4214 182.858 55.3854C183.184 55.3494 183.421 55.0477 183.384 54.7151C183.347 54.3825 183.206 54.1225 183.07 54.1376C182.934 54.1526 182.698 54.4542 182.544 54.8079ZM165.591 56.4909C166.454 56.545 167.189 56.8488 167.224 57.1651C167.259 57.4856 167.922 57.492 168.715 57.1796C169.797 56.7539 170.103 56.8285 169.976 57.4878C169.75 58.6606 166.501 58.9186 166.622 57.7543C166.681 57.1939 166.322 57.3583 165.586 58.2294C164.967 58.962 164.607 59.2008 164.786 58.7598C164.989 58.2611 164.782 57.995 164.239 58.055C163.759 58.1081 163.419 58.6281 163.483 59.2099C163.587 60.1497 162.972 60.334 157.999 60.8523C153.382 61.3338 152.415 61.5955 152.498 62.3424C152.573 63.0288 152.362 62.9861 151.627 62.1674C150.671 61.1032 150.664 61.1045 151.176 62.2534C151.631 63.2744 151.57 63.3325 150.693 62.7187C149.636 61.9791 144.986 62.4715 142.287 63.6091C141.386 63.9884 140.892 64.0002 141.048 63.6394C141.192 63.3083 141.042 63.0671 140.717 63.1031C140.391 63.1391 140.156 63.4571 140.195 63.8091C140.234 64.161 140.023 64.3239 139.727 64.1704C139.431 64.0165 139.083 64.3433 138.953 64.8952C138.821 65.4564 138.339 65.7901 137.862 65.6511C137.392 65.5145 136.877 65.7049 136.716 66.0741C136.556 66.4432 135.935 66.663 135.336 66.5633C134.736 66.463 134.273 66.6214 134.305 66.9147C134.338 67.2116 133.719 67.2623 132.907 67.0289C131.355 66.5833 129.796 67.1229 129.9 68.0694C129.935 68.3839 128.386 68.7907 126.459 68.9737C121.492 69.4454 119.902 69.8825 119.998 70.7492C120.106 71.7289 119.163 71.8331 118.689 70.8938C118.477 70.4734 118.356 70.6307 118.4 71.2679C118.442 71.8724 118.202 72.224 117.866 72.0499C117.53 71.8752 117.398 71.3915 117.573 70.9749C117.815 70.3966 117.717 70.4043 117.16 71.0082C116.759 71.4431 115.501 72.0964 114.364 72.4595C112.581 73.0294 112.41 73.2369 113.115 73.975C113.844 74.7374 113.787 74.7535 112.58 74.1217C111.835 73.732 111.204 73.2067 111.176 72.9539C111.148 72.7017 110.881 72.5218 110.583 72.5548C110.285 72.5877 110.214 72.9726 110.426 73.4102C110.947 74.4845 108.628 75.3799 107.452 74.5585C106.694 74.0289 106.621 74.0963 107.028 74.9513C107.46 75.8592 107.36 75.9131 106.192 75.4023C104.991 74.877 104.949 74.9092 105.746 75.7437C106.9 76.9531 106.065 77.0203 104.557 75.8396C103.907 75.3316 103.454 75.1748 103.549 75.4918C103.926 76.7486 103.672 77.2487 103.063 76.4467C102.596 75.831 102.441 75.8162 102.499 76.3921C102.542 76.828 102.336 77.059 102.04 76.9061C101.361 76.5533 97.8492 78.6022 97.4138 79.6047C97.2101 80.0741 97.3123 80.1681 97.6855 79.8538C98.0454 79.5521 98.3282 79.7479 98.3943 80.3455C98.4873 81.1873 98.8751 81.0563 100.912 79.4966C102.237 78.4828 103.561 77.7782 103.856 77.9311C104.15 78.0835 104.357 77.9045 104.316 77.5325C104.275 77.1606 104.512 76.9967 104.842 77.1683C106.002 77.7704 105.519 78.3766 103.074 79.3857C101.446 80.0578 100.77 80.6272 101.086 81.0606C101.406 81.4997 101.242 81.6237 100.591 81.4343C100.055 81.2786 99.6424 81.386 99.674 81.672C99.7057 81.9587 99.3588 82.3986 98.9027 82.6498C98.4465 82.9004 98.1772 82.8678 98.3032 82.5771C98.4291 82.2865 98.19 82.0864 97.7708 82.1327C97.3521 82.179 97.135 82.5017 97.2885 82.8496C97.4414 83.1976 95.9094 84.5466 93.8826 85.8486C91.5802 87.3274 90.1616 87.9439 90.1002 87.4909C90.0381 87.0313 89.7905 87.134 89.4229 87.7708C89.1043 88.3233 88.416 88.7288 87.8935 88.6714C87.371 88.6141 86.8122 88.8693 86.6518 89.2384C86.473 89.6505 86.735 89.7348 87.3315 89.4571C88.2481 89.0301 88.2519 89.0487 87.394 89.7967C86.8942 90.2321 86.2335 90.4575 85.9264 90.298C85.6187 90.1386 85.2039 90.4048 85.0043 90.8903C84.8052 91.3757 83.5847 92.5855 82.2923 93.5799C80.9998 94.5737 79.9897 95.6207 80.0473 95.9063C80.1049 96.192 79.5966 97.1395 78.9185 98.0121C77.8936 99.3307 77.7257 99.4007 77.927 98.4278C78.1529 97.3339 78.1218 97.3404 77.4571 98.5238C77.0661 99.2208 76.7633 99.9466 76.7844 100.137C76.8054 100.328 75.8894 101.268 74.7488 102.226C73.6082 103.185 72.712 104.303 72.7571 104.712C72.8023 105.121 72.3676 105.802 71.7913 106.226C71.2149 106.65 70.7841 107.366 70.834 107.818C70.9341 108.724 69.5173 109.726 68.7208 109.312C68.4426 109.168 68.0686 109.389 67.8889 109.803C67.6847 110.273 67.7864 110.367 68.1601 110.052C69.1214 109.245 68.9259 109.968 67.3176 113.17C66.4872 114.823 65.4211 116.953 64.9479 117.901C64.4749 118.85 64.18 119.135 64.292 118.533C64.5809 116.984 64.3357 117.185 63.0915 119.519C62.4916 120.643 62.3279 121.326 62.7277 121.036C63.1274 120.746 62.9558 121.07 62.346 121.756C61.7368 122.441 61.0533 123.819 60.827 124.817C60.6012 125.814 60.2269 126.467 59.9956 126.267C59.5638 125.892 56.529 132.186 56.6431 133.219C56.6781 133.536 56.1756 134.757 55.5264 135.932C54.8772 137.108 54.3781 138.36 54.4173 138.714C54.4565 139.069 54.2216 139.389 53.8958 139.425C53.5701 139.461 53.4887 139.745 53.7158 140.057C53.9429 140.368 53.8565 140.653 53.5241 140.69C53.191 140.727 52.71 141.46 52.4542 142.32C52.199 143.179 51.7622 143.764 51.4834 143.62C51.205 143.475 51.1577 143.729 51.378 144.184C51.5982 144.639 51.4877 145.423 51.1326 145.926C50.7768 146.429 50.2312 147.696 49.92 148.741C49.5877 149.856 49.2105 150.329 49.007 149.887C48.7403 149.309 48.4954 149.319 47.9523 149.926C47.3744 150.572 47.2112 150.413 47.0613 149.057C46.9058 147.649 46.7624 147.526 46.1214 148.242C45.4784 148.961 45.3357 148.823 45.1696 147.32C45.0622 146.348 45.2511 145.175 45.5899 144.714C46.0833 144.041 46.019 143.977 45.2645 144.39C44.5603 144.775 44.3809 144.659 44.5525 143.93C44.6791 143.393 44.4728 142.491 44.0939 141.923C43.592 141.17 43.5974 140.604 44.1129 139.829C44.7339 138.896 44.6917 138.678 43.7651 138.03C43.1855 137.625 42.9143 137.581 43.1628 137.932C43.4117 138.283 43.0705 139.368 42.4049 140.343C41.0336 142.353 40.9818 143.786 42.2674 144.16C42.7486 144.3 43.0241 144.686 42.8801 145.019C42.736 145.35 42.8957 145.923 43.2345 146.293C43.5738 146.661 43.8328 147.446 43.8099 148.039C43.7869 148.63 43.9688 149.092 44.2134 149.065C44.458 149.038 44.8492 149.543 45.0824 150.186C45.3155 150.83 46.2056 151.557 47.0605 151.803C47.9682 152.064 48.4866 152.547 48.306 152.963C48.0902 153.46 47.8243 153.444 47.4246 152.908C47.11 152.486 46.8757 152.381 46.9031 152.675C46.9676 153.356 49.6356 157.037 50.033 156.993C50.197 156.975 49.8264 156.303 49.2096 155.5C48.5929 154.698 48.2167 153.867 48.3739 153.654C48.5312 153.442 48.7389 153.373 48.8365 153.503C50.4662 155.678 53.6582 159.44 54.0876 159.69C54.3971 159.871 54.4913 160.385 54.2971 160.833C54.0866 161.317 54.1529 161.471 54.4598 161.213C54.744 160.975 55.9458 161.689 57.1311 162.8C58.3156 163.912 58.6622 164.371 57.9 163.821C55.6754 162.215 56.3645 163.206 58.8807 165.231C60.1487 166.251 60.7699 166.581 60.2614 165.963C59.753 165.346 60.3742 165.676 61.6422 166.696C62.9097 167.717 63.9244 168.347 63.8967 168.096C63.8691 167.846 64.5919 168.332 65.5033 169.176C66.4142 170.02 66.7849 170.201 66.3269 169.578C65.7688 168.82 65.9892 168.897 66.9939 169.811C67.8191 170.561 69.2468 171.586 70.167 172.089C71.1233 172.611 71.7057 173.313 71.5265 173.726C71.3214 174.199 71.5182 174.282 72.0929 173.965C72.6644 173.651 73.2319 173.885 73.7103 174.63C74.2026 175.399 74.7782 175.624 75.446 175.309C75.9953 175.051 76.6361 175.101 76.8698 175.422C77.1116 175.754 76.9451 175.903 76.4838 175.769C76.0225 175.635 75.7142 175.911 75.7692 176.409C75.8224 176.89 76.1864 177.108 76.5785 176.892C76.9699 176.677 77.3287 176.847 77.3756 177.271C77.4224 177.694 77.5952 177.859 77.7594 177.637C77.924 177.414 78.6309 177.694 79.3307 178.258C80.0304 178.822 80.8007 179.118 81.0423 178.914C81.2844 178.711 81.5144 178.833 81.5533 179.185C81.5921 179.537 81.9851 179.786 82.4262 179.737C82.8673 179.688 83.448 180.175 83.7168 180.819C83.9857 181.462 84.4719 181.96 84.7965 181.924C85.1424 181.886 85.0206 181.459 84.5027 180.895C83.7001 180.021 83.7768 180.017 85.3305 180.855C86.2722 181.362 87.626 181.826 88.3397 181.885C89.0528 181.945 90.8873 182.43 92.4154 182.964C95.1563 183.92 97.3852 184.335 99.185 184.224C99.6954 184.193 100.021 184.528 99.9156 184.975C99.8111 185.42 100.134 185.773 100.633 185.76C102.792 185.703 103.624 185.803 105.182 186.303C106.091 186.595 107.071 186.808 107.359 186.777C107.647 186.745 107.914 187.007 107.953 187.359C107.992 187.711 108.226 187.83 108.473 187.623C108.72 187.415 109.433 187.733 110.055 188.33C110.679 188.927 111.498 189.38 111.876 189.338C113.157 189.197 113.363 191.44 112.608 197.288C112.194 200.493 111.809 203.395 111.752 203.738C111.292 206.506 111.082 207.179 110.663 207.226C110.399 207.255 110.35 206.556 110.556 205.672C110.771 204.744 110.727 204.235 110.452 204.466C110.036 204.816 109.555 207.673 109.688 209.007C109.713 209.262 109.581 209.763 109.394 210.121C109.207 210.478 109.167 211.653 109.306 212.732C109.444 213.812 109.358 214.716 109.113 214.743C108.869 214.77 108.757 215.127 108.865 215.536C108.973 215.945 108.979 216.702 108.879 217.218C108.779 217.734 108.335 220.262 107.892 222.836C107.45 225.411 106.888 227.883 106.644 228.331C105.462 230.496 110.804 227.508 124.373 218.414C127.43 216.364 130.241 214.653 130.618 214.612C130.995 214.57 131.17 214.351 131.005 214.126C130.841 213.9 131.276 213.209 131.973 212.59C133.468 211.263 134.031 211.104 133.584 212.134C133.383 212.598 133.49 212.684 133.869 212.366C134.203 212.085 134.312 211.631 134.112 211.357C133.694 210.782 135.666 209.159 136.351 209.515C136.601 209.644 137.367 209.126 138.053 208.364L139.301 206.977L137.871 208.14C137.085 208.779 136.417 209.083 136.387 208.815C136.296 207.984 139.417 205.789 140.15 206.169C140.554 206.379 140.662 206.281 140.409 205.934C140.171 205.607 140.335 205.142 140.774 204.9C141.213 204.659 141.599 204.704 141.632 205.001C141.665 205.298 142.202 204.967 142.826 204.266C146.576 200.049 150.281 196.102 150.303 196.301C150.317 196.428 151.262 195.37 152.404 193.948C153.545 192.528 154.61 191.479 154.771 191.618C154.932 191.757 155.474 191.151 155.977 190.272C157.18 188.166 160.224 186.178 161.553 186.629C162.122 186.823 162.974 187.016 163.446 187.058C163.918 187.102 165.736 187.4 167.486 187.721C169.235 188.043 173.265 188.746 176.441 189.285C179.616 189.823 183.781 190.596 185.696 191.001C189.993 191.912 192.508 192.291 193.031 192.106C194.035 191.753 199.2 192.714 199.261 193.266C199.299 193.607 199.69 193.687 200.131 193.445C200.65 193.159 200.975 193.369 201.055 194.042C201.125 194.631 201.328 194.799 201.523 194.431C202.052 193.432 203.796 193.29 203.901 194.236C203.952 194.698 204.261 195.046 204.586 195.01C204.912 194.974 204.958 194.625 204.687 194.234C204.416 193.843 204.75 193.944 205.431 194.458C206.817 195.505 208.303 195.594 207.569 194.586C207.277 194.186 207.356 194.069 207.772 194.285C209.028 194.938 212.138 194.874 221.263 194.009C227.492 193.418 230.215 192.96 229.943 192.548C229.696 192.174 229.827 192.171 230.289 192.538C231.096 193.18 233.575 192.609 233.974 191.69C234.109 191.378 234.898 191.054 235.727 190.968C238.574 190.674 253.24 186.953 253.484 186.464C253.617 186.193 254.583 185.7 255.629 185.368C258.156 184.563 258.357 184.478 260.215 183.422C261.095 182.923 262.898 181.934 264.222 181.224C265.546 180.515 268.208 178.717 270.137 177.229C272.067 175.741 273.917 174.493 274.249 174.457C274.581 174.42 275.429 173.569 276.133 172.565C276.837 171.561 277.248 171.171 277.046 171.699C276.657 172.716 278.003 171.346 280.565 168.118C281.36 167.116 282.281 166.437 282.612 166.609C282.943 166.781 283.02 166.655 282.784 166.331C282.26 165.612 283.51 164.079 284.161 164.643C284.416 164.864 284.497 164.647 284.339 164.159C284.165 163.622 284.391 163.315 284.914 163.381C285.388 163.441 285.566 163.309 285.311 163.087C284.66 162.523 285.768 160.867 286.531 161.263C286.887 161.448 286.958 161.315 286.696 160.955C286.437 160.6 287.165 159.066 288.348 157.471C290.836 154.116 291.812 151.144 292.131 145.946C292.452 140.721 291.595 130.299 290.851 130.382C290.53 130.417 290.277 129.963 290.289 129.372C290.321 127.671 288.942 123.292 288.264 122.94C287.926 122.764 287.514 122.93 287.349 123.31C286.979 124.163 282.167 123.661 281.464 122.697C280.557 121.451 281.123 116.486 282.114 117.001C282.41 117.154 282.605 116.855 282.548 116.337C282.491 115.818 282.721 115.363 283.059 115.326C283.909 115.232 281.117 111.588 280.21 111.607C278.647 111.641 278.499 111.516 279.041 110.621C279.486 109.888 279.317 109.526 278.225 108.875C277.468 108.424 276.587 108.083 276.268 108.118C275.949 108.153 275.294 107.648 274.814 106.995C274.334 106.342 273.841 105.942 273.719 106.106C273.598 106.271 272.522 105.609 271.329 104.634C269.165 102.867 268.41 101.781 269.826 102.471C270.237 102.672 270.02 102.289 269.343 101.621C268.665 100.953 267.783 100.586 267.382 100.807C266.981 101.027 266.759 100.964 266.888 100.665C267.019 100.366 266.044 99.3744 264.725 98.4624C262.198 96.7147 261.29 96.4067 262.149 97.5876C262.432 97.9775 261.813 97.7012 260.772 96.9746C259.731 96.2478 258.965 95.4368 259.069 95.1731C259.174 94.9087 258.726 94.7519 258.074 94.8239C257.422 94.896 257.014 94.6656 257.167 94.3119C257.321 93.9583 257.236 93.6922 256.978 93.7206C256.572 93.7655 251.69 90.8419 248.893 88.8786C248.371 88.512 247.495 88.0817 246.946 87.922C246.397 87.7623 245.914 87.3351 245.874 86.9722C245.834 86.6099 245.568 86.5089 245.283 86.7486C244.998 86.9882 244.736 86.9278 244.702 86.6145C244.648 86.1288 243.803 85.8267 241.886 85.607C241.656 85.5809 241.097 84.9987 240.643 84.3131C240.188 83.628 239.847 83.4245 239.884 83.8612C239.922 84.2978 239.678 84.5122 239.342 84.3381C239.006 84.1634 238.856 83.7324 239.009 83.3794C239.162 83.0264 238.956 82.8515 238.55 82.99C238.145 83.1284 236.729 82.6629 235.405 81.9553C234.08 81.2477 231.461 80.044 229.585 79.2804C227.709 78.5161 226.134 77.5398 226.087 77.1104C225.975 76.0962 227.119 75.9887 228.626 76.8721C229.283 77.2574 230.253 77.4501 230.782 77.3004C231.314 77.1493 231.786 77.4087 231.838 77.8811C231.957 78.9558 231.724 78.9748 229.563 78.0626C228.599 77.6555 227.826 77.4613 227.844 77.63C227.908 78.2064 233.857 80.4042 234.314 80.0207C234.563 79.8101 234.919 79.9679 235.104 80.3705C235.288 80.7732 235.618 80.8762 235.838 80.5991C236.39 79.9039 235.688 79.4066 234.149 79.4041C232.061 79.3997 232.024 79.3793 232.261 78.3749C232.456 77.5434 232.766 77.5514 234.555 78.4324C236.462 79.3707 236.71 79.3653 237.739 78.3628C238.446 77.6731 238.54 77.3811 237.996 77.5648C237.183 77.8383 231.09 75.9105 230.404 75.1628C230.227 74.9694 228.837 74.3633 227.316 73.8158C225.793 73.2684 224.353 72.5521 224.115 72.2246C223.814 71.8127 223.472 71.8621 223.005 72.3846C222.374 73.0897 219.322 72.0404 212.525 68.7817C211.805 68.4358 210.774 68.3214 210.233 68.5275C209.517 68.8 209.38 68.6872 209.728 68.1131C210.082 67.5298 209.817 67.3907 208.71 67.5797C207.888 67.7202 206.869 67.6007 206.448 67.3142C206.027 67.0278 205.701 66.9561 205.723 67.1551C205.745 67.354 205.156 67.3425 204.415 67.1294C203.589 66.8919 202.697 67.0266 202.109 67.4766C201.417 68.0074 201.239 68.0105 201.466 67.4865C201.649 67.0634 201.403 66.8041 200.874 66.8625C200.355 66.9199 200.164 67.23 200.425 67.5898C200.742 68.0244 200.457 68.1152 199.5 67.8861C196.197 67.0954 192.903 66.7063 192.683 67.0815C192.194 67.9148 190.542 68.0508 190.727 67.2431C190.829 66.7978 190.193 65.686 189.313 64.7731C188.2 63.619 187.871 63.4687 188.231 64.2805C188.516 64.9224 189.179 65.7355 189.705 66.0876C191.028 66.9736 190.292 66.9893 188.25 66.1186C187.313 65.7195 186.744 65.3691 186.986 65.34C187.228 65.3115 187.12 64.8116 186.747 64.229C186.013 63.0833 182.812 63.1395 183.139 64.2928C183.274 64.7658 182.436 64.8541 180.101 64.6126C176.848 64.276 175.601 63.3878 177.17 62.5245C177.638 62.2665 177.906 62.322 177.765 62.6467C177.264 63.8016 178.746 63.8532 179.876 62.7207L181.025 61.5702L179.758 62.0414C178.896 62.362 178.548 62.2669 178.671 61.7446C178.771 61.3216 178.433 60.9702 177.921 60.9631C177.409 60.9554 176.474 60.8861 175.842 60.8084C175.21 60.7301 174.597 60.6564 174.48 60.6437C174.362 60.6303 174.51 60.2179 174.808 59.7259C175.243 59.0081 175.105 58.9051 174.112 59.2053C173.43 59.4104 172.483 59.3608 172.006 59.0946C171.29 58.6949 171.247 58.4309 171.761 57.5838C172.274 56.7387 172.243 56.5235 171.591 56.3673C170.245 56.0452 168.607 55.993 166.267 56.1965C164.836 56.3215 164.591 56.4282 165.591 56.4909ZM184.386 55.5863C184.255 56.1407 183.773 56.4848 183.313 56.3513C182.854 56.2178 182.391 56.4471 182.285 56.8605C182.145 57.4011 181.902 57.3802 181.421 56.7863C181.052 56.3318 180.598 56.1659 180.412 56.4172C180.226 56.6686 179.593 56.6632 179.006 56.4043C178.393 56.1353 177.423 56.2095 176.731 56.5792C175.607 57.1784 175.66 57.2411 177.497 57.4875C178.582 57.6332 179.86 57.8177 180.336 57.8979C180.812 57.9781 182.347 58.0216 183.746 57.9949C185.146 57.9676 185.835 57.8657 185.279 57.7673C184.185 57.5736 183.866 56.7794 184.627 56.1407C184.887 55.9215 185.26 56.0707 185.455 56.4721C185.65 56.8736 185.714 56.5923 185.597 55.848C185.35 54.2714 184.728 54.1369 184.386 55.5863ZM173.065 56.8937C173.732 57.4719 175.233 57.4199 174.805 56.8336C174.598 56.5491 174.024 56.3616 173.529 56.4163C173.034 56.471 172.825 56.6857 173.065 56.8937ZM171.153 57.8757C170.849 58.5674 170.513 59.0569 170.405 58.9641C170.034 58.6421 170.698 56.7291 171.201 56.6736C171.478 56.6429 171.457 57.184 171.153 57.8757ZM160.405 58.2718C160.808 58.3974 161.438 58.3278 161.804 58.1172C162.171 57.9071 161.841 57.8046 161.071 57.8897C160.301 57.9747 160.001 58.1468 160.405 58.2718ZM187.46 57.6636C187.328 58.2229 187.449 58.4551 187.742 58.2084C188.024 57.9715 188.227 57.5218 188.192 57.2086C188.096 56.3389 187.716 56.5749 187.46 57.6636ZM189.416 58.0277C189.471 58.5267 189.76 58.9079 190.059 58.875C190.356 58.8421 190.41 58.4229 190.178 57.9435C189.946 57.4641 189.657 57.0829 189.536 57.0962C189.415 57.1096 189.361 57.5288 189.416 58.0277ZM168.375 60.2261C168.231 60.8456 167.955 61.2159 167.762 61.0487C167.569 60.882 167.687 60.375 168.025 59.922C168.512 59.2682 168.584 59.3307 168.375 60.2261ZM172.533 60.3524C172.452 60.7826 171.964 61.2216 171.45 61.328C170.662 61.4916 170.665 61.4545 171.47 61.09C172.343 60.6962 172.324 60.6272 171.253 60.3011C170.159 59.9684 170.168 59.9319 171.382 59.7574C172.186 59.6421 172.626 59.869 172.533 60.3524ZM161.908 61.7457C161.428 62.3951 157.792 62.9089 156.932 62.4487C156.46 62.1971 157.358 61.891 159.177 61.6845C160.844 61.4954 162.073 61.523 161.908 61.7457ZM148.469 64.6382C148.675 64.9203 148.324 65.065 147.688 64.959C146.34 64.7339 146.13 64.3415 147.288 64.2134C147.732 64.1644 148.263 64.3555 148.469 64.6382ZM170.689 64.1748C170.655 64.5697 171.28 65.0327 172.078 65.2041C173.137 65.4311 172.733 65.5847 170.583 65.7734C168.963 65.915 167.612 65.8078 167.582 65.5344C167.552 65.2617 168.046 64.9806 168.679 64.9105C169.313 64.8405 169.646 64.5282 169.419 64.2166C169.192 63.905 169.399 63.6066 169.879 63.5536C170.359 63.5006 170.724 63.7805 170.689 64.1748ZM163.083 65.0086C164.548 65.2783 164.312 65.4201 161.51 65.955C160.504 66.147 159.523 66.0894 159.332 65.8271C159.141 65.5649 158.767 65.5321 158.502 65.7555C158.236 65.9782 157.987 65.8729 157.948 65.5209C157.875 64.8569 160.717 64.5734 163.083 65.0086ZM156.825 65.6083C157.368 65.9046 157.464 66.1346 157.063 66.185C156.697 66.2303 156.212 66.0127 155.985 65.7011C155.473 64.9974 155.666 64.976 156.825 65.6083ZM180.401 63.6152C180.438 63.9479 180.72 64.1922 181.028 64.1582C181.336 64.1241 181.558 63.8242 181.521 63.4915C181.484 63.1589 181.202 62.9146 180.894 62.9486C180.586 62.9826 180.365 63.2826 180.401 63.6152ZM175.481 63.952C175.114 64.1627 174.485 64.2323 174.082 64.1067C173.678 63.9817 173.978 63.8096 174.748 63.7245C175.517 63.6395 175.847 63.742 175.481 63.952ZM145.976 67.4193C145.823 67.773 145.586 68.0746 145.45 68.0896C145.314 68.1046 145.173 67.8447 145.137 67.5121C145.1 67.1795 145.337 66.8778 145.663 66.8418C145.988 66.8058 146.13 67.0656 145.976 67.4193ZM126.109 69.6527C127.211 69.758 127.601 69.9372 126.974 70.0504C126.348 70.1644 125.605 70.5697 125.322 70.9517C124.965 71.4344 124.572 71.4007 124.036 70.8423C123.019 69.7835 123.656 69.4181 126.109 69.6527ZM167.032 65.6858C167.067 66.0076 166.701 66.1563 166.219 66.0163C165.736 65.8756 165.329 65.6536 165.314 65.523C165.3 65.3924 165.666 65.2436 166.128 65.1925C166.589 65.1415 166.996 65.3634 167.032 65.6858ZM122.28 70.8906C122.294 71.0213 121.933 71.3336 121.477 71.5848C121.002 71.8461 120.766 71.7693 120.924 71.4053C121.189 70.7938 122.225 70.4008 122.28 70.8906ZM108.222 73.7302C108.454 74.2078 108.877 74.4023 109.163 74.1619C109.482 73.8934 109.368 73.5577 108.865 73.2894C107.769 72.7047 107.736 72.7267 108.222 73.7302ZM190.785 65.2881C190.799 65.4188 191.189 65.4841 191.651 65.433C192.113 65.382 192.461 65.0766 192.426 64.7542C192.39 64.4324 192 64.3672 191.56 64.6093C191.119 64.8521 190.77 65.1575 190.785 65.2881ZM239.026 61.7835C240.118 62.4348 240.287 62.7963 239.842 63.5299C239.534 64.039 239.438 64.4377 239.63 64.4165C239.821 64.3953 240.167 64.3571 240.398 64.3316C240.628 64.3061 240.819 64.0096 240.821 63.6727C240.828 62.2577 240.912 62.1763 241.524 62.9828C241.913 63.4963 242.138 63.5449 242.095 63.1064C242.056 62.7079 241.287 62.0644 240.388 61.6765C238.157 60.7139 237.34 60.7779 239.026 61.7835ZM216.694 63.8901C216.731 64.2227 217.028 64.4654 217.353 64.4294C217.679 64.3934 217.76 64.1089 217.533 63.7973C217.306 63.4857 217.01 63.243 216.874 63.258C216.738 63.273 216.657 63.5574 216.694 63.8901ZM195.623 68.055C196.726 68.6561 195.842 68.7538 194.224 68.2096C193.448 67.9483 193.332 67.7707 193.883 67.6877C194.343 67.618 195.126 67.7836 195.623 68.055ZM101.543 78.0795C101.558 78.2101 101.197 78.5224 100.741 78.7736C100.265 79.0349 100.03 78.9581 100.188 78.5942C100.453 77.9827 101.489 77.5896 101.543 78.0795ZM242.89 63.5971C243.077 63.9976 243.483 64.2368 243.792 64.1292C244.101 64.0215 244.542 64.32 244.771 64.793C245.136 65.546 244.972 65.5623 243.455 64.9213C242.183 64.3847 241.636 64.387 241.4 64.9298C241.201 65.3876 241.308 65.4781 241.677 65.1667C242.006 64.8903 242.308 64.9525 242.347 65.3045C242.386 65.6565 242.891 65.8927 243.469 65.8288C244.462 65.719 246.458 67.2211 246.119 67.8236C246.032 67.9777 246.169 68.2651 246.422 68.4611C246.676 68.6578 246.664 68.4986 246.397 68.1076C246.075 67.6362 246.258 67.4103 246.94 67.4354C247.506 67.4567 247.977 67.1978 247.986 66.86C247.996 66.5223 247.755 66.3537 247.45 66.4852C247.146 66.6168 246.992 66.3235 247.107 65.8339C247.222 65.3442 247.025 65.0103 246.67 65.0919C246.314 65.1734 246.001 65.0482 245.975 64.8129C245.918 64.2934 243.671 62.792 243.019 62.8372C242.761 62.8547 242.703 63.1971 242.89 63.5971ZM219.271 66.2775C219.413 66.3842 220.194 66.7264 221.008 67.0375C222.402 67.5703 222.419 67.5562 221.296 66.7821C220.319 66.109 218.423 65.636 219.271 66.2775ZM104.049 80.2452C104.063 80.3728 103.586 80.6753 102.99 80.9175C102.393 81.1598 102.018 81.0953 102.157 80.775C102.4 80.215 103.996 79.768 104.049 80.2452ZM218.58 70.7058C218.614 71.0118 221.908 72.4965 222.426 72.4393C222.596 72.4206 222.702 72.1168 222.663 71.7648C222.624 71.4128 222.415 71.2738 222.197 71.4564C221.98 71.639 221.134 71.4832 220.317 71.1101C218.622 70.3345 218.537 70.3145 218.58 70.7058ZM249.358 68.4544C248.975 68.2555 248.91 68.3888 249.199 68.7842C249.767 69.5644 250.702 68.9548 250.523 67.921C250.435 67.4091 250.343 67.4304 250.2 67.9965C250.09 68.4316 249.711 68.6376 249.358 68.4544ZM212.525 72.3091C213.022 72.5804 213.177 72.8302 212.869 72.8642C212.562 72.8983 211.903 72.7042 211.405 72.4328C210.908 72.1615 210.753 71.9117 211.061 71.8777C211.368 71.8437 212.027 72.0378 212.525 72.3091ZM215.749 73.1502C215.602 73.4884 215.095 73.6528 214.623 73.5153C213.413 73.1635 213.512 72.8122 214.864 72.6628C215.497 72.5928 215.896 72.812 215.749 73.1502ZM250.763 69.6803C250.818 70.1804 251.936 70.3434 252.137 69.8804C252.268 69.5801 252.008 69.3744 251.559 69.4239C251.111 69.4734 250.753 69.589 250.763 69.6803ZM99.6874 86.9206C98.9703 87.4811 98.1316 87.9674 97.8238 88.0014C97.5159 88.0354 97.8508 87.6048 98.5679 87.0443C99.285 86.4839 100.124 85.9976 100.432 85.9636C100.739 85.9296 100.405 86.3602 99.6874 86.9206ZM258.983 71.0015C259.525 71.6988 260.19 72.2412 260.46 72.2065C260.73 72.1718 261.611 72.7631 262.419 73.5205L263.887 74.8979L262.423 73.0939C261.618 72.1018 260.774 71.4451 260.549 71.6347C260.323 71.8243 259.805 71.4573 259.396 70.8199C258.987 70.1825 258.505 69.6768 258.325 69.6968C258.144 69.7168 258.44 70.3042 258.983 71.0015ZM221.811 74.3077C221.846 74.621 221.68 75.0404 221.442 75.2398C221.204 75.4394 220.966 75.2068 220.912 74.7223C220.859 74.2379 221.025 73.8185 221.282 73.7901C221.538 73.7618 221.776 73.9944 221.811 74.3077ZM224.597 76.478C224.83 76.7987 224.617 76.9251 224.096 76.7739C223.082 76.4789 222.857 76.0648 223.662 75.9759C223.952 75.9438 224.372 76.1698 224.597 76.478ZM268.332 72.5897C269.532 73.368 270.451 73.5223 270.387 72.9357C270.354 72.6418 268.095 71.7821 267.429 71.8098C267.274 71.8165 267.681 72.1671 268.332 72.5897ZM247.005 76.693C247.019 76.8212 247.774 77.3047 248.682 77.7682L250.333 78.6111L248.874 77.5113C247.45 76.4387 246.953 76.2207 247.005 76.693ZM273.96 76.1221C276.144 78.3294 276.758 78.8242 276.963 78.5469C277.076 78.3936 276.396 77.5461 275.453 76.6635C274.51 75.7804 273.781 74.8207 273.835 74.5302C273.888 74.2402 273.678 74.2163 273.367 74.4778C272.989 74.7957 273.185 75.3391 273.96 76.1221ZM237.404 79.3107C237.139 79.9203 239.381 80.7292 240.28 80.3482C240.554 80.2322 240.48 80.6285 240.116 81.2296C239.547 82.1691 239.598 82.4119 240.486 82.967C241.054 83.3218 241.36 83.8689 241.166 84.183C240.972 84.4964 241.257 84.3003 241.799 83.7463C242.691 82.8361 242.761 82.8448 242.536 83.8382C242.398 84.4429 242.53 84.9102 242.827 84.8773C243.126 84.8443 243.335 84.4998 243.292 84.1115C243.249 83.7239 243.426 83.5893 243.684 83.8136C243.942 84.0373 244.092 84.3733 244.016 84.5604C243.888 84.8777 244.832 85.3714 248.869 87.0961C249.772 87.4818 250.396 88.0605 250.256 88.3826C250.116 88.7048 250.375 88.7626 250.831 88.512C251.792 87.9828 251.842 86.942 250.902 87.0459C250.551 87.0847 249.851 86.6803 249.345 86.1467C248.839 85.6131 248.622 85.4999 248.863 85.8938C249.104 86.2884 249.034 86.6402 248.708 86.6762C248.382 86.7122 248.07 86.3335 248.015 85.8345C247.96 85.3355 247.537 84.9691 247.075 85.0201C246.613 85.0711 246.211 84.8885 246.18 84.6139C246.15 84.3393 247.008 84.0382 248.088 83.944C249.295 83.8388 250.084 84.0736 250.138 84.5543C250.187 84.9836 250.774 85.8443 251.443 86.467C252.609 87.5515 252.825 89.6378 251.711 89.0593C251.416 88.9059 251.202 89.0391 251.237 89.356C251.272 89.6729 251.709 90.0507 252.209 90.1962C252.73 90.3474 252.943 90.221 252.71 89.9003C252.485 89.5921 252.695 89.2966 253.174 89.2435C253.654 89.1905 254.088 89.4872 254.139 89.9022C254.204 90.4367 254.349 90.3919 254.637 89.7499C254.859 89.2508 254.846 88.4392 254.608 87.9471C254.32 87.3538 254.126 87.3049 254.03 87.8028C253.951 88.2149 253.664 88.5773 253.391 88.6074C253.119 88.6375 252.996 88.2379 253.117 87.7194C253.404 86.5031 254.041 86.4566 255.514 87.5446C256.741 88.4521 256.829 90.3658 255.617 89.7903C255.24 89.6115 255.154 89.6767 255.425 89.9345C256.078 90.556 257.698 90.6194 257.251 90.0058C256.561 89.0584 257.861 88.7636 258.716 89.6738C259.461 90.4674 259.464 90.5424 258.739 90.1762C258.114 89.8609 258.003 89.9852 258.321 90.6424C258.56 91.1351 258.5 91.9315 258.188 92.4116C257.734 93.1101 257.775 93.1435 258.392 92.5788C259.34 91.7131 260.868 91.6036 260.829 92.4044C260.812 92.7276 261.92 93.6802 263.29 94.5205C264.97 95.5508 265.631 95.7396 265.322 95.1005C265.069 94.5793 265.149 93.9913 265.499 93.7947C265.85 93.5974 265.385 93.5618 264.467 93.7159C263.344 93.9043 262.82 93.7283 262.864 93.178C262.9 92.7278 262.715 92.5401 262.452 92.7607C262.19 92.9813 261.771 92.7417 261.523 92.2286C261.195 91.5528 261.322 91.3686 261.984 91.5611C262.766 91.7887 262.729 91.5848 261.719 90.1408C260.896 88.9663 260.431 88.6951 260.184 89.2464C259.824 90.0509 259.475 89.195 259.481 87.5212C259.483 87.1256 259.209 86.6599 258.874 86.4852C258.499 86.2909 258.456 86.5724 258.762 87.2168C259.182 88.0985 259.112 88.1607 258.322 87.6089C257.805 87.2479 257.199 87.1771 256.975 87.4516C256.751 87.7256 256.669 87.4708 256.794 86.8852C256.954 86.1378 256.796 85.944 256.267 86.2345C255.851 86.4635 254.751 85.9545 253.811 85.0973C252.876 84.2438 252.372 83.9297 252.693 84.3993C253.014 84.8689 252.248 84.5856 250.991 83.7701C249.103 82.545 248.573 82.4353 247.943 83.139C247.524 83.6078 247.197 83.7363 247.217 83.4243C247.302 82.0981 246.899 81.4895 245.814 81.3088C245.179 81.2027 244.827 81.3475 245.033 81.6295C245.597 82.4035 244.915 82.3129 243.255 81.3927C242.436 80.9395 241.784 80.7226 241.805 80.9113C241.826 81.1 241.102 80.6608 240.198 79.9349C238.425 78.5134 237.81 78.3758 237.404 79.3107ZM246.803 82.5947C247.037 82.9153 246.824 83.0418 246.303 82.8906C245.801 82.7445 245.429 82.9424 245.472 83.3313C245.515 83.719 245.251 83.881 244.885 83.6913C244.421 83.4505 244.432 83.1634 244.921 82.742C245.843 81.9496 246.307 81.9131 246.803 82.5947ZM261.657 83.4509C261.869 83.741 262.339 83.9235 262.703 83.857C263.176 83.7704 263.155 83.6705 262.627 83.5072C262.222 83.3812 262.025 82.969 262.189 82.5909C262.366 82.1813 262.242 82.1093 261.88 82.4138C261.546 82.6943 261.446 83.1609 261.657 83.4509ZM73.6774 110.154C73.1805 110.968 72.6333 111.513 72.4617 111.365C72.2905 111.216 71.808 111.474 71.3902 111.939C70.7256 112.677 70.698 112.597 71.1692 111.298C71.4654 110.481 72.0508 109.913 72.4699 110.035C72.8891 110.157 73.5355 109.9 73.9067 109.465C74.2778 109.029 74.1744 109.339 73.6774 110.154ZM260.683 90.7603C260.872 91.0204 260.671 91.2722 260.236 91.3202C259.801 91.3683 259.551 91.1664 259.678 90.8713C259.806 90.5768 260.007 90.325 260.125 90.312C260.242 90.299 260.494 90.5008 260.683 90.7603ZM59.1072 116.068C58.325 117.568 57.8674 118.954 58.0898 119.146C58.3123 119.339 58.6538 118.821 58.8482 117.995C59.0431 117.169 59.7846 115.645 60.4971 114.607C61.2091 113.57 61.5081 112.86 61.1609 113.03C60.8137 113.201 59.8893 114.567 59.1072 116.068ZM270.702 96.198C271.148 96.6618 271.626 96.8868 271.766 96.6981C271.906 96.5088 272.346 96.5869 272.743 96.8717C273.238 97.2259 273.437 97.1232 273.373 96.5456C273.319 96.0563 272.863 95.8379 272.289 96.0251C271.744 96.2028 271.123 96.1092 270.91 95.8168C270.697 95.5239 270.381 95.3005 270.208 95.3196C270.034 95.3388 270.256 95.7342 270.702 96.198ZM266.209 96.6584C266.226 96.8126 266.843 97.2029 267.58 97.5256C268.794 98.0568 268.837 98.0251 268.04 97.1901C267.221 96.3323 266.138 96.0179 266.209 96.6584ZM57.7384 120.914C57.7919 121.398 58.0301 121.631 58.2681 121.431C58.5055 121.232 58.6717 120.813 58.6371 120.499C58.6025 120.186 58.3643 119.953 58.1079 119.982C57.851 120.01 57.6849 120.429 57.7384 120.914ZM267.631 99.2774C267.668 99.6101 267.965 99.8527 268.291 99.8167C268.617 99.7807 268.698 99.4963 268.471 99.1846C268.244 98.873 267.947 98.6303 267.811 98.6453C267.675 98.6604 267.595 98.9448 267.631 99.2774ZM54.7239 126.106C54.7383 126.237 55.1588 126.462 55.6587 126.608C56.1797 126.759 56.3929 126.633 56.1592 126.312C55.767 125.773 54.6697 125.616 54.7239 126.106ZM42.2072 132.956C41.0986 134.05 40.0887 138.585 40.8136 139.213C41.0962 139.458 42.1815 138.537 43.2257 137.168C44.9131 134.954 45.0025 134.646 44.0297 134.395C43.2768 134.201 43.127 133.952 43.549 133.597C44.2452 133.012 44.2694 131.918 43.5842 131.994C43.3352 132.021 42.7155 132.454 42.2072 132.956ZM277.791 109.174C278.288 109.445 278.443 109.695 278.135 109.729C277.827 109.763 277.168 109.569 276.671 109.298C276.174 109.026 276.019 108.777 276.326 108.743C276.634 108.709 277.293 108.903 277.791 109.174ZM283.864 121.728C284.072 121.909 284.558 121.877 284.942 121.658C285.367 121.415 285.219 121.287 284.563 121.33C283.971 121.369 283.656 121.548 283.864 121.728ZM285.752 124.823C285.789 125.156 285.462 125.467 285.025 125.516C284.589 125.564 283.851 125.813 283.387 126.068C282.914 126.329 282.507 126.222 282.464 125.828C282.421 125.44 282.656 125.263 282.987 125.435C283.318 125.606 283.556 125.458 283.517 125.106C283.478 124.754 283.95 124.41 284.566 124.342C285.182 124.274 285.716 124.491 285.752 124.823ZM48.1262 160.723C49.0466 161.885 50.2822 162.812 50.8713 162.784C51.6644 162.748 51.2626 162.203 49.3225 160.685C47.8818 159.558 46.6467 158.63 46.5774 158.624C46.5082 158.618 47.2053 159.563 48.1262 160.723ZM53.059 167.113C55.5168 169.65 56.7853 170.398 56.6564 169.231C56.6265 168.961 55.76 168.041 54.7307 167.187C53.7014 166.333 52.8224 165.3 52.7771 164.89C52.7319 164.481 52.3664 164.06 51.9653 163.953C50.227 163.491 50.6023 164.575 53.059 167.113ZM36.5216 166.48C36.5605 166.832 36.8246 166.925 37.1088 166.687C37.3923 166.448 38.0236 166.982 38.5108 167.874C38.9973 168.764 39.8936 169.969 40.5017 170.55C41.1125 171.134 41.572 172.226 41.5291 172.991C41.4829 173.809 41.7917 174.476 42.2822 174.618C42.7395 174.751 43.0844 174.596 43.0488 174.274C43.0132 173.952 43.2628 173.658 43.6037 173.62C43.9446 173.582 44.1243 173.973 44.0032 174.487C43.8821 175.001 44.011 175.331 44.2894 175.22C44.5683 175.109 45.9677 176.129 47.3993 177.486C48.8315 178.843 49.3917 179.226 48.6441 178.337C47.8966 177.448 47.2543 176.44 47.2164 176.097C47.1434 175.436 46.8657 175.149 42.5768 171.285C41.0786 169.935 39.3335 168.13 38.6985 167.275C37.5373 165.709 36.3901 165.291 36.5216 166.48ZM37.3763 168.851C37.7966 169.507 38.2606 169.88 38.408 169.682C38.8142 169.132 37.8878 167.518 37.2088 167.593C36.7952 167.638 36.8463 168.024 37.3763 168.851ZM38.7029 170.838C38.724 171.028 39.1641 171.55 39.6811 171.998C40.7011 172.882 40.7991 172.723 40.11 171.301C39.6915 170.437 38.6197 170.085 38.7029 170.838ZM299.404 145.659C299.441 145.992 299.67 145.829 299.913 145.297C300.156 144.765 300.325 144.058 300.289 143.725C300.252 143.392 300.023 143.555 299.78 144.087C299.536 144.619 299.367 145.327 299.404 145.659ZM42.9212 173.119C42.9601 173.471 42.7215 173.619 42.3909 173.448C42.0603 173.276 41.7766 173.016 41.7604 172.869C41.7441 172.722 41.9828 172.575 42.2907 172.541C42.5985 172.507 42.8823 172.767 42.9212 173.119ZM51.0418 180.889C51.4911 181.278 51.7559 181.285 51.7141 180.907C51.6248 180.099 50.8836 179.457 50.5549 179.902C50.4149 180.092 50.6339 180.536 51.0418 180.889ZM50.7759 186.091C51.0057 186.29 51.2248 186.734 51.2629 187.078C51.3047 187.457 51.0399 187.45 50.5906 187.061C50.1827 186.707 49.9637 186.263 50.1037 186.074C50.2436 185.884 50.5465 185.892 50.7759 186.091ZM72.6696 186.963C73.3823 187.46 73.8087 188.078 73.6164 188.338C73.4247 188.597 73.5102 188.694 73.8063 188.554C74.5621 188.194 78.1522 189.427 78.2234 190.07C78.2557 190.363 78.9118 190.532 79.6815 190.447C80.4512 190.362 81.111 190.565 81.1477 190.897C81.1845 191.23 81.6547 191.445 82.1921 191.376C83.0876 191.26 83.0864 191.209 82.1775 190.767C81.0913 190.238 81.06 187.853 82.1375 187.718C82.498 187.673 82.4052 187.444 81.9224 187.186C80.9609 186.674 79.6092 187.229 79.7051 188.098C79.7402 188.415 80.0021 188.477 80.2872 188.238C80.5724 187.998 80.8548 188.247 80.9147 188.789C80.9839 189.415 80.6551 189.731 80.0187 189.653C79.4661 189.585 79.0388 189.21 79.0696 188.817C79.1034 188.39 78.7721 188.299 78.2433 188.59C77.6862 188.896 77.4716 188.82 77.6612 188.383C77.8483 187.953 77.5879 187.842 76.9746 188.091C76.4313 188.312 75.6114 188.101 75.1529 187.624C74.6938 187.145 73.957 186.795 73.5148 186.844C73.072 186.892 72.8152 186.691 72.943 186.397C73.0707 186.102 72.7703 185.905 72.2749 185.96C71.5562 186.039 71.6364 186.242 72.6696 186.963ZM59.695 188.664C61.2055 189.643 61.7868 189.596 61.2731 188.537C60.8921 187.75 59.2163 187.183 58.7361 187.677C58.6166 187.8 59.0481 188.244 59.695 188.664ZM78.1519 186.204C78.0305 186.484 78.4818 186.697 79.1556 186.678C80.1254 186.65 80.1941 186.544 79.4844 186.166C78.3875 185.582 78.4224 185.581 78.1519 186.204ZM56.0565 189.439C57.38 190.372 57.4125 190.451 56.2928 190.009C55.5778 189.727 54.808 189.242 54.5823 188.933C53.9792 188.105 54.3361 188.228 56.0565 189.439ZM82.7158 186.613C83.4081 186.946 83.9425 187.573 83.9037 188.006C83.865 188.44 83.9298 188.504 84.0481 188.149C84.3178 187.339 86.0102 188.723 86.1223 189.845C86.1818 190.445 86.0472 190.437 85.5827 189.813C85.2421 189.355 84.8145 189.183 84.6315 189.43C84.4492 189.677 84.7309 190.252 85.2573 190.708C86.1164 191.453 86.2563 191.335 86.6182 189.569C86.8397 188.487 86.9531 187.576 86.8709 187.544C86.7881 187.513 85.7888 187.135 84.6505 186.704C82.2425 185.792 80.8723 185.728 82.7158 186.613ZM62.2666 189.236C62.2988 189.528 62.7079 190.041 63.176 190.375C63.8337 190.846 64.0802 190.759 64.2607 189.993C64.3953 189.421 64.2773 189.184 63.9817 189.432C63.6997 189.669 63.4371 189.574 63.3982 189.222C63.3593 188.87 63.0755 188.609 62.7676 188.643C62.4598 188.677 62.2343 188.944 62.2666 189.236ZM87.7663 188.177C87.8593 188.418 87.6953 189.247 87.4018 190.016C87.0446 190.952 87.0724 191.522 87.4854 191.736C87.825 191.912 88.0421 191.836 87.9675 191.567C87.6106 190.275 87.9417 189.779 89.26 189.634C90.3263 189.516 90.6612 189.742 90.5624 190.514C90.4641 191.281 90.698 191.444 91.4534 191.138C92.0169 190.909 92.5871 190.471 92.7204 190.164C92.8536 189.857 92.6206 189.794 92.2024 190.024C91.7841 190.254 91.2369 190.019 90.9858 189.501C90.7348 188.983 90.3209 188.734 90.0658 188.948C89.8112 189.162 89.2469 188.967 88.8115 188.513C87.9548 187.621 87.4965 187.474 87.7663 188.177ZM82.0668 188.959C82.1035 189.292 82.2444 189.552 82.3805 189.537C82.5165 189.522 82.7528 189.22 82.9064 188.867C83.06 188.513 82.9185 188.253 82.5927 188.289C82.2669 188.325 82.03 188.627 82.0668 188.959ZM83.2983 191.757C83.1769 192.037 83.6282 192.251 84.302 192.231C85.2718 192.204 85.3405 192.097 84.6307 191.719C83.5339 191.135 83.5688 191.134 83.2983 191.757ZM69.7325 195.27L71.268 196.348L69.3429 195.59C68.2837 195.173 67.4034 194.703 67.3859 194.545C67.3195 193.944 68.254 194.232 69.7325 195.27ZM294.206 170.721C294.243 171.053 294.074 171.761 293.831 172.293C293.588 172.825 293.359 172.988 293.322 172.655C293.285 172.322 293.454 171.615 293.697 171.083C293.94 170.551 294.169 170.388 294.206 170.721ZM289.034 172.104C289.109 172.778 288.974 173.229 288.735 173.104C288.495 172.98 288.104 173.385 287.865 174.006C287.626 174.625 287.281 175.003 287.098 174.845C286.915 174.686 287.245 173.729 287.832 172.717C288.781 171.082 288.914 171.014 289.034 172.104ZM94.8137 193.367C95.0463 193.846 95.3355 194.227 95.4564 194.214C95.5773 194.2 95.6312 193.781 95.5761 193.282C95.521 192.783 95.2318 192.402 94.9335 192.435C94.6357 192.468 94.5817 192.887 94.8137 193.367ZM93.2746 194.892C93.8631 195.26 94.0445 195.594 93.6779 195.635C93.3113 195.675 93.0473 196.035 93.0914 196.434C93.1534 196.995 93.3047 196.98 93.7582 196.367C94.7012 195.091 94.4722 193.973 93.2945 194.103C92.269 194.216 92.2679 194.263 93.2746 194.892ZM97.0525 197.05C97.3951 197.227 97.3595 197.859 96.9661 198.606C96.3746 199.728 96.0151 199.598 96.0614 198.279C96.0703 198.026 95.8333 197.845 95.5349 197.878C95.2371 197.911 95.076 197.447 95.1767 196.846C95.2781 196.246 95.0499 196.478 94.6699 197.362C94.2894 198.245 93.9318 198.63 93.8746 198.215C93.8181 197.8 93.3768 197.504 92.8943 197.558C92.2461 197.629 92.0759 197.288 92.2419 196.252C92.4648 194.865 92.4584 194.864 91.6576 196.164C90.9912 197.245 90.8812 197.286 91.0366 196.395C91.2 195.459 91.0873 195.429 90.2088 196.174C89.6493 196.649 89.2165 197.26 89.2466 197.532C89.2767 197.805 89.5284 197.836 89.8057 197.603C90.0837 197.37 90.8 197.674 91.3982 198.278C91.9959 198.882 92.677 199.216 92.9113 199.019C93.1456 198.822 93.3661 198.92 93.4011 199.236C93.4572 199.744 95.0484 200.233 97.4368 200.476C97.8718 200.52 98.5296 200.818 98.898 201.137C99.7408 201.868 101.231 201.745 100.681 200.989C100.443 200.662 100.671 200.545 101.231 200.708C101.916 200.907 102.013 201.134 101.571 201.505C101.096 201.904 101.122 202.112 101.686 202.404C102.095 202.616 102.598 202.391 102.824 201.896C103.164 201.15 103.334 201.144 103.88 201.853C104.238 202.319 104.503 202.408 104.469 202.052C104.387 201.204 101.508 199.048 101.134 199.554C100.975 199.769 100.806 199.593 100.759 199.164C100.689 198.535 100.525 198.55 99.9047 199.243C99.2627 199.962 99.1763 199.933 99.3795 199.07C99.5145 198.497 99.3477 198.069 99.0029 198.107C98.662 198.145 98.4283 198.584 98.4835 199.083C98.5386 199.582 98.338 200.017 98.0379 200.05C97.7071 200.087 97.616 199.555 97.807 198.698C97.9806 197.921 97.97 196.949 97.784 196.538C97.598 196.126 97.6205 195.422 97.8338 194.973C98.0477 194.524 97.8296 194.74 97.3498 195.454C96.8563 196.187 96.7273 196.881 97.0525 197.05ZM80.9395 197.33C83.1859 197.969 84.0885 198.467 83.5427 198.767C83.0839 199.02 82.5953 198.967 82.4576 198.649C82.32 198.332 81.6392 198.088 80.9446 198.109C80.2504 198.129 79.6606 197.949 79.6341 197.709C79.6076 197.469 78.8834 197.263 78.0254 197.252C77.1674 197.24 76.698 197.033 76.983 196.791C77.2679 196.549 79.0483 196.792 80.9395 197.33ZM78.3066 198.551C78.5404 198.872 78.3271 198.998 77.8062 198.847C76.7922 198.552 76.5669 198.138 77.3718 198.049C77.6617 198.017 78.0822 198.243 78.3066 198.551ZM287.022 177.33C287.059 177.663 286.57 177.993 285.936 178.063C285.302 178.133 284.909 177.901 285.063 177.547C285.216 177.193 285.704 176.864 286.148 176.815C286.592 176.766 286.985 176.998 287.022 177.33ZM87.1372 199.301C87.2066 199.735 87.5261 199.868 87.8486 199.597C88.2074 199.295 88.3608 199.442 88.2447 199.976C88.1401 200.455 87.7734 200.813 87.4293 200.771C87.0675 200.726 86.9966 201.121 87.262 201.708C87.6302 202.522 87.5598 202.592 86.9033 202.066C86.2798 201.566 86.1957 201.067 86.5491 199.963C86.8038 199.166 87.0684 198.868 87.1372 199.301ZM85.5199 199.699C85.5505 199.976 85.2609 200.242 84.8769 200.289C84.38 200.351 84.4227 200.507 85.023 200.827C85.6268 201.149 85.4388 201.298 84.3634 201.35C83.1252 201.409 82.9945 201.288 83.6253 200.664C84.0473 200.248 84.2555 199.788 84.0882 199.644C83.9215 199.499 84.1627 199.339 84.6245 199.288C85.0864 199.237 85.4892 199.422 85.5199 199.699ZM90.6876 200.318C91.4383 200.778 91.4051 200.832 90.4995 200.621C89.6406 200.421 89.5517 200.523 90.0953 201.09C90.6375 201.654 90.4602 201.87 89.2914 202.065C88.467 202.203 88.0914 202.142 88.4578 201.931C88.8236 201.719 89.0809 201.16 89.0289 200.689C88.9163 199.67 89.4422 199.553 90.6876 200.318ZM166.131 192.668C166.335 192.949 166.611 193.031 166.744 192.852C166.877 192.672 167.972 192.781 169.178 193.095C170.525 193.444 171.65 193.424 172.096 193.041C172.661 192.554 172.574 192.433 171.695 192.487C170.288 192.574 167.843 192.372 167.584 192.147C167.112 191.738 165.797 192.21 166.131 192.668ZM284.214 180.608C284.406 180.872 283.903 181.943 283.094 182.989C282.286 184.034 281.591 184.587 281.55 184.216C281.509 183.845 282.039 182.945 282.726 182.216C283.414 181.487 283.799 180.736 283.581 180.547C283.362 180.358 283.337 180.186 283.524 180.166C283.712 180.145 284.022 180.344 284.214 180.608ZM172.916 193.692C172.723 194.136 172.89 194.268 173.345 194.03C173.754 193.817 174.597 194.025 175.217 194.492C176.158 195.202 176.298 195.199 176.064 194.472C175.811 193.686 174.643 192.964 173.623 192.965C173.408 192.966 173.089 193.292 172.916 193.692ZM80.5874 203.808C80.8211 204.129 80.6079 204.256 80.0869 204.104C79.073 203.809 78.8476 203.395 79.6526 203.306C79.9425 203.274 80.363 203.5 80.5874 203.808ZM177.499 195.322C178.171 195.904 178.582 195.951 178.791 195.471C178.962 195.075 178.714 194.808 178.224 194.863C177.744 194.916 177.316 194.642 177.273 194.253C177.23 193.866 177.042 193.755 176.855 194.008C176.668 194.261 176.958 194.853 177.499 195.322ZM110.247 202.986C110.283 203.319 110.424 203.579 110.56 203.564C110.696 203.549 110.933 203.247 111.086 202.894C111.24 202.54 111.098 202.28 110.773 202.316C110.447 202.352 110.21 202.654 110.247 202.986ZM103.443 204.375C103.682 205.035 103.987 205.427 104.123 205.244C104.389 204.884 103.651 203.103 103.253 203.147C103.118 203.162 103.203 203.715 103.443 204.375ZM179.724 195.921C179.76 196.254 180.042 196.498 180.35 196.464C180.658 196.43 180.88 196.13 180.843 195.798C180.806 195.465 180.524 195.221 180.217 195.255C179.909 195.289 179.687 195.589 179.724 195.921ZM96.9218 205.46C96.9717 205.912 96.6342 206.139 96.1307 205.992C95.6477 205.852 95.2307 205.539 95.2041 205.298C95.1773 205.056 95.5333 204.816 95.9951 204.765C96.4569 204.714 96.8739 205.027 96.9218 205.46ZM184.106 196.735C184.538 197.33 185.477 196.711 185.386 195.891C185.353 195.588 184.966 195.538 184.527 195.78C184.088 196.022 183.899 196.452 184.106 196.735ZM181.75 196.31C181.977 196.621 182.414 196.848 182.722 196.814C183.03 196.78 183.096 196.497 182.869 196.186C182.642 195.874 182.204 195.647 181.897 195.681C181.589 195.715 181.523 195.998 181.75 196.31ZM100.121 205.7C99.9847 206.275 99.5083 206.599 99.0101 206.453C97.7035 206.074 98.0124 206.644 99.4578 207.279C100.229 207.618 100.555 207.607 100.295 207.25C100.06 206.929 100.386 206.177 101.018 205.578C101.887 204.756 101.946 204.516 101.262 204.592C100.765 204.646 100.251 205.145 100.121 205.7ZM275.888 186.816C274.439 186.984 274.232 187.238 274.368 188.677C274.455 189.593 274.592 190.335 274.674 190.326C274.755 190.317 275.141 189.517 275.531 188.548C275.921 187.579 276.156 187.292 276.052 187.908C275.872 188.985 275.927 188.979 277.419 187.779C278.273 187.09 278.947 186.297 278.916 186.016C278.885 185.736 278.569 185.757 278.213 186.064C277.857 186.37 276.811 186.708 275.888 186.816ZM95.3337 206.471C96.1067 206.892 96.0961 206.982 95.2596 207.082C94.7216 207.146 94.251 206.927 94.2142 206.595C94.1327 205.857 94.1959 205.85 95.3337 206.471ZM186.214 197.135C186.679 198.207 189.095 198.691 188.985 197.69C188.923 197.137 188.502 197.018 187.724 197.334C186.922 197.659 186.656 197.574 186.877 197.064C187.055 196.654 186.912 196.351 186.561 196.39C186.209 196.429 186.053 196.764 186.214 197.135ZM172.474 199.665C172.666 199.832 173.097 199.597 173.432 199.141C173.914 198.483 173.842 198.421 173.081 198.837C172.554 199.126 172.281 199.498 172.474 199.665ZM189.893 198.352C190.085 198.52 190.517 198.284 190.851 197.828C191.333 197.17 191.261 197.108 190.5 197.524C189.973 197.813 189.7 198.185 189.893 198.352ZM181.7 198.422C181.716 198.569 182 198.829 182.33 199C182.661 199.172 182.899 199.024 182.86 198.672C182.822 198.32 182.538 198.059 182.23 198.093C181.922 198.127 181.683 198.275 181.7 198.422ZM175.02 199.502C174.594 199.875 174.497 200.153 174.805 200.119C175.113 200.085 175.713 199.752 176.139 199.378C176.566 199.005 176.662 198.727 176.355 198.761C176.047 198.795 175.446 199.129 175.02 199.502ZM183.446 198.841C183.462 198.988 183.746 199.248 184.076 199.419C184.407 199.591 184.645 199.443 184.607 199.091C184.568 198.739 184.284 198.478 183.976 198.512C183.668 198.546 183.43 198.694 183.446 198.841ZM177.11 200.643C177.663 200.899 178.247 200.931 178.407 200.714C178.567 200.497 178.39 200.354 178.013 200.396C177.636 200.437 177.451 200.185 177.602 199.835C177.765 199.462 177.513 199.402 176.991 199.688C176.167 200.142 176.176 200.21 177.11 200.643ZM195.372 199.09C195.848 199.337 196.349 199.389 196.485 199.206C196.62 199.023 196.341 198.67 195.865 198.423C195.388 198.176 194.887 198.123 194.751 198.307C194.616 198.49 194.895 198.842 195.372 199.09ZM283.595 189.903C283.064 190.735 281.936 192.066 281.089 192.86L279.549 194.304L280.515 192.791C281.046 191.96 282.174 190.629 283.021 189.834L284.561 188.39L283.595 189.903ZM157.321 203.271C156.668 203.831 156.703 203.967 157.564 204.217C158.117 204.377 158.435 204.817 158.272 205.195C158.108 205.572 158.563 205.286 159.282 204.56C160.002 203.833 160.483 203.143 160.353 203.025C160.222 202.908 159.726 203.238 159.25 203.759C158.488 204.594 158.415 204.576 158.635 203.608C158.913 202.391 158.476 202.279 157.321 203.271ZM198.363 199.129C198.571 199.309 199.056 199.277 199.44 199.058C199.866 198.816 199.717 198.687 199.062 198.73C198.469 198.769 198.155 198.949 198.363 199.129ZM276.63 190.963C276.644 191.094 276.283 191.406 275.827 191.657C275.352 191.918 275.116 191.842 275.274 191.478C275.539 190.866 276.576 190.473 276.63 190.963ZM200.668 199.486C200.876 199.666 201.362 199.635 201.746 199.415C202.172 199.173 202.023 199.044 201.368 199.087C200.775 199.127 200.46 199.306 200.668 199.486ZM165.558 203.608C165.785 203.92 166.271 204.138 166.637 204.092C167.037 204.042 166.941 203.812 166.398 203.516C165.24 202.883 165.046 202.905 165.558 203.608ZM163.703 204.768C163.756 205.247 163.998 205.617 164.24 205.591C164.481 205.564 164.621 205.018 164.55 204.377C164.479 203.736 164.238 203.365 164.015 203.554C163.791 203.742 163.65 204.288 163.703 204.768ZM274.163 192.907C273.829 193.363 273.397 193.599 273.205 193.431C273.012 193.264 273.285 192.892 273.812 192.603C274.574 192.187 274.646 192.249 274.163 192.907ZM161.233 205.268C161.09 205.598 161.29 206.031 161.677 206.232C162.099 206.451 162.202 206.353 161.935 205.986C161.691 205.65 161.921 205.201 162.446 204.988C163.3 204.642 163.301 204.605 162.447 204.635C161.922 204.654 161.376 204.939 161.233 205.268ZM165.479 205.45C165.06 205.635 167.466 206.367 168.335 206.32C168.936 206.286 168.942 206.104 168.362 205.499C167.731 204.842 166.882 204.828 165.479 205.45ZM240.293 197.756C240.15 198.086 240.308 198.497 240.644 198.672C240.98 198.846 241.208 198.564 241.151 198.046C241.033 196.983 240.68 196.865 240.293 197.756ZM213.304 201.202C213.856 201.294 214.864 201.188 215.545 200.966C216.225 200.745 215.774 200.669 214.541 200.799C213.309 200.928 212.753 201.11 213.304 201.202ZM276.992 196.804C276.509 197.531 275.987 198.14 275.833 198.157C275.679 198.174 275.949 197.593 276.432 196.866C276.916 196.139 277.438 195.531 277.592 195.514C277.746 195.497 277.475 196.077 276.992 196.804ZM200.217 205.658C200.425 205.838 200.911 205.806 201.295 205.587C201.72 205.345 201.572 205.216 200.917 205.259C200.324 205.298 200.009 205.478 200.217 205.658ZM132.081 213.429C131.928 213.783 132.069 214.043 132.395 214.007C132.721 213.971 132.958 213.669 132.921 213.337C132.884 213.004 132.743 212.744 132.607 212.759C132.471 212.774 132.235 213.076 132.081 213.429ZM211.479 205.026C211.687 205.206 212.173 205.174 212.557 204.955C212.982 204.713 212.834 204.584 212.179 204.627C211.586 204.666 211.271 204.845 211.479 205.026ZM202.795 206.021C203.198 206.146 203.828 206.077 204.195 205.866C204.561 205.656 204.231 205.553 203.461 205.639C202.691 205.724 202.391 205.896 202.795 206.021ZM274.666 198.832C274.699 199.129 274.331 199.589 273.85 199.855C273.116 200.259 273.072 200.173 273.578 199.338C274.268 198.2 274.58 198.054 274.666 198.832ZM163.925 210.941C163.541 211.16 163.055 211.192 162.847 211.012C162.639 210.831 162.954 210.652 163.546 210.613C164.202 210.57 164.35 210.699 163.925 210.941ZM146.375 214.239C146.54 214.382 147.055 213.96 147.521 213.302C148.329 212.159 148.315 212.147 147.22 213.042C146.591 213.558 146.21 214.097 146.375 214.239ZM239.313 203.21C239.716 203.335 240.346 203.266 240.712 203.055C241.079 202.845 240.749 202.742 239.979 202.828C239.209 202.913 238.909 203.085 239.313 203.21ZM208.673 206.654C209.458 206.713 210.376 206.938 210.711 207.153C211.702 207.788 213.454 208.14 213.081 207.629C212.892 207.37 216.315 206.74 220.687 206.229C230.646 205.066 230.478 205.096 229.593 204.635C229.202 204.43 224.014 204.777 218.063 205.404C212.113 206.032 207.887 206.594 208.673 206.654ZM245.172 202.975C245.293 203.039 245.826 203.374 246.357 203.72C247.118 204.214 247.306 204.183 247.238 203.572C247.191 203.145 246.658 202.81 246.053 202.827C245.449 202.845 245.052 202.911 245.172 202.975ZM242.378 204.023C242.385 204.093 242.807 204.448 243.315 204.811C244.063 205.347 244.219 205.305 244.14 204.591C244.087 204.106 243.665 203.752 243.203 203.803C242.741 203.854 242.37 203.953 242.378 204.023ZM194.357 209.412C194.925 209.508 195.246 209.956 195.122 210.481C194.883 211.497 195.929 211.608 196.362 210.612C196.515 210.258 197.069 209.943 197.593 209.912C198.179 209.877 198.289 210.002 197.878 210.237C196.951 210.77 197.158 211.748 198.175 211.636C198.636 211.585 198.984 211.271 198.947 210.938C198.911 210.605 199.319 210.256 199.853 210.161C201.287 209.909 196.413 208.859 194.775 209.069C193.929 209.177 193.764 209.312 194.357 209.412ZM244.994 204.625C244.84 204.979 244.982 205.239 245.307 205.203C245.633 205.167 245.87 204.865 245.833 204.533C245.797 204.2 245.656 203.94 245.52 203.955C245.384 203.97 245.147 204.272 244.994 204.625ZM237.275 205.271C237.678 205.397 238.307 205.328 238.674 205.117C239.04 204.907 238.71 204.804 237.941 204.889C237.171 204.974 236.871 205.147 237.275 205.271ZM178.103 212.017C178.646 212.313 178.742 212.543 178.341 212.594C177.975 212.639 177.49 212.421 177.263 212.11C176.751 211.406 176.944 211.385 178.103 212.017ZM240.303 205.756C240.339 206.089 240.637 206.331 240.962 206.295C241.288 206.259 241.369 205.975 241.142 205.663C240.915 205.352 240.619 205.109 240.483 205.124C240.347 205.139 240.266 205.423 240.303 205.756ZM231.095 206.815C231.337 207.148 231.872 207.235 232.283 207.009C232.694 206.783 233.069 206.951 233.117 207.381C233.175 207.908 233.744 208.017 234.853 207.713C235.76 207.465 236.474 207.004 236.44 206.689C236.405 206.375 236.159 206.3 235.894 206.523C235.628 206.746 235.223 206.669 234.992 206.353C234.761 206.036 233.691 205.874 232.613 205.993C231.366 206.131 230.814 206.43 231.095 206.815ZM201.448 210.703C200.984 211.77 201.515 211.852 202.215 210.821C202.561 210.312 202.596 209.923 202.294 209.956C201.992 209.989 201.611 210.325 201.448 210.703ZM188.312 212.113C189.48 212.378 189.546 212.47 188.647 212.584C188.033 212.662 187 212.548 186.353 212.33C184.853 211.825 186.325 211.663 188.312 212.113ZM182.714 212.732C183.865 212.993 183.934 213.087 183.048 213.185C182.432 213.253 181.274 213.16 180.475 212.979C179.325 212.718 179.255 212.624 180.142 212.526C180.758 212.458 181.915 212.551 182.714 212.732ZM224.215 208.868C224.245 209.14 225.53 209.225 227.069 209.055C228.65 208.88 229.837 208.469 229.798 208.111C229.756 207.734 228.597 207.658 226.944 207.923C225.413 208.17 224.185 208.594 224.215 208.868ZM213.209 210.421C214.385 210.423 216.148 210.227 217.127 209.983C218.106 209.74 217.144 209.738 214.989 209.978C212.835 210.219 212.034 210.418 213.209 210.421ZM205.585 212.041C205.812 212.353 206.548 212.527 207.22 212.43C208.397 212.258 208.399 212.238 207.264 211.856C205.645 211.31 205.097 211.371 205.585 212.041ZM202.904 212.13C203.307 212.256 203.937 212.187 204.303 211.976C204.669 211.766 204.339 211.663 203.57 211.748C202.8 211.833 202.5 212.005 202.904 212.13ZM265.785 205.623C265.799 205.751 265.322 206.053 264.725 206.296C264.128 206.538 263.753 206.473 263.893 206.153C264.136 205.593 265.732 205.146 265.785 205.623ZM239.601 208.7C239.217 208.92 238.731 208.951 238.523 208.771C238.315 208.591 238.63 208.412 239.222 208.372C239.878 208.329 240.026 208.458 239.601 208.7ZM192.021 213.958C191.637 214.177 191.152 214.209 190.944 214.029C190.736 213.849 191.05 213.669 191.643 213.63C192.298 213.587 192.447 213.716 192.021 213.958ZM263.086 206.84C263.115 207.1 262.289 207.702 261.251 208.179C260.212 208.655 259.464 208.812 259.588 208.525C259.913 207.777 263.024 206.279 263.086 206.84ZM212.749 212.78C212.805 213.284 213.347 213.632 213.969 213.563C214.585 213.495 215.055 213.138 215.014 212.77C214.974 212.402 214.58 212.299 214.139 212.542C213.699 212.784 213.309 212.719 213.273 212.397C213.238 212.075 213.083 211.825 212.929 211.842C212.775 211.859 212.694 212.281 212.749 212.78ZM196.345 214.306C198.095 214.847 198.066 215.222 196.286 215.055C195.499 214.981 194.828 214.68 194.796 214.386C194.763 214.093 194.802 213.863 194.881 213.875C194.96 213.887 195.619 214.081 196.345 214.306ZM247.605 209.027C247.238 209.238 246.609 209.308 246.206 209.182C245.802 209.057 246.102 208.885 246.872 208.8C247.641 208.715 247.971 208.817 247.605 209.027ZM237.112 210.283C237.279 210.428 238.174 210.44 239.101 210.308C240.562 210.101 240.691 210.195 240.078 211.025C239.282 212.102 237.394 212.533 237.826 211.539C237.979 211.186 237.601 210.952 236.985 211.02C236.369 211.088 235.711 210.931 235.522 210.672C235.16 210.176 236.586 209.827 237.112 210.283ZM218.399 212.615C218.425 212.865 219.832 212.915 221.526 212.728C223.219 212.541 224.582 212.184 224.554 211.935C224.527 211.685 223.12 211.634 221.427 211.821C219.735 212.008 218.372 212.365 218.399 212.615ZM216.981 212.618C216.827 212.972 216.969 213.232 217.294 213.196C217.62 213.16 217.857 212.858 217.82 212.526C217.784 212.193 217.643 211.933 217.507 211.948C217.371 211.963 217.134 212.265 216.981 212.618ZM243.916 210.254C244.151 210.576 243.698 210.89 242.863 210.983C242.029 211.075 241.518 210.867 241.677 210.502C241.831 210.148 242.304 209.82 242.73 209.773C243.155 209.726 243.689 209.943 243.916 210.254ZM204.337 214.742C204.159 215.677 202.941 216.315 202.853 215.52C202.817 215.195 203.169 214.721 203.634 214.464C204.154 214.178 204.425 214.285 204.337 214.742ZM208.689 217.061C208.73 217.424 209.217 217.798 209.773 217.891C210.684 218.042 210.691 218.076 209.844 218.233C208.843 218.42 207.828 217.466 208.321 216.8C208.483 216.58 208.649 216.697 208.689 217.061ZM147.138 224.067C147.172 224.368 146.882 224.65 146.494 224.693C146.106 224.736 145.214 225.454 144.513 226.289C142.915 228.192 140.078 230.299 138.947 230.424C137.868 230.543 144.198 224.661 145.856 224.003C146.528 223.736 147.105 223.765 147.138 224.067ZM214.888 218.889C214.663 219.407 211.787 219.456 211.73 218.943C211.716 218.816 212.476 218.626 213.417 218.522C214.359 218.418 215.021 218.583 214.888 218.889ZM119.177 235.051C119.018 235.415 119.254 235.492 119.73 235.23C120.655 234.721 120.784 234.268 119.979 234.357C119.689 234.389 119.328 234.701 119.177 235.051ZM132.169 237.295C132.206 237.628 131.969 237.929 131.643 237.965C131.317 238.001 131.176 237.741 131.329 237.388C131.483 237.034 131.719 236.732 131.855 236.717C131.991 236.702 132.132 236.962 132.169 237.295ZM112.112 239.97C111.753 240.858 111.631 240.903 111.524 240.188C111.404 239.386 111.324 239.394 110.805 240.268C110.484 240.808 109.854 241.38 109.405 241.537C107.779 242.109 107.624 243.077 109.21 242.757C110.071 242.583 110.855 242.101 110.953 241.687C111.05 241.272 111.649 240.983 112.283 241.043C113.085 241.12 113.316 240.907 113.042 240.342C112.826 239.896 112.935 239.366 113.285 239.164C113.775 238.88 113.765 238.802 113.243 238.822C112.871 238.837 112.362 239.354 112.112 239.97ZM103.109 245.997C103.182 246.6 103.338 246.672 103.557 246.202C103.742 245.806 104.439 245.228 105.106 244.918C105.774 244.608 106.294 244.124 106.262 243.842C106.231 243.561 105.484 243.723 104.602 244.201C103.72 244.68 103.049 245.488 103.109 245.997ZM110.179 247.147C109.844 247.603 109.413 247.838 109.221 247.671C109.028 247.504 109.301 247.131 109.828 246.843C110.589 246.427 110.661 246.489 110.179 247.147ZM108.397 247.778C108.477 248.499 108.313 249.114 108.032 249.145C107.463 249.208 107.377 247.652 107.909 246.931C108.098 246.677 108.318 247.058 108.397 247.778ZM106.755 248.295C106.81 248.794 106.622 249.399 106.336 249.638C106.051 249.878 105.773 249.666 105.718 249.167C105.663 248.668 105.851 248.064 106.136 247.824C106.421 247.584 106.699 247.796 106.755 248.295ZM101.547 252.845C101.59 253.514 101.489 253.591 101.235 253.084C100.927 252.472 100.711 252.496 100.052 253.215C99.4417 253.88 99.3277 253.9 99.5824 253.292C99.7677 252.851 99.6735 252.517 99.3729 252.55C99.0729 252.584 98.7699 252.908 98.7002 253.272C98.6305 253.636 98.1178 253.801 97.5605 253.638C95.8183 253.132 96.3653 252.58 98.9728 252.211C100.962 251.931 101.496 252.062 101.547 252.845Z" fill="white"/>
<path d="M111.638 109.703L112.479 104.227L127.092 94.3461C128.342 93.4603 129.4 92.6528 130.267 91.9236C131.145 91.1962 131.839 90.4585 132.349 89.7106C132.861 88.9509 133.19 88.0972 133.335 87.1495C133.497 86.0965 133.397 85.1529 133.034 84.3187C132.673 83.4729 132.108 82.7814 131.34 82.2443C130.574 81.6955 129.665 81.3402 128.612 81.1785C127.512 81.0095 126.519 81.0845 125.631 81.4032C124.744 81.722 124.014 82.2626 123.442 83.025C122.87 83.7874 122.496 84.7419 122.32 85.8885L115.107 84.7805C115.468 82.4289 116.314 80.469 117.644 78.901C118.975 77.3329 120.673 76.2224 122.737 75.5695C124.801 74.9165 127.085 74.7823 129.589 75.1669C132.163 75.5623 134.334 76.3628 136.101 77.5683C137.881 78.764 139.18 80.245 139.999 82.0114C140.817 83.7778 141.067 85.6965 140.749 87.7674C140.541 89.1246 140.066 90.4229 139.325 91.6623C138.595 92.9035 137.428 94.2272 135.823 95.6333C134.219 97.0277 132.011 98.6585 129.197 100.526L123.16 104.862L123.122 105.107L138.215 107.426L137.26 113.638L111.638 109.703ZM156.491 117.401C153.474 116.925 150.991 115.783 149.041 113.975C147.103 112.168 145.764 109.777 145.023 106.801C144.295 103.827 144.238 100.375 144.853 96.4456C145.456 92.5262 146.548 89.2748 148.13 86.6916C149.724 84.1101 151.714 82.2661 154.1 81.1595C156.499 80.043 159.202 79.7157 162.209 80.1775C165.215 80.6394 167.69 81.762 169.631 83.5453C171.585 85.3303 172.934 87.6933 173.68 90.6342C174.428 93.5634 174.495 96.9868 173.881 100.904C173.275 104.847 172.173 108.127 170.573 110.744C168.985 113.362 166.996 115.242 164.605 116.384C162.214 117.525 159.509 117.864 156.491 117.401ZM157.459 111.1C159.518 111.417 161.321 110.634 162.867 108.752C164.414 106.869 165.499 103.857 166.124 99.7129C166.543 96.9869 166.61 94.674 166.327 92.7742C166.056 90.8763 165.482 89.3928 164.604 88.3239C163.738 87.2567 162.62 86.618 161.252 86.4077C159.204 86.0932 157.409 86.8654 155.866 88.7241C154.323 90.5829 153.232 93.553 152.593 97.6345C152.169 100.396 152.09 102.743 152.356 104.676C152.635 106.599 153.213 108.101 154.089 109.182C154.966 110.25 156.09 110.89 157.459 111.1ZM197.006 115.918L197.297 114.022C197.518 112.583 198.025 111.308 198.819 110.196C199.626 109.075 200.67 108.241 201.951 107.695C203.246 107.14 204.742 106.992 206.439 107.253C208.158 107.517 209.548 108.102 210.606 109.007C211.676 109.914 212.416 111.021 212.826 112.33C213.25 113.628 213.35 115.003 213.127 116.454L212.836 118.349C212.615 119.788 212.107 121.07 211.311 122.193C210.518 123.305 209.474 124.132 208.181 124.676C206.886 125.232 205.391 125.379 203.694 125.119C201.974 124.854 200.586 124.264 199.529 123.347C198.471 122.442 197.73 121.34 197.306 120.042C196.885 118.731 196.785 117.357 197.006 115.918ZM202.404 114.807L202.113 116.702C201.985 117.533 202.064 118.347 202.348 119.145C202.645 119.945 203.325 120.427 204.39 120.591C205.454 120.754 206.236 120.503 206.733 119.837C207.242 119.173 207.562 118.413 207.694 117.559L207.985 115.664C208.116 114.81 208.051 113.986 207.79 113.191C207.529 112.396 206.848 111.915 205.748 111.746C204.695 111.584 203.908 111.84 203.385 112.514C202.862 113.188 202.535 113.953 202.404 114.807ZM181.72 92.5159L182.012 90.6206C182.234 89.1698 182.748 87.8895 183.554 86.7796C184.361 85.6581 185.405 84.8245 186.686 84.2788C187.979 83.7349 189.462 83.5915 191.136 83.8485C192.867 84.1145 194.262 84.7 195.321 85.6051C196.379 86.5102 197.119 87.6179 197.541 88.9282C197.964 90.2267 198.064 91.6014 197.841 93.0522L197.55 94.9475C197.327 96.3983 196.813 97.6786 196.008 98.7885C195.215 99.9001 194.171 100.728 192.878 101.272C191.599 101.806 190.105 101.942 188.397 101.679C186.688 101.417 185.299 100.832 184.229 99.9252C183.172 99.0084 182.431 97.9065 182.006 96.6197C181.595 95.3229 181.499 93.955 181.72 92.5159ZM187.154 91.4104L186.862 93.3058C186.731 94.1599 186.809 94.9802 187.095 95.7667C187.393 96.555 188.057 97.0282 189.087 97.1864C190.163 97.3517 190.95 97.1013 191.448 96.4352C191.957 95.771 192.277 95.0118 192.408 94.1577L192.699 92.2623C192.831 91.4082 192.766 90.5839 192.504 89.7893C192.243 88.9946 191.557 88.512 190.445 88.3412C189.404 88.1813 188.627 88.4452 188.114 89.1329C187.601 89.8205 187.281 90.5797 187.154 91.4104ZM179.842 120.179L210.073 88.0329L214.672 88.7392L184.44 120.886L179.842 120.179ZM134.168 174.406C131.442 173.987 129.173 173.046 127.362 171.582C125.565 170.108 124.288 168.248 123.531 166C122.776 163.74 122.611 161.23 123.035 158.469C123.463 155.684 124.375 153.333 125.771 151.416C127.169 149.487 128.946 148.095 131.101 147.241C133.27 146.376 135.717 146.153 138.443 146.572C141.169 146.991 143.431 147.937 145.229 149.411C147.04 150.874 148.323 152.736 149.077 154.996C149.834 157.244 149.998 159.76 149.571 162.545C149.146 165.306 148.235 167.651 146.837 169.58C145.441 171.497 143.658 172.888 141.49 173.752C139.335 174.607 136.894 174.825 134.168 174.406ZM135.093 168.62C136.333 168.81 137.422 168.619 138.361 168.044C139.301 167.458 140.076 166.583 140.686 165.419C141.308 164.257 141.739 162.892 141.98 161.325C142.22 159.757 142.219 158.325 141.975 157.031C141.742 155.737 141.265 154.67 140.544 153.829C139.823 152.987 138.842 152.472 137.602 152.281C136.35 152.089 135.243 152.284 134.279 152.866C133.327 153.451 132.54 154.324 131.918 155.486C131.309 156.65 130.883 158.015 130.642 159.583C130.402 161.151 130.397 162.581 130.63 163.875C130.874 165.17 131.363 166.239 132.095 167.082C132.842 167.915 133.841 168.428 135.093 168.62ZM170.767 151.897L169.905 157.512L153.268 154.957L154.13 149.341L170.767 151.897ZM153.798 176.882L158.238 147.978C158.538 146.024 159.167 144.462 160.125 143.292C161.095 142.123 162.296 141.32 163.729 140.881C165.162 140.443 166.726 140.354 168.423 140.614C169.569 140.79 170.603 141.039 171.524 141.36C172.456 141.683 173.146 141.95 173.592 142.163L171.396 147.574C171.117 147.435 170.768 147.292 170.348 147.143C169.939 146.997 169.513 146.889 169.068 146.821C167.968 146.652 167.162 146.792 166.65 147.24C166.14 147.677 165.815 148.351 165.675 149.264L161.256 178.028L153.798 176.882ZM189.584 154.787L188.721 160.403L172.084 157.847L172.947 152.231L189.584 154.787ZM172.614 179.773L177.054 150.868C177.354 148.914 177.983 147.352 178.942 146.182C179.912 145.014 181.113 144.21 182.545 143.772C183.978 143.333 185.543 143.244 187.239 143.505C188.386 143.681 189.419 143.929 190.34 144.25C191.273 144.573 191.962 144.841 192.408 145.053L190.212 150.464C189.934 150.326 189.585 150.182 189.164 150.034C188.756 149.887 188.329 149.78 187.884 149.711C186.785 149.543 185.979 149.682 185.467 150.131C184.957 150.567 184.631 151.242 184.491 152.154L180.073 180.918L172.614 179.773Z" fill="#EB0029"/>
</svg>
