<svg width="266" height="254" viewBox="0 0 266 254" fill="none" xmlns="http://www.w3.org/2000/svg">
<g opacity="0.2">
<g clip-path="url(#clip0_1_6305)">
<path d="M127.979 160.189C127.979 160.189 114.857 152.909 103.587 153.301C92.3173 153.692 78.2587 148.958 78.2587 148.958C78.2587 148.958 65.4374 144.214 61.7088 134.241C61.7088 134.241 79.0074 131.403 76.4066 118.243C74.0183 106.149 60.4164 107.049 58.2291 107.273C58.1511 107.278 58.1166 107.187 58.1795 107.139C59.6734 106.062 67.2475 99.8274 59.8142 88.5872C51.6099 76.1774 40.0245 82.9585 40.0245 82.9585C40.0245 82.9585 35.8215 64.4975 46.8198 49.7823C60.6893 31.2248 88.5621 24.2088 109.21 34.9192C114.916 37.8784 129.041 53.6999 132.006 60.252C142.923 84.3978 142.13 93.843 144.874 106.254C147.09 116.257 148.111 121.226 151.955 127.718C153.756 130.761 158.489 136.113 161.951 137.743C166.831 140.038 171.24 140.638 174.515 141.568C177.789 142.498 178.817 152.163 160.068 159.093C160.068 159.093 161.131 179.964 152.775 179.857C151.263 179.836 149.889 178.952 149.158 177.629C148.724 176.841 148.235 175.764 147.814 174.358C146.534 170.107 127.979 160.189 127.979 160.189Z" fill="white"/>
<path d="M178.621 145.79C178.214 148.942 175.644 155.362 162.413 160.646C162.476 164.898 162.172 175.507 157.856 179.961C156.448 181.412 154.681 182.172 152.743 182.142C150.429 182.109 148.28 180.802 147.138 178.72C146.528 177.617 146.015 176.368 145.609 175.005C144.857 172.932 135.323 166.703 126.89 162.199L126.861 162.185C126.736 162.118 114.152 155.224 103.669 155.584C92.115 155.981 78.1137 151.32 77.5214 151.12L77.4574 151.097C76.8924 150.886 63.6026 145.861 59.5519 135.033L58.5792 132.434L61.3261 131.985C61.4047 131.975 69.4675 130.57 72.8783 125.661C74.2644 123.664 74.6776 121.383 74.1463 118.678C72.1654 108.654 60.7324 109.312 58.4615 109.546C57.4011 109.659 56.3837 109.042 55.9974 108.045C55.6111 107.048 55.9482 105.914 56.8171 105.289C58.6114 104 63.9876 99.0686 57.8812 89.8377C50.9616 79.3652 41.5778 84.6953 41.1823 84.9258L38.4683 86.5153L37.7715 83.456C37.5911 82.6597 33.4662 63.7942 44.9629 48.4113C59.6305 28.7795 88.9231 21.8188 110.261 32.8898C116.353 36.0524 130.834 52.1043 134.091 59.3134C142.435 77.777 144.074 87.9767 145.517 96.9788C145.993 99.9532 146.444 102.761 147.107 105.759L147.307 106.65C149.354 115.92 150.386 120.573 153.925 126.55C155.744 129.616 160.157 134.368 162.92 135.667C166.242 137.228 169.347 137.957 172.086 138.603C173.161 138.854 174.181 139.093 175.13 139.364C177.177 139.946 178.57 141.964 178.67 144.501C178.684 144.825 178.675 145.259 178.608 145.778L178.621 145.79ZM157.689 157.537L159.263 156.952C169.406 153.205 173.55 148.524 174.041 145.398C174.214 144.381 173.925 143.867 173.817 143.746C172.987 143.511 172.042 143.291 171.047 143.055C168.232 142.395 164.728 141.573 160.969 139.803C156.934 137.904 151.91 132.136 149.978 128.871C146.067 122.263 144.915 117.066 142.833 107.628L142.633 106.737C141.941 103.607 141.477 100.737 140.989 97.6941C139.524 88.5458 138.005 79.0937 129.908 61.1842C127.12 55.0185 113.292 39.6091 108.145 36.9424C88.7241 26.8665 62.0421 33.2378 48.664 51.1421C40.8907 61.5488 41.2187 74.1593 41.8419 79.6612C47.2151 77.9033 55.6014 78.0603 61.7337 87.3304C67.0597 95.3854 65.4999 101.358 63.213 104.984C70.0903 105.657 76.9655 109.218 78.6636 117.803C79.4385 121.732 78.7671 125.254 76.6558 128.279C73.6157 132.631 68.2912 134.81 64.9862 135.791C69.1382 142.885 78.4289 146.569 79.0325 146.8C79.8477 147.07 93.0816 151.37 103.507 151.012C115.185 150.612 128.319 157.761 129.084 158.182C134.924 161.302 148.619 169.046 150.022 173.702C150.339 174.756 150.726 175.707 151.181 176.529C151.523 177.151 152.161 177.556 152.808 177.568C153.477 177.578 154.018 177.336 154.553 176.78C157.406 173.837 158.049 164.439 157.783 159.203L157.7 157.533L157.689 157.537Z" fill="#393D3D"/>
<path d="M158.323 174.672C158.323 174.672 177.791 192.797 177.027 194.761C176.263 196.726 170.608 219.089 188.933 224.927C207.258 230.766 205.496 206.098 205.496 206.098C205.496 206.098 230.679 201.719 223.541 183.448C216.403 165.176 197.224 174.277 197.224 174.277C197.224 174.277 170.498 154.678 170.518 153.687" fill="white"/>
<path d="M227.001 191.558C226.763 193.401 226.176 195.153 225.236 196.802C221.233 203.867 211.919 206.902 207.841 207.922C207.829 212 207.142 221.265 201.471 225.687C198.069 228.339 193.618 228.814 188.23 227.099C182.427 225.248 178.237 221.722 175.769 216.617C171.539 207.854 173.832 197.645 174.635 194.739C173.115 192.233 164.418 183.476 156.744 176.331L159.884 173C180.478 192.176 179.75 194.063 179.163 195.579C178.581 197.091 176.231 207.026 179.908 214.648C181.801 218.574 185.07 221.3 189.622 222.748C193.516 223.988 196.459 223.775 198.617 222.098C203.039 218.656 203.419 209.495 203.199 206.257L203.057 204.206L205.091 203.85C205.207 203.829 217.214 201.643 221.232 194.544C222.894 191.606 222.947 188.244 221.395 184.275C219.63 179.752 216.904 176.733 213.303 175.3C206.404 172.56 198.286 176.303 198.204 176.344L196.964 176.926L195.853 176.117C195.788 176.068 189.082 171.152 182.467 166.176C168.171 155.426 168.18 155.12 168.206 153.644L172.804 153.736C172.82 152.935 172.404 152.446 172.386 152.428C173.601 153.829 186.046 163.234 197.525 171.669C200.494 170.538 207.976 168.284 214.966 171.041C219.818 172.958 223.42 176.853 225.672 182.622C226.907 185.786 227.345 188.771 226.986 191.551L227.001 191.558ZM174.807 194.167C174.851 194.024 174.876 193.951 174.877 193.94C174.847 194.018 174.822 194.092 174.807 194.167Z" fill="#393D3D"/>
<path d="M101.319 144.792C102.047 145.024 102.785 145.206 103.536 145.339C104.277 145.465 105.187 145.476 105.602 144.853C105.966 144.312 105.716 143.537 105.225 143.105C104.735 142.673 104.065 142.52 103.421 142.401C102.958 142.316 102.498 142.251 102.031 142.196C101.345 142.117 100.515 142.128 100.141 142.709C99.8384 143.177 100.01 143.839 100.413 144.229C100.816 144.619 101.388 144.78 101.94 144.851C102.361 144.906 102.792 144.915 103.219 144.878C103.318 144.871 103.428 144.854 103.499 144.786C103.569 144.719 103.578 144.576 103.49 144.534" fill="white"/>
<path d="M100.822 145.962C101.678 146.237 102.56 146.468 103.448 146.609C104.18 146.724 105 146.722 105.675 146.395C106.598 145.951 107.112 145.045 107.037 144.026C106.974 143.163 106.43 142.346 105.702 141.883C104.931 141.394 104.042 141.213 103.155 141.067C102.428 140.948 101.671 140.83 100.933 140.919C100.038 141.033 99.1823 141.552 98.8588 142.422C98.4822 143.423 98.8605 144.521 99.6299 145.224C100.34 145.869 101.37 146.11 102.307 146.149C102.933 146.173 103.679 146.219 104.213 145.832C105.014 145.255 104.982 144.15 104.264 143.525C103.759 143.086 102.852 143.214 102.473 143.754C102.056 144.345 102.164 145.066 102.706 145.535L102.748 145.571L102.35 145.059L102.285 144.851L102.371 144.181C102.713 143.089 103.45 143.609 103.037 143.612C102.97 143.613 102.892 143.619 102.824 143.625C102.767 143.628 102.57 143.639 102.849 143.629C102.777 143.629 102.706 143.625 102.639 143.622C102.367 143.612 102.098 143.583 101.832 143.533C101.796 143.528 101.685 143.514 101.646 143.494C101.823 143.603 101.814 143.546 101.707 143.501C101.682 143.493 101.365 143.355 101.365 143.36C101.382 143.342 101.614 143.546 101.413 143.382C101.394 143.369 101.269 143.266 101.268 143.271C101.284 143.268 101.424 143.46 101.35 143.353C101.346 143.342 101.226 143.194 101.226 143.194C101.287 143.166 101.343 143.444 101.279 143.262C101.209 143.053 101.296 143.331 101.294 143.351C101.298 143.321 101.273 143.23 101.268 143.194C101.252 143.115 101.284 142.95 101.269 143.302C101.277 143.2 101.339 143.121 101.23 143.404C101.292 143.248 101.246 143.442 101.164 143.477C101.175 143.474 101.252 143.356 101.251 143.361C101.248 143.386 101.029 143.562 101.173 143.448C101.329 143.319 101.094 143.504 101.068 143.501C101.078 143.502 101.177 143.453 101.199 143.446C101.375 143.356 101.122 143.482 101.087 143.473C101.108 143.475 101.203 143.452 101.235 143.446C101.335 143.428 101.439 143.426 101.537 143.418C101.683 143.406 101.581 143.48 101.424 143.419C101.473 143.44 101.562 143.426 101.618 143.429C102.154 143.467 102.689 143.557 103.218 143.651C103.328 143.67 103.439 143.689 103.549 143.714C103.61 143.722 103.675 143.74 103.735 143.753C103.981 143.805 103.699 143.754 103.68 143.736C103.73 143.788 103.967 143.829 104.036 143.854C104.095 143.877 104.149 143.899 104.207 143.927C104.256 143.949 104.443 144.091 104.309 143.976C104.151 143.843 104.431 144.109 104.467 144.109C104.379 144.108 104.296 143.913 104.402 144.049C104.433 144.089 104.469 144.135 104.499 144.175C104.633 144.34 104.453 144.133 104.458 144.097C104.456 144.113 104.509 144.217 104.521 144.244C104.604 144.403 104.437 144.223 104.503 144.149C104.491 144.163 104.527 144.321 104.529 144.342C104.554 144.509 104.524 144.065 104.523 144.229C104.522 144.28 104.483 144.459 104.531 144.25C104.569 144.071 104.55 144.181 104.523 144.229C104.657 143.949 104.631 144.074 104.571 144.138C104.427 144.298 104.642 144.065 104.653 144.066C104.658 144.067 104.545 144.139 104.539 144.149C104.603 144.009 104.779 144.042 104.635 144.085C104.586 144.099 104.384 144.154 104.59 144.115C104.796 144.075 104.616 144.108 104.569 144.112C104.507 144.119 104.443 144.131 104.38 144.139C104.365 144.137 104.247 144.137 104.225 144.149C104.286 144.111 104.532 144.158 104.292 144.148C104.051 144.137 103.798 144.099 103.552 144.052C103.23 143.995 102.909 143.923 102.595 143.847C102.554 143.841 102.33 143.782 102.495 143.823C102.674 143.867 102.38 143.793 102.345 143.784C102.171 143.735 101.998 143.682 101.825 143.624C101.191 143.425 100.404 143.62 100.151 144.304C99.9294 144.9 100.155 145.748 100.837 145.969L100.822 145.962Z" fill="#393D3D"/>
<path d="M101.746 144.665L102.339 144.741C102.511 144.769 102.683 144.755 102.84 144.693C103.003 144.663 103.151 144.595 103.279 144.484C103.416 144.384 103.524 144.265 103.595 144.115C103.695 143.975 103.751 143.818 103.769 143.646L103.766 143.308C103.732 143.089 103.65 142.889 103.513 142.712L103.28 142.482C103.098 142.341 102.892 142.258 102.664 142.229L102.071 142.152C101.899 142.125 101.728 142.139 101.57 142.2C101.407 142.23 101.259 142.298 101.131 142.41C100.995 142.51 100.887 142.629 100.816 142.778C100.715 142.919 100.659 143.075 100.642 143.247L100.644 143.586C100.678 143.805 100.76 144.005 100.897 144.181L101.13 144.411C101.313 144.552 101.518 144.635 101.746 144.665Z" fill="#393D3D"/>
<path d="M107.179 139.179C107.175 139.404 107.432 139.529 107.645 139.598C108.03 139.724 108.448 139.845 108.834 139.726C109.22 139.607 109.526 139.15 109.331 138.791C109.197 138.549 108.9 138.454 108.627 138.378C108.408 138.319 108.194 138.261 107.975 138.202C107.671 138.121 107.347 138.039 107.046 138.133C106.745 138.227 106.51 138.575 106.649 138.855C107.109 139.124 107.64 139.274 108.172 139.302" fill="white"/>
<path d="M105.914 139.353C105.947 140.012 106.532 140.549 107.118 140.757C107.35 140.839 107.594 140.901 107.828 140.962C108.108 141.034 108.37 141.037 108.659 141.033C109.821 141.009 110.772 139.95 110.652 138.803C110.58 138.128 110.08 137.613 109.492 137.337C109.186 137.195 108.828 137.134 108.499 137.045C107.982 136.907 107.456 136.747 106.92 136.872C106.607 136.944 106.315 137.045 106.061 137.257C105.807 137.47 105.582 137.738 105.464 138.051C105.307 138.471 105.307 138.911 105.469 139.326C105.651 139.795 106.113 140.044 106.559 140.224C107.004 140.405 107.523 140.538 108.019 140.567C108.361 140.585 108.683 140.53 108.963 140.315C109.209 140.127 109.423 139.786 109.448 139.471C109.473 139.157 109.412 138.791 109.193 138.532C108.974 138.274 108.682 138.067 108.344 138.049C108.098 138.038 107.861 137.997 107.627 137.936L107.956 138.024C107.672 137.947 107.403 137.835 107.149 137.69L107.829 138.366C107.829 138.366 107.809 138.323 107.801 138.301L107.889 138.62C107.883 138.588 107.877 138.557 107.871 138.52L107.874 138.859C107.874 138.813 107.88 138.772 107.891 138.728L107.802 139.054C107.813 139.009 107.833 138.971 107.854 138.928L107.689 139.213C107.721 139.161 107.752 139.119 107.794 139.074L107.564 139.305C107.605 139.264 107.651 139.229 107.701 139.195L107.418 139.358C107.473 139.329 107.527 139.305 107.586 139.287L107.266 139.374C107.351 139.354 107.44 139.345 107.528 139.341L107.188 139.343C107.383 139.348 107.573 139.393 107.767 139.444L107.439 139.355C107.663 139.415 107.887 139.475 108.111 139.534C108.28 139.582 108.449 139.629 108.602 139.721L108.314 139.555C108.367 139.588 108.413 139.624 108.459 139.671L108.226 139.442C108.262 139.477 108.288 139.516 108.313 139.56L108.149 139.278C108.166 139.306 108.177 139.338 108.189 139.37L108.101 139.052C108.115 139.105 108.124 139.152 108.122 139.208L108.119 138.87C108.114 138.91 108.108 138.955 108.103 138.996L108.192 138.669C108.173 138.733 108.15 138.792 108.117 138.849L108.283 138.563C108.242 138.635 108.193 138.695 108.135 138.749L108.366 138.518C108.314 138.562 108.262 138.607 108.201 138.64L108.484 138.477C108.418 138.509 108.358 138.537 108.283 138.558L108.604 138.472C108.503 138.494 108.403 138.507 108.295 138.508L108.635 138.506C108.455 138.504 108.279 138.471 108.1 138.422L108.429 138.51C108.249 138.462 108.06 138.412 107.897 138.319L108.185 138.484C108.137 138.457 108.089 138.426 108.048 138.384L108.281 138.614C108.258 138.591 108.241 138.568 108.224 138.54L108.388 138.823C108.371 138.795 108.364 138.768 108.353 138.736L108.441 139.055C108.441 139.055 108.436 139.013 108.433 138.992C108.42 138.694 108.178 138.34 107.948 138.167C107.694 137.975 107.303 137.853 106.986 137.914C106.669 137.976 106.346 138.124 106.156 138.396L105.991 138.682C105.901 138.895 105.872 139.122 105.904 139.351L105.914 139.353Z" fill="#393D3D"/>
<path d="M103.994 129.899C104.188 130.226 104.586 130.416 104.964 130.362C105.022 130.355 105.086 130.337 105.122 130.296C105.254 130.154 105.028 129.951 104.838 129.901C104.535 129.816 104.227 129.766 103.91 129.75C103.797 129.746 103.668 129.75 103.595 129.837C103.503 129.948 103.568 130.126 103.686 130.208C103.804 130.289 103.958 130.294 104.101 130.302C104.368 130.311 104.635 130.32 104.902 130.329" fill="white"/>
<path d="M102.988 130.67C103.087 130.826 103.225 130.952 103.358 131.081C103.417 131.14 103.483 131.19 103.554 131.235C103.879 131.435 104.213 131.596 104.601 131.626C105.166 131.673 105.795 131.55 106.153 131.053C106.379 130.74 106.488 130.375 106.43 129.989C106.411 129.858 106.376 129.726 106.315 129.605C106.166 129.32 106.098 129.244 105.859 129.024C105.832 128.995 105.798 128.975 105.766 128.951C105.651 128.879 105.528 128.797 105.401 128.745C105.21 128.664 105.004 128.627 104.804 128.58C104.588 128.532 104.366 128.498 104.146 128.485C103.957 128.476 103.758 128.461 103.574 128.493C103.199 128.563 102.831 128.74 102.6 129.053C102.562 129.11 102.528 129.172 102.495 129.229C102.448 129.31 102.424 129.338 102.4 129.406C102.301 129.655 102.288 129.873 102.306 130.131C102.327 130.411 102.464 130.7 102.632 130.916C102.96 131.332 103.47 131.531 103.987 131.552C104.244 131.559 104.5 131.572 104.756 131.579C104.928 131.607 105.1 131.593 105.257 131.532C105.42 131.501 105.568 131.434 105.696 131.322C105.833 131.222 105.941 131.103 106.012 130.953C106.112 130.813 106.168 130.656 106.186 130.484C106.213 130.155 106.15 129.804 105.931 129.545C105.725 129.304 105.415 129.074 105.082 129.062C104.897 129.053 104.712 129.05 104.528 129.041C104.359 129.035 104.177 129.042 104.012 129.006L104.341 129.094C104.296 129.083 104.257 129.068 104.218 129.047L104.506 129.213C104.482 129.199 104.458 129.181 104.436 129.157L104.669 129.387C104.669 129.387 104.633 129.347 104.621 129.32L104.785 129.602C104.785 129.602 104.769 129.564 104.761 129.548L104.849 129.866C104.849 129.866 104.835 129.813 104.838 129.788L104.841 130.126C104.841 130.126 104.846 130.091 104.848 130.071L104.76 130.397C104.76 130.397 104.763 130.372 104.774 130.363L104.609 130.649C104.609 130.649 104.628 130.616 104.645 130.603L104.415 130.834C104.415 130.834 104.444 130.807 104.465 130.8L104.182 130.963C104.182 130.963 104.22 130.947 104.241 130.94L103.921 131.026C103.964 131.016 104.005 131.011 104.047 131.012L103.706 131.014C104.021 131.013 104.338 131.07 104.637 131.149L104.308 131.061C104.373 131.079 104.427 131.097 104.485 131.13L104.197 130.965C104.24 130.991 104.282 131.022 104.319 131.057L104.086 130.827C104.086 130.827 104.122 130.868 104.134 130.89L103.97 130.608C103.97 130.608 103.986 130.64 103.995 130.657L103.907 130.338C103.907 130.338 103.913 130.37 103.916 130.386L103.914 130.047C103.914 130.047 103.911 130.068 103.91 130.078L103.998 129.751C103.998 129.751 103.996 129.771 103.984 129.785L104.149 129.499C104.149 129.499 104.137 129.518 104.124 129.532L104.355 129.301C104.355 129.301 104.332 129.318 104.321 129.327L104.605 129.164C104.605 129.164 104.566 129.185 104.544 129.192L104.865 129.105C104.801 129.123 104.733 129.129 104.661 129.13L105.001 129.128C104.918 129.128 104.832 129.117 104.753 129.096L105.081 129.185C104.992 129.158 104.908 129.126 104.832 129.081L105.12 129.246C105.048 129.201 104.982 129.151 104.923 129.092L105.156 129.322C105.101 129.269 105.058 129.207 105.019 129.146C104.918 129.01 104.798 128.902 104.648 128.832C104.506 128.731 104.349 128.675 104.176 128.658C104.004 128.631 103.832 128.644 103.675 128.706C103.511 128.736 103.363 128.804 103.236 128.915C102.982 129.128 102.779 129.42 102.751 129.759L102.753 130.097C102.787 130.316 102.869 130.517 103.006 130.693L102.988 130.67Z" fill="#393D3D"/>
<path d="M115.369 49.7188C116.912 51.2134 117.937 52.3338 119.168 54.0901C120.35 55.7838 121.409 57.7125 121.313 59.7683C121.3 60.0328 121.265 60.3047 121.123 60.527C120.867 60.9137 120.342 61.0301 119.875 61.0159C118.772 60.9758 117.761 60.3946 116.902 59.7001C114.618 57.8436 113.142 55.0368 112.906 52.119C112.857 51.5393 112.864 50.9309 113.087 50.3967C113.311 49.8624 113.814 49.4001 114.399 49.3734C115.208 49.3345 115.829 50.07 116.206 50.7792C116.91 52.109 117.252 53.6071 117.977 54.9295C118.777 56.3946 120.042 57.6485 120.462 59.2641C120.507 59.4337 120.535 59.6165 120.453 59.7698C120.339 59.9752 120.054 60.0305 119.831 59.9557C119.609 59.8809 119.436 59.71 119.267 59.5398C118.597 58.8645 117.927 58.1892 117.262 57.5145C116.342 56.5867 115.413 55.6425 114.727 54.53C114.042 53.4175 113.62 52.0935 113.813 50.8027C113.833 50.6466 113.87 50.4824 113.978 50.3633C114.183 50.1287 114.58 50.1697 114.822 50.3649C115.065 50.56 115.191 50.863 115.297 51.1532C115.667 52.1224 115.992 53.1116 116.269 54.115C116.29 54.1944 116.302 54.2984 116.231 54.3352C116.159 54.372 116.108 54.2068 116.187 54.2323C116.413 54.4766 116.639 54.7208 116.865 54.965C116.772 54.8505 116.919 54.6699 117.067 54.6788C117.215 54.6877 117.335 54.8004 117.434 54.9105C117.701 55.1958 117.973 55.4818 118.24 55.7672C118.321 55.6548 118.313 55.4847 118.217 55.3854" fill="white"/>
<path d="M114.59 50.7236C116.311 52.3998 117.99 54.2704 119.12 56.4079C119.639 57.381 120.094 58.4841 120.046 59.6094C120.04 59.6547 120.022 59.9135 120.017 59.9128C119.916 59.9356 120.208 59.7122 120.209 59.7072C120.199 59.7827 119.939 59.7594 119.853 59.7482C119.284 59.69 118.746 59.467 118.273 59.1397C116.419 57.8609 115.06 55.9037 114.474 53.7393C114.331 53.2089 114.238 52.6542 114.185 52.1098C114.158 51.8401 114.14 51.5767 114.17 51.3092C114.202 51.0215 114.297 50.8394 114.411 50.6749C114.411 50.6749 114.588 50.626 114.396 50.637C114.489 50.6337 114.549 50.6466 114.629 50.744C115.021 51.2195 115.269 51.7277 115.499 52.3001C116.088 53.7276 116.559 55.1451 117.41 56.448C118.034 57.404 119.195 58.583 119.23 59.7855L119.317 59.1158L119.463 58.9402L120.062 58.6899C119.862 58.7255 119.88 58.7432 120.11 58.7525C120.314 58.8146 120.351 58.8041 120.228 58.7216C120.196 58.6459 120.035 58.538 119.981 58.4798C119.744 58.2393 119.502 57.9982 119.265 57.7577C118.823 57.3115 118.376 56.8646 117.935 56.4134C117.129 55.5926 116.287 54.7363 115.716 53.7309C115.464 53.2888 115.25 52.7952 115.139 52.2996C115.08 52.0411 115.037 51.7694 115.03 51.5074C115.03 51.3896 115.062 51.2607 115.051 51.1466L115.074 50.9704C114.81 51.136 114.546 51.3066 114.283 51.4722C113.95 51.4549 113.949 51.2243 114.115 51.6503C114.243 51.974 114.356 52.3008 114.468 52.6276C114.663 53.1954 114.939 53.8455 115.009 54.4177L115.096 53.748L115.042 53.8434L116.383 53.0747L116.322 53.0669C116.661 53.3154 116.999 53.569 117.337 53.8226L117.315 53.7582L116.92 55.2584L116.959 55.2328L115.166 55.001C115.392 55.2452 115.618 55.4894 115.844 55.7337C116.852 56.8213 118.455 55.8561 118.032 54.4652L118.003 54.3694L118.004 55.3576L118.043 55.2601L117.647 55.7721L117.733 55.7014L117.134 55.9516L117.241 55.9244L116.567 55.8373C116.463 55.8085 116.69 55.9608 116.753 56.0304C116.912 56.1943 117.066 56.3625 117.225 56.5265C117.859 57.1972 119.024 57.1941 119.414 56.2462C119.595 55.8037 119.629 55.3063 119.391 54.8762C119.055 54.2801 118.397 53.9134 117.716 54.1992C117.133 54.4463 116.703 55.2611 117.038 55.8623L117.025 55.7993L117.112 55.1296L117.059 55.2559L119.249 54.9757C118.683 54.3752 118.113 53.5184 117.227 53.4038C116.715 53.3377 116.173 53.5851 115.859 53.9847C115.518 54.4271 115.53 54.9354 115.685 55.447L117.874 54.1785C117.648 53.9343 117.422 53.6901 117.196 53.4459C116.689 52.9043 116.034 52.8249 115.402 53.2141L115.363 53.2398C114.869 53.5497 114.79 54.2459 114.968 54.7399C115.146 55.2339 115.575 55.4634 116.064 55.583C116.649 55.725 117.151 55.2677 117.405 54.8142C117.766 54.1698 117.378 53.3517 117.177 52.7114C116.963 52.0182 116.733 51.323 116.47 50.6491C116.256 50.1146 115.97 49.6169 115.483 49.2776C114.845 48.8317 113.927 48.8001 113.29 49.2655C112.183 50.0644 112.407 51.9159 112.718 53.0567C113.05 54.272 113.676 55.3716 114.466 56.3542C115.256 57.3368 116.11 58.1383 116.962 59.001C117.887 59.9345 118.927 61.4921 120.424 61.1889C121.271 61.0167 121.806 60.2617 121.761 59.4162C121.727 58.8026 121.477 58.1817 121.202 57.6393C120.664 56.5817 119.912 55.6654 119.294 54.6642C118.119 52.7564 117.955 49.8427 115.923 48.546C114.695 47.7628 113.171 48.0778 112.296 49.2241C111.491 50.277 111.533 51.7006 111.718 52.9429C112.043 55.1709 113.015 57.339 114.47 59.0681C115.926 60.7972 118.346 62.7992 120.783 62.1618C123.965 61.3291 122.307 56.8247 121.216 54.9381C119.861 52.5923 118.09 50.5922 116.155 48.7039C115.66 48.2254 114.747 48.435 114.363 48.9332C113.9 49.5286 114.103 50.2306 114.597 50.7142L114.59 50.7236Z" fill="#393D3D"/>
<path d="M107.878 59.2329C108.018 59.5019 108.167 59.7823 108.411 59.9724C108.654 60.1625 109.015 60.2349 109.269 60.0629C109.478 59.921 109.56 59.6499 109.582 59.3968C109.641 58.6262 109.262 57.8862 108.767 57.2949C108.552 57.0419 108.31 56.8008 108.002 56.674C107.694 56.5471 107.312 56.5541 107.058 56.7669C106.648 57.1082 106.74 57.7548 106.933 58.2508C107.053 58.5632 107.199 58.8637 107.373 59.1523C107.576 59.496 107.835 59.8417 108.215 59.9727C108.595 60.1037 109.105 59.9034 109.156 59.5056" fill="white"/>
<path d="M106.701 59.7257C107.036 60.3628 107.441 61.0141 108.159 61.2809C108.646 61.4615 109.133 61.4734 109.624 61.3013C110.115 61.1293 110.449 60.7423 110.654 60.3081C110.811 59.9701 110.854 59.6018 110.854 59.2384C110.855 58.9569 110.832 58.6929 110.759 58.4173C110.584 57.7803 110.313 57.2078 109.907 56.6793C109.524 56.1792 109.023 55.6691 108.405 55.4664C107.516 55.1724 106.562 55.3409 105.951 56.0811C105.5 56.6268 105.406 57.4287 105.567 58.0996C105.727 58.7705 106.026 59.3722 106.387 59.9666C106.777 60.611 107.435 61.1823 108.213 61.2623C108.737 61.3146 109.222 61.1829 109.661 60.9016C110.099 60.6203 110.333 60.1592 110.423 59.669C110.538 59.0133 109.986 58.302 109.319 58.2465C108.6 58.1844 108.016 58.6413 107.889 59.3417C107.886 59.3668 107.882 59.3971 107.874 59.4216L107.962 59.0951C107.947 59.1341 107.932 59.168 107.913 59.2013L108.078 58.9156C108.047 58.9576 108.016 58.9997 107.98 59.036L108.211 58.8047C108.17 58.8404 108.13 58.8711 108.08 58.9005L108.364 58.7375C108.303 58.7706 108.238 58.7929 108.174 58.8153L108.494 58.7287C108.425 58.7453 108.357 58.7519 108.285 58.7528L108.625 58.7507C108.553 58.7466 108.487 58.7431 108.417 58.7239L108.746 58.8124C108.667 58.7868 108.598 58.7575 108.526 58.7175L108.814 58.8826C108.713 58.8236 108.625 58.7507 108.542 58.6735L108.775 58.9033C108.621 58.745 108.5 58.5656 108.385 58.3767L108.549 58.659C108.334 58.2883 108.138 57.8943 108.022 57.48L108.109 57.7984C108.068 57.6395 108.042 57.4826 108.037 57.3182L108.04 57.6564C108.039 57.5487 108.052 57.4429 108.076 57.3385L107.987 57.665C108.007 57.5907 108.036 57.5279 108.071 57.4607L107.905 57.7464C107.944 57.6799 107.988 57.624 108.041 57.5695L107.81 57.8008C107.845 57.7694 107.879 57.7431 107.92 57.7125L107.636 57.8755C107.703 57.833 107.773 57.8062 107.848 57.7852L107.528 57.8718C107.608 57.8514 107.681 57.8455 107.764 57.8408L107.424 57.8429C107.521 57.8453 107.612 57.8571 107.707 57.8796L107.379 57.7911C107.478 57.8193 107.566 57.8562 107.653 57.9033L107.365 57.7381C107.519 57.8245 107.649 57.9335 107.777 58.0575L107.544 57.8278C107.79 58.0746 108.001 58.3578 108.174 58.6566L108.009 58.3742C108.14 58.601 108.243 58.8345 108.315 59.0792L108.227 58.7607C108.287 58.9733 108.321 59.1926 108.323 59.4131L108.32 59.0748C108.319 59.2077 108.307 59.3343 108.275 59.4632L108.364 59.1368C108.343 59.216 108.313 59.2889 108.279 59.3562L108.445 59.0704C108.412 59.1225 108.375 59.174 108.333 59.2198L108.563 58.9885C108.528 59.0198 108.494 59.0461 108.45 59.0711L108.733 58.9081C108.69 58.928 108.652 58.9436 108.608 58.9585L108.929 58.8719C108.87 58.8848 108.813 58.8927 108.751 58.8949L109.091 58.8928C109.029 58.89 108.969 58.8771 108.908 58.8693L109.237 58.9578C109.162 58.9379 109.089 58.9079 109.021 58.8736L109.309 59.0388C109.223 58.9867 109.148 58.9309 109.08 58.8607L109.313 59.0904C109.208 58.9797 109.121 58.8558 109.041 58.7225L109.205 59.0049C109.155 58.9164 109.105 58.823 109.06 58.7352C108.902 58.4384 108.697 58.1918 108.38 58.0586C108.086 57.9388 107.676 57.9216 107.385 58.0581C107.095 58.1946 106.823 58.4257 106.706 58.7331C106.589 59.0405 106.55 59.4195 106.707 59.7213L106.701 59.7257Z" fill="#393D3D"/>
<path d="M165.895 162.991C165.621 162.955 165.511 162.849 165.31 162.654C164.638 161.989 163.298 162.594 163.264 163.496C163.209 164.876 163.14 166.249 162.902 167.611L165.345 167.282C164.938 165.888 164.664 164.46 164.48 163.018C164.361 162.107 163.164 161.563 162.433 162.19C161.501 162.986 161.472 164.17 161.305 165.301C161.118 166.551 160.931 167.797 160.749 169.048L163.28 169.037C163.213 167.436 163.368 165.843 163.689 164.277L161.155 163.95C160.981 166.375 160.802 168.799 160.627 171.228C160.511 172.846 163.016 173.19 163.16 171.555C163.49 167.887 163.819 164.223 164.149 160.554L161.871 161.165C162.409 161.742 162.81 162.347 163.107 163.076L165.062 161.578C165.198 161.687 164.882 161.416 164.874 161.441C164.549 162.484 164.441 162.281 164.977 162.002C165.408 161.776 165.848 161.562 166.29 161.363C167.149 160.977 168.026 160.645 168.919 160.356L167.409 158.41C167.232 158.7 167.089 158.85 166.769 158.972L168.445 160.633C168.692 159.999 169.026 159.484 169.498 158.982C170.478 157.936 168.778 156.227 167.704 157.199C166.45 158.337 165.445 159.61 164.607 161.079C164.12 161.932 165.082 162.978 165.967 162.831C166.851 162.684 167.544 162.385 168.25 161.908C169.468 161.092 168.287 159.184 166.97 159.731C165.827 160.207 164.751 160.836 163.772 161.595C163.274 161.982 163.131 162.695 163.458 163.234C163.756 163.718 164.495 164.095 165.053 163.768C165.726 163.379 166.372 162.965 166.953 162.452C167.605 161.871 168.457 161.141 168.166 160.161C167.901 159.262 167.069 159.042 166.227 159.066C165.384 159.09 164.586 159.166 163.773 159.276L164.732 161.54C165.52 160.946 166.345 160.464 167.25 160.074C168.752 159.418 167.761 157.078 166.255 157.734C165.157 158.211 164.121 158.815 163.174 159.532C162.147 160.305 162.881 161.956 164.133 161.796C164.599 161.733 165.064 161.686 165.532 161.649C165.766 161.633 166 161.617 166.233 161.606C166.384 161.595 166.549 161.673 166.385 161.585L165.87 161.191L165.93 161.285L165.675 160.346L165.652 160.523C165.735 160.318 165.818 160.114 165.906 159.91C165.44 160.531 164.718 161.057 164.05 161.442L165.329 163.619C166.148 162.983 167.006 162.479 167.959 162.08L166.68 159.903C166.347 160.126 165.991 160.254 165.601 160.321L166.961 162.074C167.561 161.015 168.357 160.038 169.261 159.223L167.467 157.44C166.864 158.079 166.4 158.838 166.083 159.657C165.675 160.705 166.713 161.719 167.759 161.317C168.442 161.057 169.043 160.592 169.422 159.971C170.093 158.88 169.175 157.614 167.912 158.025C166.449 158.501 165.018 159.089 163.671 159.831C162.934 160.233 162.332 160.744 162.343 161.651C162.352 162.461 162.887 163.109 163.493 163.597C164.511 164.409 165.918 163.25 165.448 162.099C165.081 161.191 164.552 160.345 163.882 159.628C163.213 158.912 161.71 159.056 161.604 160.24C161.274 163.909 160.945 167.573 160.615 171.242L163.148 171.569C163.322 169.145 163.502 166.721 163.676 164.291C163.795 162.653 161.473 162.368 161.143 163.964C160.777 165.76 160.661 167.577 160.739 169.405C160.802 170.872 163.067 170.76 163.27 169.394C163.419 168.394 163.569 167.395 163.719 166.396C163.793 165.898 163.869 165.396 163.943 164.899C163.968 164.708 163.994 164.506 164.029 164.316C164.059 164.161 164.216 164.023 163.99 164.219L161.943 163.392C162.156 165.052 162.518 166.681 162.99 168.288C163.143 168.819 163.835 169.124 164.344 169.051C164.916 168.972 165.336 168.509 165.433 167.958C165.671 166.597 165.735 165.223 165.795 163.843L163.749 164.685C164.242 165.173 164.888 165.441 165.566 165.534C167.196 165.755 167.522 163.237 165.891 163.016L165.895 162.991Z" fill="white"/>
<path d="M177.827 148.587C175.738 155.106 166.597 159.157 162.555 160.657C163.972 175.809 157.129 180.648 156.824 180.854L155.523 178.966L154.187 177.104C154.238 177.065 159.566 172.951 157.785 159.385L157.536 157.484L159.372 156.912C162.759 155.85 171.891 152.034 173.444 147.192L177.822 148.587L177.827 148.587Z" fill="#393D3D"/>
</g>
</g>
<defs>
<clipPath id="clip0_1_6305">
<rect width="185.784" height="203.959" fill="white" transform="translate(19.5211 205.683) rotate(-82.6375)"/>
</clipPath>
</defs>
</svg>
