<svg width="116" height="116" viewBox="0 0 116 116" fill="none" xmlns="http://www.w3.org/2000/svg">
<path d="M58.0021 0L66.5629 17.7199L81.5918 5.01436L82.2053 24.6847L101.102 19.1904L93.6624 37.41L113.16 40.077L98.9531 53.6955L115.68 64.0626L97.1626 70.7253L108.227 87L88.6006 85.5548L92.0886 104.923L74.7475 95.6198L70.0564 114.733L57.9985 99.18L45.9395 114.733L41.2498 95.6198L23.908 104.923L27.3974 85.5548L7.77128 87L18.8364 70.7253L0.319574 64.0626L17.0472 53.6955L2.84133 40.077L22.3391 37.41L14.9005 19.1904L33.7971 24.6847L34.412 5.01436L49.4399 17.7199L58.0021 0Z" fill="#EB0029"/>
<path d="M39.5832 32.1818V54H34.9703V36.5604H34.8424L29.846 39.6925V35.6016L35.2472 32.1818H39.5832ZM52.5875 54.2983C51.0818 54.2983 49.7395 54.0213 48.5605 53.4673C47.3886 52.9134 46.4582 52.1499 45.7693 51.1768C45.0804 50.2038 44.7217 49.0888 44.6933 47.8317H49.1677C49.2174 48.6768 49.5726 49.3622 50.2331 49.8878C50.8936 50.4134 51.6784 50.6761 52.5875 50.6761C53.3119 50.6761 53.9511 50.5163 54.5051 50.1967C55.0662 49.87 55.503 49.419 55.8155 48.8438C56.1351 48.2614 56.2949 47.5937 56.2949 46.8409C56.2949 46.0739 56.1315 45.3991 55.8048 44.8168C55.4852 44.2344 55.0413 43.7798 54.4731 43.4531C53.9049 43.1264 53.2551 42.9595 52.5236 42.9524C51.8843 42.9524 51.2629 43.0838 50.6592 43.3466C50.0626 43.6094 49.5974 43.968 49.2636 44.4226L45.162 43.6875L46.1954 32.1818H59.5335V35.9531H49.9987L49.4341 41.4183H49.5619C49.9454 40.8786 50.5243 40.4311 51.2984 40.076C52.0726 39.7209 52.939 39.5433 53.8978 39.5433C55.2118 39.5433 56.3836 39.8523 57.4135 40.4702C58.4433 41.0881 59.2565 41.9368 59.8531 43.0163C60.4497 44.0888 60.7444 45.3246 60.7373 46.7237C60.7444 48.1939 60.4035 49.5007 59.7146 50.6442C59.0328 51.7805 58.0775 52.6754 56.8488 53.3288C55.6272 53.9751 54.2068 54.2983 52.5875 54.2983ZM75.7471 49.9091V48.7585C75.7471 47.8849 75.9318 47.0824 76.3011 46.3509C76.6775 45.6122 77.2209 45.0227 77.9311 44.5824C78.6484 44.1349 79.522 43.9112 80.5518 43.9112C81.5959 43.9112 82.473 44.1314 83.1832 44.5717C83.9005 45.0121 84.4403 45.6016 84.8025 46.3402C85.1718 47.0717 85.3565 47.8778 85.3565 48.7585V49.9091C85.3565 50.7827 85.1718 51.5888 84.8025 52.3274C84.4332 53.0589 83.8899 53.6449 83.1726 54.0852C82.4552 54.5327 81.5816 54.7564 80.5518 54.7564C79.5078 54.7564 78.6307 54.5327 77.9204 54.0852C77.2102 53.6449 76.6704 53.0589 76.3011 52.3274C75.9318 51.5888 75.7471 50.7827 75.7471 49.9091ZM78.8473 48.7585V49.9091C78.8473 50.4134 78.968 50.8892 79.2095 51.3366C79.4581 51.7841 79.9055 52.0078 80.5518 52.0078C81.1981 52.0078 81.6385 51.7876 81.8728 51.3473C82.1143 50.907 82.2351 50.4276 82.2351 49.9091V48.7585C82.2351 48.2401 82.1214 47.7571 81.8941 47.3097C81.6669 46.8622 81.2194 46.6385 80.5518 46.6385C79.9126 46.6385 79.4687 46.8622 79.2201 47.3097C78.9716 47.7571 78.8473 48.2401 78.8473 48.7585ZM64.5504 37.4233V36.2727C64.5504 35.392 64.7386 34.5859 65.115 33.8544C65.4914 33.1158 66.0348 32.5263 66.745 32.0859C67.4623 31.6456 68.3288 31.4254 69.3444 31.4254C70.3956 31.4254 71.2763 31.6456 71.9865 32.0859C72.6967 32.5263 73.2365 33.1158 73.6058 33.8544C73.9751 34.5859 74.1598 35.392 74.1598 36.2727V37.4233C74.1598 38.304 73.9716 39.1101 73.5951 39.8416C73.2258 40.5732 72.6825 41.1591 71.9652 41.5994C71.2549 42.0327 70.3814 42.2493 69.3444 42.2493C68.3075 42.2493 67.4304 42.0291 66.713 41.5888C66.0028 41.1413 65.463 40.5554 65.0937 39.831C64.7315 39.0994 64.5504 38.2969 64.5504 37.4233ZM67.6718 36.2727V37.4233C67.6718 37.9418 67.7926 38.4212 68.0341 38.8615C68.2826 39.3018 68.7194 39.522 69.3444 39.522C69.9978 39.522 70.4417 39.3018 70.6761 38.8615C70.9176 38.4212 71.0383 37.9418 71.0383 37.4233V36.2727C71.0383 35.7543 70.9247 35.2713 70.6974 34.8239C70.4701 34.3764 70.0191 34.1527 69.3444 34.1527C68.7123 34.1527 68.2755 34.38 68.0341 34.8345C67.7926 35.2891 67.6718 35.7685 67.6718 36.2727ZM65.9566 54L80.9566 32.1818H83.7478L68.7478 54H65.9566ZM46.578 84.3196C44.9232 84.3196 43.4921 83.968 42.2847 83.2649C41.0844 82.5547 40.1576 81.5675 39.5042 80.3033C38.8508 79.032 38.5241 77.5582 38.5241 75.8821C38.5241 74.1918 38.8508 72.7145 39.5042 71.4503C40.1576 70.179 41.0844 69.1918 42.2847 68.4886C43.4921 67.7784 44.9232 67.4233 46.578 67.4233C48.2329 67.4233 49.6604 67.7784 50.8607 68.4886C52.0681 69.1918 52.9985 70.179 53.6519 71.4503C54.3053 72.7145 54.632 74.1918 54.632 75.8821C54.632 77.5582 54.3053 79.032 53.6519 80.3033C52.9985 81.5675 52.0681 82.5547 50.8607 83.2649C49.6604 83.968 48.2329 84.3196 46.578 84.3196ZM46.5994 80.804C47.3522 80.804 47.9807 80.5909 48.485 80.1648C48.9893 79.7315 49.3692 79.142 49.6249 78.3963C49.8877 77.6506 50.0191 76.8018 50.0191 75.8501C50.0191 74.8984 49.8877 74.0497 49.6249 73.304C49.3692 72.5582 48.9893 71.9687 48.485 71.5355C47.9807 71.1023 47.3522 70.8857 46.5994 70.8857C45.8394 70.8857 45.2002 71.1023 44.6817 71.5355C44.1704 71.9687 43.7833 72.5582 43.5205 73.304C43.2648 74.0497 43.137 74.8984 43.137 75.8501C43.137 76.8018 43.2648 77.6506 43.5205 78.3963C43.7833 79.142 44.1704 79.7315 44.6817 80.1648C45.2002 80.5909 45.8394 80.804 46.5994 80.804ZM66.2327 67.6364V71.0455H56.1333V67.6364H66.2327ZM58.4451 84V66.4538C58.4451 65.2678 58.6759 64.2841 59.1376 63.5028C59.6063 62.7216 60.2455 62.1357 61.0552 61.745C61.8648 61.3544 62.7846 61.1591 63.8144 61.1591C64.5104 61.1591 65.1461 61.2124 65.7214 61.3189C66.3038 61.4254 66.737 61.5213 67.0211 61.6065L66.2114 65.0156C66.0339 64.9588 65.8137 64.9055 65.5509 64.8558C65.2952 64.8061 65.0324 64.7812 64.7626 64.7812C64.0949 64.7812 63.6297 64.9375 63.367 65.25C63.1042 65.5554 62.9728 65.9851 62.9728 66.5391V84H58.4451ZM77.655 67.6364V71.0455H67.5556V67.6364H77.655ZM69.8674 84V66.4538C69.8674 65.2678 70.0982 64.2841 70.5598 63.5028C71.0286 62.7216 71.6678 62.1357 72.4774 61.745C73.2871 61.3544 74.2068 61.1591 75.2367 61.1591C75.9327 61.1591 76.5684 61.2124 77.1436 61.3189C77.726 61.4254 78.1593 61.5213 78.4434 61.6065L77.6337 65.0156C77.4561 64.9588 77.236 64.9055 76.9732 64.8558C76.7175 64.8061 76.4547 64.7812 76.1848 64.7812C75.5172 64.7812 75.052 64.9375 74.7892 65.25C74.5264 65.5554 74.3951 65.9851 74.3951 66.5391V84H69.8674Z" fill="white"/>
</svg>
