<svg width="265" height="262" viewBox="0 0 265 262" fill="none" xmlns="http://www.w3.org/2000/svg">
<g opacity="0.2">
<path d="M84.1614 58.7112C84.0524 59.3391 84.943 60.0495 86.0252 60.4238C88.4642 61.128 93.0564 66.1831 94.9454 70.2106C95.7114 72.1007 97.2737 78.0119 98.2094 83.5362C100.81 97.7623 103.456 100.813 115.077 102.108C119.981 102.596 124.677 103.973 125.469 104.943C128.374 108.502 128.727 105.698 126.372 98.8167C120.572 81.8124 110.658 68.5245 99.5413 62.3273C95.6837 60.2658 90.9146 58.2296 88.6516 57.7411C84.3017 56.9798 84.1204 56.9481 84.1614 58.7112ZM102.497 67.2809C108.291 71.7146 112.686 77.2898 117.872 87.0701C124.528 99.603 124.43 99.863 115.523 99.2283C106.072 98.4983 103.328 95.7075 101.643 84.5068C101.038 80.1495 99.3982 73.7626 98.0371 70.3821C95.4135 63.3609 96.4339 62.7077 102.497 67.2809Z" fill="#393D3D"/>
<path d="M86.9987 80.6489C86.7728 91.7925 89.0287 98.9341 94.5993 104.808C100.175 110.497 108.916 113.783 114.97 112.255C120.103 111.12 119.441 108.786 113.801 108.538C104.526 108.024 97.0559 98.4907 94.3775 83.7889C93.0278 76.8058 89.8291 70.7931 88.0575 72.239C87.5913 72.6195 87.119 76.4186 86.9987 80.6489ZM92.9352 92.8711C93.9704 94.9007 96.2272 98.8077 98.0544 101.808L101.362 107.193L97.0393 102.277C93.2497 97.8245 89.7198 90.6447 90.9319 89.6554C91.1184 89.5032 92.0813 90.8732 92.9352 92.8711Z" fill="#393D3D"/>
<path d="M109.695 124.825C93.822 141.733 84.8122 173.52 88.3208 200.659C88.8375 204.909 88.2509 209.52 86.4994 213.465C83.7631 220.01 84.2213 229.517 87.4776 233.507C96.1024 244.073 124.111 239.179 156.214 221.6C166.946 215.715 197.249 190.981 208.428 178.982C224.311 161.707 235.227 146.149 233.027 143.454C231.267 141.297 232.246 138.881 234.696 139.217C239.424 139.49 244.544 109.979 240.583 105.127C238.735 102.863 225.835 101.714 218.32 103.356C213.923 104.25 209.558 104.041 206.135 102.702C192.532 97.4563 165.048 96.7126 148.625 100.955C131.006 105.634 123.034 110.524 109.695 124.825ZM111.7 137.561C107.962 153.727 107.18 171.613 109.775 186.023C111.823 197.287 115.15 208.405 117.526 211.316C119.902 214.228 119.912 217.094 117.617 217.71C116.514 218.071 115.427 217.881 115.354 217.221C115.189 216.638 113.894 217.335 112.392 218.921C109.946 221.635 109.765 221.603 110.211 218.724C110.445 216.916 111.041 215.172 111.601 214.716C112.067 214.335 111.989 213.859 111.445 213.764C110.808 213.745 109.663 215.578 108.87 217.842C107.782 220.886 106.839 222.015 105.389 221.762C103.214 221.381 103.11 221.825 106.339 213.98C107.619 210.599 108.428 207.783 107.884 207.688C107.34 207.593 105.801 210.466 104.423 214.106C101.951 220.975 98.9304 224.698 97.3462 222.757C96.8182 222.11 97.9223 218.514 99.6738 214.569C101.332 210.7 103.478 205.715 104.265 203.635C106.629 197.394 102.722 203.457 99.2138 211.531C96.0993 218.564 95.4414 219.281 94.2564 216.116C93.4905 214.226 95.2682 209.362 100.481 198.998C101.828 196.462 103.005 193.525 103.031 192.606C103.15 191.61 101.435 194.267 99.2227 198.409C97.0982 202.658 94.7872 207.059 94.2016 208.436C93.0514 210.452 92.9686 210.161 92.9024 206.082C92.8877 203.4 94.9765 197.203 97.8679 191.609C100.573 186.168 102.428 181.779 101.977 181.608C101.522 181.62 99.2317 185.286 96.9155 189.872C94.5992 194.457 92.3092 198.123 91.7654 198.028C89.4092 197.615 94.4679 183.066 100.592 172.678C101.173 171.485 101.385 170.413 100.841 170.318C100.386 170.331 98.1061 173.629 95.8883 177.954C93.0022 183.364 91.6864 184.797 91.6454 183.034C91.3771 179.66 94.2223 172.487 98.7197 164.864C100.73 161.426 102.186 158.262 101.834 157.83C101.306 157.183 98.555 161.046 94.3322 168.624C93.2751 170.565 93.0991 170.35 93.473 166.81C93.629 164.527 94.6242 161.559 95.7588 160.094C96.8001 158.705 99.2819 154.703 101.111 151.234C104.282 145.412 104.287 145.228 101.277 148.583L97.9879 152.166L99.289 148.05C101.482 141.41 108.383 129.309 111.74 126.569C114.63 124.21 114.702 124.87 111.7 137.561ZM131.068 122.651C147.68 127.776 166.724 140.259 181.681 155.539C186.102 160.195 188.867 162.25 189.344 161.501C190.976 158.552 169.847 139.327 155.789 130.859C150.684 127.84 142.326 123.882 137.008 121.935C131.69 119.987 127.372 118.122 127.382 117.754C127.419 116.467 146.234 114.584 157.244 114.94C175.084 115.29 193.131 121.221 205.702 130.723C212.832 136.222 215.468 136.406 210.15 131.224C204.569 125.719 191.117 118.373 180.465 115.03C170.626 111.922 155.365 110.545 141.947 111.616C131.449 112.459 130.947 110.892 140.42 107.652C160.003 101.19 176.347 99.7069 195.197 103.006C206.978 105.068 224.17 112.236 224.718 115.382C224.878 116.149 223.665 120.373 222.084 124.718C216.072 140.763 200.795 159.162 175.024 181.454C164.379 190.681 162.147 192.324 160.536 191.302C157.228 189.152 138.98 161.467 132.593 149.073C124.571 133.344 119.996 121.268 121.742 120.741C122.57 120.424 126.734 121.338 131.068 122.651ZM122.127 132.823C129.578 152.612 138.859 168.932 151.18 184.027L159.453 194.163L150.725 200.029C145.892 203.435 137.646 208.368 132.379 211.051C123.413 215.674 122.683 215.731 121.482 213.118C114.283 197.255 111.475 183.917 111.444 165.797C111.399 157.748 111.975 153.505 113.353 153.099C114.456 152.738 116.637 149.7 118.187 146.459C121.658 139.673 120.193 139.971 116.441 146.986C115.094 149.522 113.587 151.292 113.147 150.753C112.002 149.351 117.064 125.098 118.514 125.352C118.964 125.523 120.6 128.859 122.127 132.823ZM224.27 105.507C229.397 104.556 235.85 105.038 237.17 106.655C238.842 108.704 237.446 119.366 234.311 127.135C225.972 148.134 189.113 188.818 164.453 204.095C146.189 215.409 120.856 228.72 111.109 232.005C101.082 235.518 94.8774 235.911 91.5844 233.209C88.1983 230.583 86.3101 223.321 87.8909 218.976C89.7775 213.484 90.4197 213.319 91.2884 218C92.7618 227.038 98.2977 227.729 118.259 220.779C137.479 214.254 145.911 209.168 172.112 187.783C197.193 167.312 205.632 158.807 215.89 143.966C222.164 134.713 229.279 118.306 228.177 115.433C227.753 114.342 225.262 112.242 222.756 110.695C217.651 107.675 217.946 106.895 224.27 105.507ZM129.971 228.467C131.975 228.448 132.063 228.556 130.763 229.437C130.017 230.046 128.173 230.833 126.707 231.131L124.051 231.682L125.915 230.16C126.941 229.323 128.785 228.537 129.971 228.467ZM225.023 152.681C224.302 155.605 222.158 157.356 221.76 155.345C221.511 154.47 222.371 153.049 223.49 152.136C225.168 150.766 225.438 150.906 225.023 152.681ZM136.694 225.854C136.678 226.406 135.927 227.199 135.01 227.408C134 227.693 134.016 227.142 135.041 226.305C135.979 225.36 136.803 225.226 136.694 225.854ZM219.848 158.522C220.163 160.241 217.407 164.287 216.615 163.317C215.471 161.915 215.979 160.063 217.75 158.617C218.776 157.78 219.687 157.755 219.848 158.522ZM142.236 223.127C142.22 223.679 141.469 224.472 140.552 224.681C139.542 224.967 139.558 224.415 140.584 223.578C141.521 222.633 142.345 222.5 142.236 223.127ZM213.73 165.492C214.17 166.031 213.677 167.332 212.558 168.245C210.787 169.691 210.518 169.551 210.932 167.775C211.56 164.928 212.585 164.091 213.73 165.492ZM152.315 217.775C152.755 218.314 151.439 219.747 149.399 221.054C144.12 224.104 142.955 223.438 147.612 219.817C149.757 218.067 151.875 217.236 152.315 217.775ZM209.015 171.137C209.455 171.676 208.963 172.976 207.844 173.889C206.073 175.335 205.803 175.196 206.218 173.42C206.846 170.572 207.871 169.735 209.015 171.137ZM161.411 211.788C161.851 212.328 160.436 214.021 158.385 215.695C156.334 217.369 154.49 218.156 154.418 217.496C154.102 215.777 160.531 210.71 161.411 211.788ZM166.073 207.983C167.217 209.385 165.662 212.81 163.938 212.6C163.306 212.397 162.97 211.414 163.276 210.266C163.996 207.343 165.017 206.689 166.073 207.983ZM198.707 181.347C199.147 181.886 198.934 182.958 198.095 183.643C197.349 184.252 196.536 184.017 196.376 183.25C196.127 182.375 196.428 181.411 196.987 180.954C197.454 180.573 198.179 180.7 198.707 181.347ZM203.835 177.162C203.995 177.929 203.316 179.381 202.291 180.219C201.265 181.056 200.265 180.973 200.105 180.206C199.857 179.33 200.624 177.986 201.649 177.149C202.675 176.312 203.586 176.286 203.835 177.162ZM172.081 204.876C172.241 205.643 171.562 207.096 170.537 207.933C169.604 208.694 168.325 208.84 167.885 208.301C167.357 207.654 168.124 206.309 169.429 205.244C170.735 204.178 171.926 203.925 172.081 204.876ZM178.142 199.929C178.582 200.468 177.996 201.845 176.691 202.91C175.385 203.975 173.92 204.273 173.48 203.734C172.952 203.087 173.625 201.819 174.93 200.754C176.236 199.688 177.613 199.282 178.142 199.929ZM182.804 196.124C183.244 196.663 182.844 197.887 181.726 198.8C180.7 199.638 179.7 199.555 179.54 198.788C179.292 197.912 179.872 196.72 180.618 196.111C181.364 195.502 182.275 195.477 182.804 196.124ZM189.33 190.797C189.77 191.336 189.091 192.788 187.786 193.854C186.481 194.919 185.29 195.173 185.135 194.221C184.886 193.346 185.653 192.002 186.679 191.165C187.611 190.404 188.802 190.15 189.33 190.797ZM194.925 186.231C195.365 186.77 194.966 187.994 193.94 188.831C192.914 189.668 191.635 189.814 191.195 189.275C190.667 188.628 191.154 187.512 192.18 186.674C193.205 185.837 194.397 185.584 194.925 186.231Z" fill="#393D3D"/>
<path d="M117.625 156.62C115.236 160.546 114.318 163.989 115.997 162.62C116.463 162.239 118.188 159.214 119.738 155.973C122.924 149.599 121.547 150.005 117.625 156.62Z" fill="#393D3D"/>
<path d="M119.978 166.736C118.061 170.098 116.589 173.814 116.563 174.734C116.532 175.837 118.619 172.876 121.117 168.322C123.708 163.692 125.92 159.551 125.843 159.075C125.895 157.236 123.341 160.578 119.978 166.736Z" fill="#393D3D"/>
<path d="M120.949 177.442C118.736 181.584 117.467 184.596 118.026 184.14C119.326 183.258 127.088 169.737 126.56 169.09C125.944 168.335 125.089 169.572 120.949 177.442Z" fill="#393D3D"/>
<path d="M124.489 184.255C120.157 192.461 117.882 198.81 121.12 193.831C123.498 190.273 130.83 175.845 130.861 174.741C130.914 172.902 129.297 175.299 124.489 184.255Z" fill="#393D3D"/>
<path d="M127.925 191.51C125.806 195.576 124.137 199.812 124.101 201.1C124.147 202.679 124.328 202.711 125.292 200.846C125.965 199.578 128.188 195.068 130.401 190.927C132.613 186.786 134.36 183.025 134.282 182.549C134.428 180.634 131.49 184.648 127.925 191.51Z" fill="#393D3D"/>
<path d="M130.185 201.703C128.538 205.204 127.548 207.988 127.91 208.052C128.998 208.242 134.666 197.866 134.827 195.399C135.082 192.856 133.569 194.809 130.185 201.703Z" fill="#393D3D"/>
</g>
</svg>
