<svg width="116" height="116" viewBox="0 0 116 116" fill="none" xmlns="http://www.w3.org/2000/svg">
<path d="M58.0042 0L66.5653 17.7199L81.5947 5.01436L82.2083 24.6847L101.106 19.1904L93.6657 37.41L113.164 40.077L98.9566 53.6955L115.684 64.0626L97.1661 70.7253L108.231 87L88.6038 85.5548L92.0919 104.923L74.7501 95.6198L70.0589 114.733L58.0006 99.18L45.9412 114.733L41.2513 95.6198L23.9088 104.923L27.3984 85.5548L7.77156 87L18.8371 70.7253L0.319585 64.0626L17.0478 53.6955L2.84144 40.077L22.3399 37.41L14.9011 19.1904L33.7983 24.6847L34.4132 5.01436L49.4417 17.7199L58.0042 0Z" fill="#EB0029"/>
<path d="M38.9332 32.1818V54H34.3202V36.5604H34.1924L29.1959 39.6925V35.6016L34.5972 32.1818H38.9332ZM52.5234 54.4794C50.691 54.4723 49.1143 54.0213 47.7933 53.1264C46.4794 52.2315 45.4673 50.9354 44.7571 49.2379C44.0539 47.5405 43.7059 45.4986 43.713 43.1122C43.713 40.733 44.0646 38.7053 44.7677 37.0291C45.4779 35.353 46.49 34.0781 47.8039 33.2045C49.125 32.3239 50.6981 31.8835 52.5234 31.8835C54.3487 31.8835 55.9183 32.3239 57.2322 33.2045C58.5532 34.0852 59.5689 35.3636 60.2791 37.0398C60.9893 38.7088 61.3409 40.733 61.3338 43.1122C61.3338 45.5057 60.9787 47.5511 60.2684 49.2486C59.5653 50.946 58.5568 52.2422 57.2429 53.1371C55.9289 54.032 54.3558 54.4794 52.5234 54.4794ZM52.5234 50.6548C53.7734 50.6548 54.7713 50.0263 55.517 48.7692C56.2627 47.5121 56.6321 45.6264 56.625 43.1122C56.625 41.4574 56.4545 40.0795 56.1136 38.9787C55.7798 37.8778 55.3039 37.0504 54.686 36.4964C54.0752 35.9425 53.3544 35.6655 52.5234 35.6655C51.2805 35.6655 50.2862 36.2869 49.5404 37.5298C48.7947 38.7727 48.4183 40.6335 48.4112 43.1122C48.4112 44.7884 48.5781 46.1875 48.9119 47.3097C49.2528 48.4247 49.7322 49.2628 50.3501 49.8239C50.968 50.3778 51.6924 50.6548 52.5234 50.6548ZM76.4155 49.9091V48.7585C76.4155 47.8849 76.6001 47.0824 76.9695 46.3509C77.3459 45.6122 77.8892 45.0227 78.5994 44.5824C79.3168 44.1349 80.1903 43.9112 81.2202 43.9112C82.2642 43.9112 83.1413 44.1314 83.8516 44.5717C84.5689 45.0121 85.1087 45.6016 85.4709 46.3402C85.8402 47.0717 86.0249 47.8778 86.0249 48.7585V49.9091C86.0249 50.7827 85.8402 51.5888 85.4709 52.3274C85.1016 53.0589 84.5582 53.6449 83.8409 54.0852C83.1236 54.5327 82.25 54.7564 81.2202 54.7564C80.1761 54.7564 79.299 54.5327 78.5888 54.0852C77.8786 53.6449 77.3388 53.0589 76.9695 52.3274C76.6001 51.5888 76.4155 50.7827 76.4155 49.9091ZM79.5156 48.7585V49.9091C79.5156 50.4134 79.6364 50.8892 79.8778 51.3366C80.1264 51.7841 80.5739 52.0078 81.2202 52.0078C81.8665 52.0078 82.3068 51.7876 82.5412 51.3473C82.7827 50.907 82.9034 50.4276 82.9034 49.9091V48.7585C82.9034 48.2401 82.7898 47.7571 82.5625 47.3097C82.3352 46.8622 81.8878 46.6385 81.2202 46.6385C80.581 46.6385 80.1371 46.8622 79.8885 47.3097C79.6399 47.7571 79.5156 48.2401 79.5156 48.7585ZM65.2187 37.4233V36.2727C65.2187 35.392 65.407 34.5859 65.7834 33.8544C66.1598 33.1158 66.7031 32.5263 67.4134 32.0859C68.1307 31.6456 68.9972 31.4254 70.0128 31.4254C71.0639 31.4254 71.9446 31.6456 72.6548 32.0859C73.3651 32.5263 73.9048 33.1158 74.2741 33.8544C74.6435 34.5859 74.8281 35.392 74.8281 36.2727V37.4233C74.8281 38.304 74.6399 39.1101 74.2635 39.8416C73.8942 40.5732 73.3509 41.1591 72.6335 41.5994C71.9233 42.0327 71.0497 42.2493 70.0128 42.2493C68.9759 42.2493 68.0987 42.0291 67.3814 41.5888C66.6712 41.1413 66.1314 40.5554 65.7621 39.831C65.3999 39.0994 65.2187 38.2969 65.2187 37.4233ZM68.3402 36.2727V37.4233C68.3402 37.9418 68.4609 38.4212 68.7024 38.8615C68.951 39.3018 69.3878 39.522 70.0128 39.522C70.6662 39.522 71.1101 39.3018 71.3445 38.8615C71.5859 38.4212 71.7067 37.9418 71.7067 37.4233V36.2727C71.7067 35.7543 71.593 35.2713 71.3658 34.8239C71.1385 34.3764 70.6875 34.1527 70.0128 34.1527C69.3807 34.1527 68.9439 34.38 68.7024 34.8345C68.4609 35.2891 68.3402 35.7685 68.3402 36.2727ZM66.625 54L81.625 32.1818H84.4162L69.4162 54H66.625ZM46.5872 84.3196C44.9324 84.3196 43.5013 83.968 42.2939 83.2649C41.0936 82.5547 40.1668 81.5675 39.5133 80.3033C38.8599 79.032 38.5332 77.5582 38.5332 75.8821C38.5332 74.1918 38.8599 72.7145 39.5133 71.4503C40.1668 70.179 41.0936 69.1918 42.2939 68.4886C43.5013 67.7784 44.9324 67.4233 46.5872 67.4233C48.242 67.4233 49.6696 67.7784 50.8699 68.4886C52.0773 69.1918 53.0077 70.179 53.6611 71.4503C54.3145 72.7145 54.6412 74.1918 54.6412 75.8821C54.6412 77.5582 54.3145 79.032 53.6611 80.3033C53.0077 81.5675 52.0773 82.5547 50.8699 83.2649C49.6696 83.968 48.242 84.3196 46.5872 84.3196ZM46.6085 80.804C47.3614 80.804 47.9899 80.5909 48.4942 80.1648C48.9984 79.7315 49.3784 79.142 49.6341 78.3963C49.8969 77.6506 50.0283 76.8018 50.0283 75.8501C50.0283 74.8984 49.8969 74.0497 49.6341 73.304C49.3784 72.5582 48.9984 71.9687 48.4942 71.5355C47.9899 71.1023 47.3614 70.8857 46.6085 70.8857C45.8486 70.8857 45.2094 71.1023 44.6909 71.5355C44.1795 71.9687 43.7925 72.5582 43.5297 73.304C43.274 74.0497 43.1462 74.8984 43.1462 75.8501C43.1462 76.8018 43.274 77.6506 43.5297 78.3963C43.7925 79.142 44.1795 79.7315 44.6909 80.1648C45.2094 80.5909 45.8486 80.804 46.6085 80.804ZM66.2419 67.6364V71.0455H56.1425V67.6364H66.2419ZM58.4543 84V66.4538C58.4543 65.2678 58.6851 64.2841 59.1467 63.5028C59.6155 62.7216 60.2547 62.1357 61.0643 61.745C61.874 61.3544 62.7937 61.1591 63.8236 61.1591C64.5196 61.1591 65.1553 61.2124 65.7305 61.3189C66.3129 61.4254 66.7462 61.5213 67.0303 61.6065L66.2206 65.0156C66.043 64.9588 65.8229 64.9055 65.5601 64.8558C65.3044 64.8061 65.0416 64.7812 64.7717 64.7812C64.1041 64.7812 63.6389 64.9375 63.3761 65.25C63.1133 65.5554 62.982 65.9851 62.982 66.5391V84H58.4543ZM77.6642 67.6364V71.0455H67.5647V67.6364H77.6642ZM69.8765 84V66.4538C69.8765 65.2678 70.1073 64.2841 70.569 63.5028C71.0377 62.7216 71.6769 62.1357 72.4866 61.745C73.2963 61.3544 74.216 61.1591 75.2458 61.1591C75.9419 61.1591 76.5775 61.2124 77.1528 61.3189C77.7352 61.4254 78.1684 61.5213 78.4525 61.6065L77.6429 65.0156C77.4653 64.9588 77.2451 64.9055 76.9823 64.8558C76.7267 64.8061 76.4639 64.7812 76.194 64.7812C75.5264 64.7812 75.0612 64.9375 74.7984 65.25C74.5356 65.5554 74.4042 65.9851 74.4042 66.5391V84H69.8765Z" fill="white"/>
</svg>
