<svg width="274" height="265" viewBox="0 0 274 265" fill="none" xmlns="http://www.w3.org/2000/svg">
<g opacity="0.2">
<path d="M38.7993 0.842133C30.6502 2.17343 24.9337 7.98276 18.9739 21.2957C17.3928 24.9265 12.406 33.8826 8.02743 41.0232C3.64883 48.2848 0 55.3044 0 56.6357C0 65.1076 17.1495 102.868 35.0288 133.851C64.5844 184.924 105.695 224.742 152.643 247.617C168.819 255.604 181.834 259.719 200.807 262.866L213.457 264.923L228.052 256.088C247.026 244.47 268.797 228.252 271.595 223.653C274.757 218.086 274.271 209.251 270.257 200.174C268.311 196.059 266.122 189.402 265.27 185.651C264.419 181.778 260.283 171.854 255.905 163.503C251.526 155.152 245.202 141.355 241.796 132.883C233.769 112.792 231.093 107.709 221.606 93.912C210.903 78.4206 203.605 69.8276 198.74 67.6491C196.551 66.5599 193.023 63.1711 190.834 60.2665C188.523 56.9987 186.577 55.4254 186.334 56.2726C186.091 57.1198 190.956 63.1711 197.28 69.5856C212.727 85.3191 222.092 97.7849 229.877 113.276C233.89 121.143 244.472 147.527 244.472 149.585C244.472 150.311 243.377 150.795 242.039 150.795C240.093 150.795 239.607 151.642 239.607 154.426C239.607 158.783 242.404 160.356 245.931 158.177C247.269 157.33 248.486 156.846 248.729 157.088C248.85 157.33 252.256 163.503 256.148 171.006L263.203 184.561L261.865 193.275C261.013 197.995 260.892 203.079 261.378 204.531C263.081 208.767 261.5 214.939 258.581 216.149C257.121 216.634 255.175 217.965 254.324 219.054C253.472 220.143 251.77 220.991 250.553 220.991C249.337 220.991 247.756 221.838 246.904 222.806C246.053 223.895 243.377 224.621 240.337 224.621C237.539 224.621 234.62 225.227 233.89 225.953C232.917 226.921 231.823 226.921 230.12 225.953C226.593 224.137 221.363 224.258 217.227 226.437C213.943 228.131 213.457 228.131 211.024 225.832C207.375 222.443 200.199 220.506 197.159 222.201C193.51 224.137 192.78 223.774 189.253 218.691C184.874 212.398 178.793 209.493 173.806 211.187C170.401 212.277 170.036 212.156 167.238 207.678C163.468 201.868 159.819 199.206 155.075 199.206C151.913 199.206 150.94 198.358 148.386 193.517C144.859 186.74 138.656 182.262 133.061 182.262C129.655 182.262 128.925 181.778 127.709 178.026C125.885 172.459 121.385 167.255 116.763 165.318C114.33 164.35 113.114 163.019 113.114 161.203C113.114 158.298 108.857 150.916 105.938 148.737C104.843 147.89 102.532 147.164 100.708 147.164C98.032 147.164 97.059 146.075 94.3832 140.507C91.9506 135.182 90.3695 133.367 86.9639 132.036C84.1664 130.825 82.7069 129.373 82.7069 127.921C82.7069 124.895 77.3553 118.602 73.2199 116.665C70.5441 115.334 69.8144 114.003 68.963 108.556C67.9899 101.416 64.8276 95.3644 60.9355 92.9438C58.9895 91.8546 58.3813 90.1602 58.3813 86.2873C58.2597 79.5098 54.4893 71.28 49.989 68.7384C47.5565 67.4071 46.0969 65.4707 45.6104 62.8081C45.2455 60.6296 43.5428 57.2408 41.9616 55.3044C39.8939 53.0049 38.9209 50.3423 38.9209 47.3166C38.9209 44.896 38.0695 41.0232 36.9748 38.8447C35.2721 35.2139 35.2721 34.4877 36.8532 31.341C37.9479 29.4046 39.1642 25.6527 39.6507 23.1111C40.1372 19.9644 41.9616 16.8177 44.6374 14.2762C46.9483 11.9766 49.016 8.58789 49.5025 6.65146C49.989 3.86783 50.962 3.02063 54.3676 2.4155C61.0572 1.20523 74.6795 3.86783 98.5185 11.0084C136.223 22.385 145.953 27.105 168.333 44.775C176.117 50.9474 182.077 54.8203 183.05 54.4572C184.266 53.9731 179.766 49.7371 169.914 42.2334C146.561 24.0794 139.142 20.4485 105.816 10.0402C77.7202 1.20523 73.7064 0.479065 57.6516 0.237C49.5025 0.237 41.1102 0.479065 38.7993 0.842133ZM45.3672 5.32016C44.1509 6.65146 43.9076 7.37762 44.8807 7.74069C47.07 8.46686 45.1239 10.4033 42.2048 10.5243C39.7723 10.5243 39.6507 10.6453 41.84 11.4925C43.2995 12.0977 43.786 12.7028 42.9346 13.1869C42.2048 13.671 40.7453 13.671 39.6507 13.3079C38.556 12.9449 37.7046 13.1869 37.7046 13.9131C37.7046 14.6392 36.61 15.2444 35.2721 15.2444C33.9342 15.2444 32.8395 15.8495 32.8395 16.5757C32.8395 17.1808 32.353 17.4229 31.6232 17.0598C31.0151 16.6967 30.4069 16.8177 30.4069 17.4229C30.4069 18.028 29.069 18.8752 27.3663 19.1172C23.3525 19.9644 23.4742 18.028 27.8528 12.0977C33.9342 3.7468 37.7046 1.81036 44.6374 2.8996C47.07 3.38373 47.1916 3.62576 45.3672 5.32016ZM37.7046 21.1747C37.7046 21.7798 36.8532 23.1111 35.8802 24.0794C34.5423 25.5317 34.4207 26.1368 35.6369 26.4999C36.3667 26.863 35.7586 27.2261 34.1774 27.2261C31.2583 27.3471 31.2583 27.3471 33.5693 29.1625C35.7586 30.8569 35.7586 30.8569 32.2314 30.9779C29.069 31.0989 28.9474 31.341 31.0151 32.1882C33.326 33.1564 33.2044 33.2774 30.5286 33.2774C28.096 33.3985 27.9744 33.6405 29.1907 35.2139C30.5286 36.7872 30.1637 37.0293 27.2446 37.1503C25.177 37.2713 24.5688 37.5134 25.9067 37.8765C28.5825 38.6026 27.3663 40.6601 24.2039 40.6601C22.6228 40.6601 22.0146 41.1442 22.6228 42.1124C23.2309 42.9596 22.866 43.2017 21.5281 42.7175C20.3118 42.2334 19.4604 42.7175 19.0956 44.0488C17.8793 48.7689 18.3658 35.4559 19.7037 30.0097C21.0416 24.0794 21.1632 23.8373 27.2446 22.1429C34.6639 19.9644 37.7046 19.7224 37.7046 21.1747ZM19.4604 63.0501C23.839 75.5159 30.1637 87.6186 43.9076 110.009C55.5839 128.768 63.6113 139.66 75.7741 152.852C80.8825 158.298 86.9639 165.802 89.3964 169.675C94.8697 178.147 108.37 191.702 128.317 208.767C140.845 219.538 145.102 222.322 158.724 228.857C198.132 247.859 207.497 251.247 220.511 251.247C224.89 251.247 227.322 251.731 226.836 252.458C226.471 253.063 224.282 253.668 222.214 253.668C219.295 253.668 218.808 254.031 220.146 254.878C221.727 255.846 221.606 256.088 219.903 256.088C218.687 256.088 217.714 256.573 217.714 257.299C217.714 258.993 212.119 258.751 204.7 256.815C201.172 255.846 198.253 255.604 198.253 256.088C198.253 256.694 200.321 257.541 202.875 257.904C210.903 259.235 212.97 261.051 205.551 260.203C167.603 256.331 124.06 232.851 87.6936 196.785C62.8816 172.217 43.2995 144.622 24.4472 107.346C14.2305 87.1345 2.43256 60.9926 2.43256 58.33C2.43256 57.4829 4.98674 52.0366 8.27069 46.3484L13.9872 35.94L14.8386 44.0488C15.3251 48.5269 17.3928 57.1198 19.4604 63.0501ZM33.4476 39.4498C33.0828 40.0549 33.326 40.6601 34.0558 40.6601C34.9072 40.6601 35.2721 41.3862 34.9072 42.3545C34.5423 43.3227 34.7855 44.4119 35.6369 44.775C36.61 45.1381 36.2451 45.9853 34.6639 47.4376C32.5962 49.132 32.5962 49.374 34.4207 48.7689C35.7586 48.2848 36.4883 48.6479 36.4883 49.7371C36.4883 50.7053 35.5153 51.6736 34.4207 51.6736C32.5962 51.7946 32.5962 51.9156 34.5423 52.3997C36.7316 53.0049 36.7316 53.1259 33.9342 55.4254C32.353 56.7567 31.7449 57.4829 32.5962 56.9987C33.326 56.6357 34.0558 56.8777 34.0558 57.4829C34.0558 58.209 33.2044 58.8142 32.2314 58.8142C30.0421 58.8142 29.7988 60.7506 31.9881 61.5978C32.7179 61.9609 32.1097 62.3239 30.5286 62.3239C28.5825 62.445 27.9744 62.9291 28.4609 64.2604C28.8258 65.2286 28.9474 66.0758 28.7042 66.0758C28.3393 66.0758 27.3663 66.4389 26.3932 66.802C25.0553 67.2861 23.9607 65.4707 22.0146 59.9034C20.6767 55.6674 19.4604 51.4315 19.4604 50.4633C19.4604 49.374 21.6497 47.3166 24.3256 45.7432C27.0014 44.2909 29.9204 41.8704 30.7718 40.6601C31.5016 39.3288 32.5962 38.2395 33.2044 38.2395C33.6909 38.2395 33.8125 38.7236 33.4476 39.4498ZM40.6237 59.7824C40.6237 61.1137 40.8669 62.3239 41.2318 62.2029C43.5428 61.9609 43.9076 62.687 42.4481 64.5024C41.2318 65.8337 41.2318 66.1968 42.3265 65.5917C44.6374 64.2604 44.0293 67.4071 41.7183 69.2225C39.6507 70.7959 39.6507 70.9169 41.7183 70.1907C42.813 69.8276 43.786 70.0697 43.786 70.6748C43.786 71.401 42.813 72.6113 41.7183 73.2164C39.6507 74.4267 39.7723 74.4267 41.9616 74.5477C44.1509 74.5477 44.1509 74.7897 41.3535 76.9682C39.529 78.4206 39.1642 79.1467 40.5021 78.6626C41.5967 78.2995 42.5697 78.5416 42.5697 79.2677C42.5697 79.9939 41.84 80.599 40.8669 80.599C39.8939 80.599 38.6776 81.2042 38.1911 81.9303C37.7046 82.8986 38.3128 83.0196 40.2588 82.4145L43.1779 81.6883L40.1372 84.1088C38.4344 85.4401 37.8262 86.6504 38.6776 86.6504C39.529 86.6504 39.8939 87.1345 39.529 87.8607C37.583 91.0074 34.4207 88.7079 30.7718 81.4462L27.0014 73.9426L31.1367 69.1015C33.4476 66.4389 35.8802 62.445 36.7316 60.2665C38.3128 56.0305 40.7453 55.6674 40.6237 59.7824ZM50.5972 74.1846C50.2323 75.0318 50.7188 75.758 51.9351 75.758C53.5162 75.758 53.5162 76.121 52.2999 77.5734C51.0837 79.0257 51.0837 79.3888 52.2999 79.3888C53.3946 79.3888 53.3946 79.8729 52.1783 81.4462C50.7188 83.2616 50.7188 83.3827 52.6648 82.6565C55.5839 81.5673 55.219 83.8668 52.1783 85.4401C50.8404 86.2873 49.989 87.1345 50.3539 87.4976C50.7188 87.8607 51.8134 87.4976 52.7865 86.7714C53.8811 85.8032 54.7325 85.8032 55.219 86.5294C55.7055 87.2555 54.4893 88.5868 52.6648 89.6761L49.2593 91.4915L52.6648 90.7653C57.0434 89.7971 56.8002 91.0074 52.0567 94.0331C48.1646 96.4536 48.1646 96.5746 51.4486 95.8485C55.5839 94.8802 55.8272 97.1798 51.6918 98.7531C48.043 100.084 47.5565 101.658 51.0837 100.569C54.3676 99.4793 54.1244 101.658 50.8404 103.352C48.7727 104.32 48.5295 104.683 50.1106 104.683C51.4486 104.804 51.9351 105.531 51.4486 107.225C50.2323 111.703 48.7727 110.977 44.2725 104.199L39.8939 97.3008L42.4481 91.1284C43.9076 87.6186 45.3672 82.0514 45.7321 78.7836C46.8267 69.8276 47.07 69.1015 49.3809 70.9169C50.3539 71.7641 50.962 73.2164 50.5972 74.1846ZM38.9209 91.4915C38.9209 92.0966 38.4344 92.7018 37.7046 92.7018C37.0965 92.7018 36.4883 92.0966 36.4883 91.4915C36.4883 90.7653 37.0965 90.2812 37.7046 90.2812C38.4344 90.2812 38.9209 90.7653 38.9209 91.4915ZM60.449 97.5428C60.0841 98.8741 60.3274 99.7213 60.9355 99.2372C63.4897 97.7849 64.5844 100.326 62.3951 102.626C60.2058 105.047 60.3274 105.047 63.0032 104.32C66.2871 103.231 66.4088 104.32 63.6113 107.709C61.5437 110.13 61.5437 110.13 63.6113 108.556C66.4088 106.378 67.8683 107.83 65.8006 111.098C64.9492 112.429 64.8276 113.155 65.5574 112.671C67.3818 111.582 67.2602 114.85 65.4358 116.665C64.3411 117.754 64.3411 118.117 65.4358 118.117C66.2871 118.117 66.8953 118.965 66.8953 119.933C66.8953 120.901 66.4088 121.748 65.679 121.748C65.0709 121.748 64.8276 122.595 65.1925 123.564C65.679 124.532 65.3141 126.226 64.5844 127.073C63.6113 128.163 63.6113 128.889 64.3411 129.252C65.0709 129.494 65.1925 130.341 64.5844 131.309C63.1248 133.609 50.7188 117.149 51.9351 114.487C52.2999 113.518 54.1244 108.677 55.7055 103.836C57.4083 99.1162 59.2327 95.1223 59.9625 95.1223C60.5706 95.1223 60.8139 96.2115 60.449 97.5428ZM75.2876 121.143C76.7471 122.838 77.5985 124.774 77.2337 125.379C76.7471 126.105 77.3553 126.589 78.4499 126.589C80.0311 126.589 80.1527 127.073 79.0581 129.01C77.9634 130.946 78.085 131.309 79.7878 130.583C81.4906 129.978 81.6123 130.22 80.396 132.399C79.423 134.214 79.423 134.94 80.6392 135.424C81.6123 135.787 81.369 136.635 79.7878 138.571C77.3553 141.234 77.3553 141.234 79.7878 140.386C81.9771 139.539 81.9771 139.539 80.0311 141.96C77.4769 144.743 77.2337 146.438 79.423 145.228C80.5176 144.622 80.5176 144.743 79.423 145.954C78.6932 146.801 78.3283 148.374 78.6932 149.464C79.5446 151.763 69.6927 142.686 67.8683 139.539C67.0169 137.966 67.1385 134.698 68.1116 129.252C70.5441 116.302 70.6657 116.06 75.2876 121.143ZM87.572 135.303C87.572 135.908 88.4234 137.361 89.5181 138.329C90.4911 139.418 91.0992 141.234 90.856 142.444C90.4911 143.896 90.856 144.38 92.0722 143.896C93.6534 143.291 93.6534 143.533 92.4371 145.954C91.4641 147.769 91.4641 148.374 92.3155 147.89C94.1399 146.68 94.0183 149.948 92.1939 151.884C90.856 153.094 91.0992 153.215 93.0453 152.489L95.4778 151.642L93.0453 154.426C90.9776 156.846 90.856 157.209 92.802 156.483C95.1129 155.636 95.7211 157.451 93.5318 158.783C92.5588 159.388 92.5588 159.872 93.6534 160.477C94.6264 161.082 94.748 162.05 94.1399 163.019C93.5318 163.987 93.2885 165.802 93.5318 167.133C93.8967 170.038 93.1669 169.191 87.2071 160.84L82.8285 154.668L83.5583 143.775C84.1664 135.303 84.6529 133.004 85.8692 133.488C86.8422 133.851 87.572 134.577 87.572 135.303ZM104.722 150.795C107.032 152.126 107.884 155.031 106.181 155.999C105.573 156.241 105.816 156.241 106.668 156.12C109.222 155.515 109.83 158.056 107.519 160.598C106.303 161.929 106.059 162.898 106.789 162.898C107.641 162.898 108.249 162.292 108.249 161.687C108.249 160.961 108.857 160.477 109.465 160.477C110.195 160.477 110.681 161.566 110.681 162.776C110.681 164.108 110.195 165.56 109.465 165.923C107.519 167.133 108.005 168.949 110.073 168.223C111.046 167.739 111.898 168.102 111.898 168.707C111.898 169.433 111.046 170.764 110.073 171.854C108.005 173.911 107.641 175.484 109.465 174.395C111.411 173.185 110.803 176.453 108.614 178.873C106.668 181.052 106.668 181.052 108.735 180.325C110.681 179.599 110.803 179.962 110.073 182.383C109.587 183.956 108.979 185.53 108.614 185.893C108.37 186.135 105.451 183.714 102.046 180.325L95.9643 174.274L97.1806 165.923C97.9104 161.203 98.1536 155.636 97.7887 153.457C97.1806 150.069 97.5455 149.585 99.7348 149.585C101.194 149.585 103.384 150.19 104.722 150.795ZM244.472 155.152C244.472 157.209 241.796 156.846 241.066 154.668C240.823 153.82 241.431 153.215 242.526 153.215C243.62 153.215 244.472 154.063 244.472 155.152ZM119.195 169.433C120.655 171.127 121.628 173.306 121.263 174.274C120.776 175.484 121.141 175.847 122.358 175.363C124.425 174.637 124.668 177.542 122.601 179.72C121.263 181.052 121.506 181.173 123.817 180.446C126.858 179.599 127.101 180.083 125.155 183.714C124.304 185.288 124.304 185.893 125.033 185.409C127.466 183.956 127.952 187.224 125.763 189.645C123.817 191.823 123.817 191.944 125.642 191.218C128.196 190.25 128.317 192.307 125.885 194.365C123.817 196.059 123.331 198.601 125.277 197.39C126.006 197.027 126.493 197.753 126.493 199.206C126.493 202.352 124.547 201.384 117.128 194.728C112.019 190.129 112.019 190.129 113.114 184.682C113.722 181.657 114.208 176.332 114.33 172.822C114.33 169.433 114.817 166.528 115.303 166.528C115.911 166.528 117.614 167.86 119.195 169.433ZM137.439 185.651C137.439 186.135 136.71 187.345 135.98 188.313C134.642 189.766 134.764 189.766 136.588 188.434C139.264 186.377 140.723 187.587 138.656 190.129C137.683 191.339 137.561 191.944 138.534 191.944C139.264 191.944 139.872 191.339 139.872 190.734C139.872 190.008 140.723 189.524 141.696 189.524C144.129 189.524 144.007 190.613 141.453 193.638C139.507 195.938 139.507 195.938 141.331 194.486C144.98 191.702 146.318 193.638 143.399 197.39C140.602 201.021 140.602 201.021 143.278 198.722C147.048 195.454 148.143 197.39 144.737 201.021C143.156 202.715 142.548 204.047 143.278 204.047C144.007 204.047 144.98 203.442 145.345 202.836C145.71 202.11 146.683 201.626 147.413 201.626C148.264 201.626 147.413 203.2 145.588 205.015C141.453 209.251 141.21 211.55 145.345 207.678C147.048 206.104 148.386 205.499 148.386 206.225C148.386 206.951 147.899 207.92 147.17 208.283C146.561 208.646 145.345 210.219 144.615 211.671C143.156 214.334 143.156 214.334 145.832 212.035C147.17 210.703 148.386 210.219 148.386 210.945C148.386 211.55 147.291 213.124 145.953 214.334C143.886 216.271 143.034 216.271 140.602 214.939C138.899 214.092 135.737 211.429 133.426 209.009L129.29 204.652L129.898 194.607L130.385 184.682H133.912C135.858 184.682 137.439 185.167 137.439 185.651ZM266.486 203.2C264.905 204.773 264.054 204.047 263.324 200.416C262.473 196.059 264.176 194.97 266 198.601C267.338 200.9 267.46 202.231 266.486 203.2ZM157.386 203.321C157.143 204.894 157.508 205.015 158.846 203.926C160.914 202.231 161.035 203.321 159.211 206.83C157.751 209.493 157.751 209.493 160.427 207.193C162.981 204.894 162.981 204.894 162.981 207.436C162.981 208.767 162.495 210.34 161.765 210.703C161.157 211.066 160.549 212.156 160.549 212.882C160.549 213.729 161.643 213.003 162.981 211.308C165.292 208.283 165.414 208.283 165.414 210.945C165.414 212.398 166.022 213.971 166.752 214.334C167.603 214.939 167.36 216.149 166.022 218.086C165.049 219.659 164.684 220.991 165.292 220.991C165.9 220.991 166.63 220.264 166.995 219.417C167.238 218.691 167.968 218.328 168.454 218.812C169.063 219.417 168.454 220.87 167.238 222.201C166.022 223.532 165.414 224.984 165.779 225.348C166.265 225.832 166.873 225.227 167.36 224.137C167.725 223.048 168.576 222.201 169.184 222.201C171.13 222.201 170.401 225.348 168.09 227.526C165.9 229.341 165.414 229.341 159.211 226.074L152.643 222.685L152.278 212.519C152.035 205.257 152.4 202.11 153.494 201.505C155.684 200.053 157.508 200.9 157.386 203.321ZM270.865 211.671C271.352 215.181 271.108 216.149 269.649 216.149C266.122 216.149 263.932 214.697 263.932 212.277C263.932 211.066 264.419 210.219 264.905 210.582C265.392 210.824 266.608 210.703 267.581 209.977C269.041 209.13 269.041 208.888 267.095 208.888C265.27 208.888 265.149 208.646 266.365 207.072C268.433 204.531 269.892 206.104 270.865 211.671ZM178.55 213.366C180.739 213.85 181.225 214.697 180.739 216.513C180.252 218.328 180.496 218.57 181.469 217.602C182.563 216.513 183.415 216.634 184.996 218.086C187.064 219.901 187.064 220.385 185.361 223.653C182.928 228.252 184.023 229.583 186.577 224.984C188.28 221.959 188.401 221.838 188.523 224.258C188.523 225.711 188.037 227.284 187.307 227.647C186.699 228.01 186.091 229.341 186.212 230.431C186.212 232.004 186.577 231.883 187.55 229.705C189.131 226.558 191.564 226.074 190.347 229.099C188.28 234.304 188.28 234.788 190.226 232.488L192.294 230.068L191.807 232.488C191.442 233.819 190.834 235.998 190.347 237.329C189.739 239.145 189.861 239.266 190.712 238.055C192.05 236.119 194.604 237.208 194.604 239.871C194.604 242.17 194.848 242.17 184.753 237.329L175.874 233.093L173.563 223.895C171.617 216.271 171.495 214.455 172.955 213.608C174.901 212.398 175.022 212.398 178.55 213.366ZM148.386 217.36C148.386 218.933 147.778 219.538 146.561 219.054C145.102 218.449 144.98 217.844 146.075 216.634C147.899 214.334 148.386 214.455 148.386 217.36ZM266.486 220.022C266.486 222.685 266.608 222.685 267.581 220.385C268.311 218.691 268.676 218.449 268.676 219.901C268.797 220.87 268.068 222.806 267.095 224.016C265.635 225.953 265.149 226.074 263.446 224.742C262.351 223.895 261.5 221.959 261.5 220.506C261.5 218.449 261.743 218.328 262.716 219.78C263.689 221.354 263.932 221.233 263.932 219.417C263.932 216.392 266.365 216.876 266.486 220.022ZM260.283 219.78C260.283 220.385 259.432 220.991 258.337 220.991C257.364 220.991 256.878 220.385 257.243 219.78C257.608 219.054 258.459 218.57 259.189 218.57C259.797 218.57 260.283 219.054 260.283 219.78ZM260.283 225.59L263.081 227.889L258.581 231.278L254.08 234.667L250.553 230.552C246.783 226.195 246.175 224.621 247.999 224.621C248.607 224.621 249.459 225.59 249.702 226.679C250.188 228.373 250.31 228.131 250.432 226.074C250.553 224.016 251.283 223.411 254.08 223.411C256.026 223.411 258.824 224.379 260.283 225.59ZM208.47 227.163C213.943 231.399 220.39 246.527 217.47 248.343C215.16 249.795 213.578 246.648 215.403 244.47C216.862 242.654 216.862 242.412 215.403 243.381C214.065 244.107 213.822 243.865 214.43 242.412C214.795 241.202 214.795 240.355 214.187 240.355C213.578 240.355 212.727 239.024 212.362 237.329C211.632 234.425 209.2 234.062 209.2 236.845C209.2 237.571 209.808 237.692 210.659 237.208C211.632 236.603 211.754 236.966 211.267 238.297C210.781 239.508 211.024 240.355 211.754 240.355C212.484 240.355 212.849 241.081 212.484 242.049C212.119 243.018 212.24 243.986 212.849 244.228C213.457 244.47 213.578 245.317 213.092 246.164C212.24 247.253 210.659 247.132 205.551 245.438C198.983 243.139 198.983 243.139 196.672 235.635C195.456 231.399 194.726 227.284 195.091 226.316C196.064 223.653 204.7 224.137 208.47 227.163ZM171.495 228.857C171.495 229.826 171.009 230.673 170.279 230.673C169.671 230.673 169.063 229.826 169.063 228.857C169.063 227.889 169.671 227.042 170.279 227.042C171.009 227.042 171.495 227.889 171.495 228.857ZM230.363 229.583C234.377 232.73 240.337 242.654 238.877 243.865C237.539 245.075 227.322 247.617 224.038 247.617C222.214 247.617 221.363 246.527 220.754 243.26C220.39 240.839 219.173 237.087 218.079 234.788C216.497 231.52 216.376 230.431 217.714 228.857C219.903 226.316 226.593 226.558 230.363 229.583ZM245.08 228.978C246.175 230.068 247.999 232.367 249.094 234.062C250.918 236.845 250.918 237.087 248.242 239.266C244.35 242.412 242.161 242.17 240.701 238.176C239.972 236.361 238.269 233.698 236.931 232.246C235.593 230.794 234.863 229.099 235.35 228.373C236.566 226.316 242.891 226.8 245.08 228.978Z" fill="#393D3D"/>
<path d="M210.782 255.725C211.876 255.967 213.822 255.967 215.039 255.725C216.133 255.362 215.16 255.12 212.849 255.12C210.538 255.12 209.565 255.362 210.782 255.725Z" fill="#393D3D"/>
<path d="M162.982 216.392C161.523 219.054 161.523 219.054 163.712 217.118C164.928 215.908 165.536 214.697 165.171 214.213C164.685 213.85 163.712 214.818 162.982 216.392Z" fill="#393D3D"/>
<path d="M183.294 219.417C182.807 219.781 182.442 220.991 182.442 222.08C182.564 223.653 182.807 223.653 183.78 221.838C185.118 219.538 184.753 217.844 183.294 219.417Z" fill="#393D3D"/>
<path d="M251.771 227.163C251.771 228.494 252.257 229.341 252.865 228.978C253.473 228.494 254.325 228.978 254.568 229.704C254.933 230.552 255.298 230.068 255.298 228.736C255.419 227.284 254.568 225.832 253.595 225.347C252.379 224.863 251.771 225.468 251.771 227.163Z" fill="#393D3D"/>
<path d="M206.282 230.31C205.552 232.004 205.673 232.125 206.89 231.036C207.741 230.189 208.106 229.22 207.741 228.857C207.376 228.494 206.647 229.099 206.282 230.31Z" fill="#393D3D"/>
<path d="M208.836 231.52C208.349 231.883 207.984 232.851 207.984 233.577C207.984 234.304 208.593 234.182 209.444 233.335C210.174 232.609 210.539 231.641 210.295 231.278C209.93 230.915 209.201 231.036 208.836 231.52Z" fill="#393D3D"/>
<path d="M226.349 232.609C226.349 233.94 226.714 234.304 227.079 233.335C227.444 232.488 227.322 231.399 226.957 231.036C226.592 230.552 226.227 231.278 226.349 232.609Z" fill="#393D3D"/>
<path d="M228.295 234.304C227.2 238.419 227.2 239.387 228.66 238.54C229.39 238.176 229.876 238.782 229.876 239.992C229.876 241.807 230.119 241.928 231.092 240.355C232.065 238.782 232.309 238.903 232.309 240.597C232.309 241.807 233.16 242.776 234.133 242.776C235.106 242.776 235.957 242.17 235.957 241.444C235.957 240.839 235.349 240.597 234.62 241.081C233.647 241.565 233.525 240.96 234.133 239.145C234.741 237.329 234.62 236.724 233.647 237.208C232.917 237.692 232.309 237.208 232.309 235.877C232.309 234.183 232.065 234.062 231.214 235.393C230.363 236.724 229.998 236.482 229.633 234.183L229.268 231.278L228.295 234.304Z" fill="#393D3D"/>
<path d="M238.391 228.978C238.391 229.342 239.242 230.431 240.215 231.399C241.796 232.972 242.039 232.972 242.039 231.52C242.039 230.552 241.188 229.463 240.215 228.978C239.242 228.615 238.391 228.615 238.391 228.978Z" fill="#393D3D"/>
<path d="M243.5 233.093C243.5 234.788 243.743 235.393 244.108 234.546C244.351 233.819 244.351 232.367 244.108 231.52C243.743 230.794 243.5 231.399 243.5 233.093Z" fill="#393D3D"/>
<path d="M245.81 233.94C245.81 234.666 245.324 236.361 244.959 237.571C244.351 239.265 244.472 239.387 245.567 238.418C246.418 237.571 246.905 235.998 246.54 234.787C246.175 233.456 245.932 233.093 245.81 233.94Z" fill="#393D3D"/>
<path d="M90.7573 11.7345C86.5003 14.155 89.4194 20.8115 94.2845 19.8433C96.9603 19.3592 97.8117 14.6391 95.8657 12.0976C94.1629 10.1611 93.5547 10.0401 90.7573 11.7345ZM94.6494 15.8494C94.6494 16.8176 93.798 17.6648 92.825 17.6648C91.852 17.6648 91.0006 16.8176 91.0006 15.8494C91.0006 14.8812 91.852 14.034 92.825 14.034C93.798 14.034 94.6494 14.8812 94.6494 15.8494Z" fill="#393D3D"/>
<path d="M89.0414 23.5681C84.4195 26.1097 87.8251 35.5498 93.2983 35.5498C98.0418 35.5498 98.65 25.8676 94.1497 23.4471C91.4739 21.9947 91.5956 21.9947 89.0414 23.5681ZM93.6632 27.683C94.1497 28.6512 94.0281 30.4666 93.6632 31.5559C92.9335 33.3713 92.6902 33.3713 90.8658 31.6769C88.9197 29.6195 89.4062 25.8676 91.7172 25.8676C92.4469 25.8676 93.2983 26.7148 93.6632 27.683Z" fill="#393D3D"/>
<path d="M97.2653 39.6978C96.1707 42.4815 97.6302 45.023 101.036 46.5964C103.59 47.6856 104.563 47.6856 106.144 45.9913C109.306 42.8445 106.509 37.8824 101.644 37.8824C99.4546 37.8824 97.6302 38.6086 97.2653 39.6978ZM103.833 43.0866C104.198 45.023 103.955 45.1441 101.766 43.9338C98.7248 42.3604 98.36 39.9399 101.279 40.545C102.495 40.7871 103.59 41.8763 103.833 43.0866Z" fill="#393D3D"/>
<path d="M100.385 51.1399C96.6148 52.7133 95.8851 55.4969 98.3176 59.1277C101.723 64.3319 107.561 65.9052 121.549 65.4211C128.36 65.3001 134.441 64.5739 135.049 64.0898C137.725 61.4272 118.994 51.624 109.264 50.6558C105.98 50.2927 101.966 50.5348 100.385 51.1399ZM103.183 54.7707C102.818 55.3759 101.845 55.981 101.237 55.981C100.507 55.981 100.385 55.3759 100.75 54.7707C101.115 54.0446 102.088 53.5605 102.696 53.5605C103.426 53.5605 103.548 54.0446 103.183 54.7707ZM112.67 55.2549C116.075 54.0446 114.981 55.6179 110.602 58.2805C105.372 61.5483 103.548 61.5483 107.44 58.2805C110.359 55.86 109.751 55.86 104.521 57.9175C102.818 58.5226 102.453 58.4016 103.061 57.3123C104.399 55.2549 109.142 53.6815 109.994 55.0128C110.359 55.6179 111.575 55.739 112.67 55.2549ZM118.994 57.1913C117.9 59.0067 111.089 62.2744 109.629 61.7903C108.899 61.5483 110.116 60.0959 112.426 58.7646C116.927 55.981 120.211 55.2549 118.994 57.1913ZM119.724 60.8221C117.17 63.0006 113.521 64.0898 113.521 62.6375C113.521 61.9114 119.967 58.5226 121.427 58.5226C122.157 58.5226 121.305 59.6118 119.724 60.8221ZM124.468 62.0324C122.157 63.4847 120.819 63.4847 120.819 62.1534C120.819 60.9431 124.589 59.7329 125.684 60.459C125.927 60.7011 125.441 61.4272 124.468 62.0324Z" fill="#393D3D"/>
<path d="M88.9913 69.3289C86.9237 70.6602 86.3155 73.5649 87.4102 76.5906C88.2616 78.8901 89.2346 79.3742 92.3969 79.0111C97.3837 78.527 98.4783 74.6541 94.7078 70.9023C91.9104 68.1187 91.059 67.8766 88.9913 69.3289ZM93.1267 74.8962C93.4916 76.3485 93.005 76.9536 91.9104 76.5906C91.059 76.2275 90.086 75.0172 89.9644 73.928C89.5995 72.4756 90.086 71.8705 91.1806 72.2336C92.032 72.5967 93.005 73.8069 93.1267 74.8962Z" fill="#393D3D"/>
<path d="M97.1062 83.4404C96.1332 85.982 98.9306 90.46 101.12 89.9759C104.282 89.3708 105.863 85.861 104.039 83.6825C101.971 81.262 97.9576 81.1409 97.1062 83.4404ZM101.606 85.74C101.485 87.1923 99.782 86.8292 99.2955 85.2559C98.9306 84.5297 99.4171 84.0456 100.269 84.2876C100.998 84.6507 101.606 85.2559 101.606 85.74Z" fill="#393D3D"/>
<path d="M143.278 88.708C141.088 89.0711 140.237 89.7973 140.724 91.0076C141.088 91.8547 141.818 92.3389 142.426 91.9758C143.521 91.3706 143.886 92.7019 143.643 96.9379C143.643 98.3902 144.251 97.6641 145.345 95.1225L147.17 90.8865L146.683 95.4856C145.954 100.932 146.562 100.932 154.832 94.8804C162.495 89.3132 162.252 87.8609 153.616 87.9819C149.724 88.1029 145.102 88.466 143.278 88.708ZM150.332 94.7594C149.116 95.9697 148.021 94.1543 149.116 92.5809C149.846 91.2496 150.089 91.2496 150.575 92.5809C150.819 93.4281 150.697 94.3963 150.332 94.7594Z" fill="#393D3D"/>
<path d="M97.5667 94.809C96.3505 96.3824 96.7154 96.5034 99.5128 96.0193C101.337 95.6562 103.283 95.1721 103.77 94.809C104.256 94.567 104.864 94.93 105.108 95.7772C105.473 96.7454 105.959 96.5034 106.446 95.1721C107.054 93.4777 106.446 93.1146 103.162 93.1146C100.972 93.1146 98.4181 93.9618 97.5667 94.809Z" fill="#393D3D"/>
<path d="M88.2797 101.332C86.3337 104.962 90.469 109.077 94.9693 107.988C98.1316 107.262 98.983 104.72 97.4018 100.726C96.3072 97.8218 89.9825 98.3059 88.2797 101.332ZM95.4558 103.268C96.0639 105.325 92.2934 106.778 90.5907 105.083C89.8609 104.357 89.7393 103.268 90.2258 102.421C91.3204 100.726 94.726 101.332 95.4558 103.268Z" fill="#393D3D"/>
<path d="M132.939 102.021C129.777 103.11 131.479 104.805 135.858 104.805C139.385 104.805 139.993 104.441 138.899 103.352C137.318 101.779 135.128 101.295 132.939 102.021Z" fill="#393D3D"/>
<path d="M182.078 116.423C176.361 125.5 173.929 131.43 173.929 136.03C173.929 141.597 176.726 144.743 181.713 144.743C186.821 144.743 188.889 138.45 188.281 125.137C187.673 112.066 186.213 110.009 182.078 116.423ZM185.362 123.685C185.727 124.774 186.091 126.71 186.091 128.163C185.97 130.825 185.97 130.825 184.267 128.526C182.199 125.863 181.835 121.748 183.537 121.748C184.145 121.748 184.997 122.595 185.362 123.685ZM183.659 130.099C184.389 132.036 184.875 134.698 184.632 135.908C184.267 137.603 183.781 137.361 182.078 134.214C179.888 129.978 179.402 126.589 181.105 126.589C181.713 126.589 182.808 128.163 183.659 130.099ZM182.443 139.539C182.443 140.386 181.956 141.113 181.47 141.113C180.132 141.113 177.578 133.004 178.672 132.036C179.402 131.188 182.321 136.998 182.443 139.539Z" fill="#393D3D"/>
<path d="M216.741 128.647C216.012 129.857 215.282 136.514 215.16 143.412C214.674 155.999 214.674 156.12 217.836 157.814C225.377 162.171 231.215 155.515 228.661 145.833C226.837 139.418 222.215 129.978 219.661 127.921C218.201 126.71 217.715 126.831 216.741 128.647ZM220.877 133.488C223.553 137.119 222.823 139.781 220.147 136.393C217.715 133.609 216.985 131.43 218.444 131.43C218.931 131.43 220.025 132.399 220.877 133.488ZM224.647 147.406L224.404 150.916L221.607 147.769C220.147 145.954 219.174 144.017 219.539 143.412C219.904 142.807 219.661 141.113 218.809 139.66C217.593 137.24 217.958 137.361 221.12 140.386C223.918 142.928 224.769 144.865 224.647 147.406ZM221.85 150.19C224.647 154.547 224.282 155.273 220.755 152.005C217.593 149.1 216.863 147.164 218.809 147.164C219.417 147.164 220.755 148.495 221.85 150.19ZM220.147 154.547C220.147 155.273 219.661 155.394 218.931 155.031C218.323 154.668 217.715 153.699 217.715 153.094C217.715 152.368 218.323 152.247 218.931 152.61C219.661 152.973 220.147 153.942 220.147 154.547Z" fill="#393D3D"/>
<path d="M148.022 132.157C146.076 134.698 146.076 135.062 147.778 135.062C149.725 135.062 151.427 132.399 150.576 130.341C150.454 129.736 149.238 130.584 148.022 132.157Z" fill="#393D3D"/>
<path d="M159.455 171.854C158.482 173.064 158.117 175 158.603 176.937C159.211 179.357 160.063 179.962 162.617 179.599C164.32 179.357 166.387 178.268 167.117 177.058C169.915 172.701 162.739 167.86 159.455 171.854ZM164.928 173.911C166.144 175.969 163.347 178.268 161.644 176.574C160.184 175.121 161.157 172.58 162.982 172.58C163.59 172.58 164.441 173.185 164.928 173.911Z" fill="#393D3D"/>
<path d="M232.553 178.51C231.58 179.115 231.093 181.173 231.336 183.593C231.701 187.224 232.066 187.708 235.228 187.708C239.85 187.708 241.796 184.683 239.85 180.568C238.391 177.421 235.472 176.574 232.553 178.51ZM236.81 181.173C238.512 182.867 237.539 185.893 235.228 185.893C234.255 185.893 233.526 184.683 233.526 182.867C233.526 179.599 234.62 178.994 236.81 181.173Z" fill="#393D3D"/>
<path d="M199.47 200.295C199.47 204.168 201.416 205.499 204.7 203.804C207.254 202.473 207.376 201.142 204.821 198.721C201.781 195.696 199.47 196.301 199.47 200.295Z" fill="#393D3D"/>
</g>
</svg>
