<svg width="308" height="308" viewBox="0 0 308 308" fill="none" xmlns="http://www.w3.org/2000/svg">
<g opacity="0.2">
<path d="M93.8277 229.733C96.9429 230.563 100.699 227.356 100.683 223.978C100.665 220.038 95.7446 216.308 92.0743 217.733C85.4861 220.203 86.5598 227.984 93.8277 229.733ZM93.2197 220.73C96.1411 220.435 98.2241 222.301 97.6699 224.743C97.1165 227.372 91.4536 226.085 91.0632 223.273C90.9606 221.491 91.5236 220.925 93.2197 220.73Z" fill="#393D3D"/>
<path d="M166.847 279.491C175.349 283.017 192.095 275.246 212.099 258.735C219.706 252.414 230.883 243.262 236.988 238.449C252.768 225.804 262.707 214.124 269.806 199.831C281.666 175.665 286.17 151.158 280.377 142.085C275.154 134.135 263.629 129.31 246.275 128.077C233.354 127.106 198.416 115.822 172.528 104.122C162.607 99.5712 141.638 91.4129 125.868 85.9512C110.191 80.3951 93.3807 74.4691 88.5631 72.5214C72.317 66.2174 64.4081 68.5058 66.5307 78.8158C67.4017 83.5963 81.298 111.489 101.56 149.766C107.457 160.808 115.932 178.5 120.507 189.174C150.92 260.802 155.016 269.696 159.656 274.083C162.119 276.511 165.336 278.935 166.847 279.491ZM157.916 264.897C154.308 259.473 154.306 259.098 157.309 256.082C158.998 254.385 162.851 251.834 165.767 250.413C169.436 248.614 174.131 244.651 180.981 237.583C189.8 228.348 191.867 226.838 203.248 221.062C218.298 213.487 220.266 211.132 234.386 186.205C239.716 176.892 245.798 167.013 247.953 164.095C255.074 154.68 256.096 151.392 254.642 143.049C253.962 138.643 254.036 134.421 254.787 133.667C256.757 131.687 269.885 136.411 274.242 140.706C281.251 147.616 280.851 162.722 272.839 183.212C262.872 209.057 253.592 220.452 219.967 247.816C202.404 262.251 195.263 267.351 186.139 271.99C175.793 277.292 174.004 277.769 170.132 276.38C165.031 274.34 162.759 272.286 157.916 264.897ZM152.573 251.413C153.323 250.659 154.643 250.653 155.401 251.4C156.159 252.147 156.165 253.46 155.414 254.214C154.664 254.968 153.344 254.974 152.586 254.227C151.828 253.48 151.822 252.167 152.573 251.413ZM135.718 215.935C129.519 200.859 123.801 187.939 123.043 187.004C122.378 185.976 122.274 184.006 122.832 182.315C123.484 180.717 123.665 179.027 123.191 178.56C122.813 178.187 122.249 178.565 122.064 179.316C121.785 180.162 121.22 180.352 120.746 179.885C120.178 179.325 120.08 178.481 120.549 178.01C121.112 177.444 120.636 176.414 119.689 175.481C118.742 174.735 115.225 168.653 111.894 162.007L105.804 150.027L112.186 143.806C116.879 139.281 118.845 136.363 119.49 133.264C122.347 119.272 104.363 104.158 89.5796 108.261L84.307 109.786L81.8319 104.732C80.4049 102.018 78.8823 99.0226 78.5008 98.0862C77.929 96.7754 79.0577 96.2073 83.0157 95.8136C89.4241 95.2209 96.8417 88.7131 97.0995 83.3643C97.1854 81.5814 97.6501 80.172 98.0273 80.1703C102.365 80.3377 148.362 97.6674 182.654 112.049C207.026 122.256 227.423 128.916 240.914 130.823L250.726 132.278L250.656 137.439C250.669 140.253 250.973 144.661 251.361 147.098C251.945 150.848 251.106 153.01 245.956 160.445C242.49 165.246 236.035 176.065 231.455 184.436C219.302 206.446 214.8 211.533 200.032 218.825C188.839 224.413 187.523 225.357 179.927 234.117C171.207 244.196 158.707 252.791 156.339 250.457C155.676 249.803 153.978 249.436 152.658 249.442C149.643 249.831 150.974 252.265 135.718 215.935ZM105.297 142.43C108.592 141.383 111.517 141.839 110.203 143.158C108.232 145.137 105.124 145.809 103.893 144.595C102.851 143.568 103.131 143.097 105.297 142.43ZM106.311 137.641C111.959 135.739 115.73 135.721 113.854 137.606C111.883 139.585 101.431 142.355 101.141 140.949C100.948 140.011 103.016 138.688 106.311 137.641ZM106.38 132.293C116.549 129.431 115.701 129.529 116.087 131.404C116.759 133.934 100.001 139.078 98.8583 136.644C98.0962 134.959 99.4126 134.202 106.38 132.293ZM95.6193 129.529C95.9947 129.152 100.703 128.004 106.166 126.853C112.476 125.416 116.058 125.212 116.064 126.525C116.071 128.026 106.565 131.542 99.5932 132.512C97.4261 132.804 94.4932 130.66 95.6193 129.529ZM95.9717 124.273C98.2309 123.512 102.092 122.65 104.73 122.075C107.368 121.687 109.909 120.831 110.379 120.36C111.505 119.229 103.119 120.488 96.7172 122.394C94.2694 123.156 91.7243 123.261 91.156 122.701C89.7352 121.3 91.7102 120.259 100.75 117.778C107.623 115.776 108.944 115.957 111.596 118.572C113.301 120.253 114.346 122.03 113.877 122.502C112 124.387 94.6695 128.032 93.4381 126.818C92.3014 125.698 92.6768 125.321 95.9717 124.273ZM88.7712 116.802C89.1386 114.736 103.174 112.138 104.879 113.818C106.205 115.126 105.642 115.504 101.214 116.369C98.5772 116.944 94.8104 117.899 93.0222 118.564C89.7272 119.612 88.2161 119.056 88.7712 116.802ZM87.9037 112.772C88.1853 112.489 89.6911 111.919 91.1969 111.349C95.3399 110.204 96.3863 112.169 92.3389 113.595C89.3272 114.735 86.4023 114.28 87.9037 112.772ZM84.5765 86.8938L92.6714 84.0416L90.4272 87.9924C88.6504 91.0966 87.1472 92.2294 84.2276 92.8997C78.8585 93.9566 79.3216 92.172 84.7818 90.4579C91.1832 88.3641 89.2949 87.81 82.4218 89.8121C73.8533 92.1974 75.2592 90.4084 84.5765 86.8938ZM74.4873 86.6593C74.8626 86.2823 89.8271 80.6775 91.5224 80.2944C91.8995 80.2926 92.1846 80.7603 92.2819 81.4166C92.1951 83.0119 75.9125 88.9981 74.7759 87.8776C74.397 87.5041 74.2058 86.9421 74.4873 86.6593ZM72.584 82.9155C73.9916 81.5017 90.2804 76.8289 90.2849 77.7671C90.2919 79.2681 73.9145 85.1609 72.8726 84.1338C72.4937 83.7603 72.3025 83.1983 72.584 82.9155ZM75.1992 77.6496C78.0223 76.5107 81.0331 75.1832 81.8803 74.8979C83.48 74.2337 85.748 75.3489 84.8096 76.2915C84.6219 76.48 81.5164 77.714 78.0338 78.9499C70.5037 81.6118 68.0472 80.4974 75.1992 77.6496ZM73.9564 73.9966C78.8492 71.9098 80.8357 73.3078 76.1314 75.3937C71.5218 77.5729 69.9204 77.8618 69.9151 76.736C69.9125 76.1732 71.6981 74.9452 73.9564 73.9966Z" fill="#393D3D"/>
<path d="M169.161 270.38C171.429 271.496 173.224 272.144 173.221 271.581C173.219 271.018 170.57 269.154 167.263 267.575C160.741 264.134 162.544 266.658 169.161 270.38Z" fill="#393D3D"/>
<path d="M172.912 265.86C176.406 267.064 176.688 266.968 174.23 265.479C170.921 263.524 166.389 262.044 167.809 263.445C168.283 263.912 170.551 265.027 172.912 265.86Z" fill="#393D3D"/>
<path d="M177.607 261.898C179.308 262.64 180.722 262.728 180.72 262.165C180.717 261.602 178.921 260.578 176.561 259.933C172.029 258.64 172.695 259.857 177.607 261.898Z" fill="#393D3D"/>
<path d="M184.945 258.674C187.584 258.474 187.49 258.38 184.185 257.364C179.369 255.791 178.898 255.887 180.603 257.568C181.456 258.408 183.344 258.963 184.945 258.674Z" fill="#393D3D"/>
<path d="M187.184 253.598C190.203 253.959 190.203 253.959 186.898 252.755C182.647 251.179 181.705 251.184 182.841 252.304C183.41 252.865 185.298 253.419 187.184 253.598Z" fill="#393D3D"/>
<path d="M190.254 244.671C191.007 244.479 191.287 243.821 190.813 243.355C190.245 242.794 189.302 242.799 188.833 243.27C188.27 243.835 188.084 244.399 188.273 244.586C188.558 244.866 189.407 244.956 190.254 244.671Z" fill="#393D3D"/>
<path d="M219.424 232.526C224.332 233.629 228.197 233.518 226.777 232.117C225.925 231.464 213.474 230.209 214.232 230.956C214.516 231.236 216.876 231.881 219.424 232.526Z" fill="#393D3D"/>
<path d="M225.439 228.558C228.364 229.013 231.569 228.998 232.604 228.524C233.734 228.144 232.317 227.681 229.488 227.507C226.66 227.52 223.074 226.974 221.469 226.512C219.864 226.05 218.922 226.242 219.396 226.709C219.964 227.27 222.702 228.101 225.439 228.558Z" fill="#393D3D"/>
<path d="M233.425 222.61L240.308 222.672L233.232 221.673C229.458 221.127 226.063 220.956 225.875 221.144C224.937 222.087 227.013 222.452 233.425 222.61Z" fill="#393D3D"/>
<path d="M236.893 217.997C240.1 218.17 242.738 217.783 242.735 217.22C242.732 216.657 239.807 216.201 236.319 216.311C228.495 216.442 228.877 217.566 236.893 217.997Z" fill="#393D3D"/>
<path d="M241.015 212.536C242.994 212.433 244.595 211.957 244.592 211.394C244.59 210.831 242.798 210.745 240.632 211.225C235.922 212.185 236.113 212.747 241.015 212.536Z" fill="#393D3D"/>
<path d="M240.992 207.846C242.5 207.651 243.629 207.083 243.626 206.52C243.624 205.957 242.304 205.963 240.608 206.346C237.031 207.489 237.317 208.144 240.992 207.846Z" fill="#393D3D"/>
<path d="M267.579 167.381C271.913 166.798 273.889 165.945 272.19 165.577C270.397 165.117 264.464 166.552 265.127 167.205C265.411 167.485 266.542 167.48 267.579 167.381Z" fill="#393D3D"/>
<path d="M268.687 162.31C270.853 161.831 272.735 161.071 272.638 160.603C272.637 160.227 270.657 160.33 268.209 160.905C262.841 162.337 263.224 163.461 268.687 162.31Z" fill="#393D3D"/>
<path d="M268.096 157.059C270.638 156.203 272.613 155.162 272.705 154.692C272.608 154.224 270.63 154.514 268.088 155.37C265.547 156.227 263.572 157.268 263.479 157.737C263.576 158.206 265.554 157.915 268.096 157.059Z" fill="#393D3D"/>
<path d="M266.845 151.717C270.895 150.667 275.504 148.487 272.866 148.875C269.662 149.265 261.001 151.932 261.38 152.306C261.759 152.679 264.208 152.293 266.845 151.717Z" fill="#393D3D"/>
<path d="M265.219 146.565C267.761 145.897 269.831 144.949 269.828 144.386C269.826 143.823 267.752 144.02 265.211 144.877C259.374 146.78 259.38 148.094 265.219 146.565Z" fill="#393D3D"/>
<path d="M263.875 141.505C265.57 141.122 266.98 140.271 266.884 139.803C266.882 139.427 265.374 139.622 263.492 140.381C259.351 141.902 259.733 142.838 263.875 141.505Z" fill="#393D3D"/>
<path d="M261.027 137.578C262.909 136.819 262.909 136.631 261.117 136.545C259.797 136.552 258.762 137.025 258.765 137.588C258.767 138.151 259.805 138.24 261.027 137.578Z" fill="#393D3D"/>
<path d="M144.975 219.457C154.14 223.636 160.828 222.385 167.866 215.316C174.153 209.002 175.824 203.365 173.528 196.433C169.607 184.537 158.169 178.304 147.249 181.732C131.811 186.87 128.106 200.96 139.008 213.762C141.189 216.473 143.935 218.993 144.975 219.457ZM152.666 210.978C157.75 209.453 163.305 207.832 164.999 207.262C169.894 205.55 169.806 206.958 164.835 212.328C160.05 217.323 154.686 219.506 151.002 217.928C149.679 217.371 151.372 216.425 156.361 214.807C166.527 211.382 165.202 210.263 154.846 213.501C150.045 214.93 145.522 215.514 144.859 214.861C143.817 213.833 146.074 212.697 152.666 210.978ZM154.336 205.153C168.27 200.961 173.452 200.28 170.543 203.202C168.103 205.652 142.396 212.433 140.975 211.032C140.028 210.098 143.98 208.391 154.336 205.153ZM136.866 199.324C138.837 197.345 166.424 189.43 167.561 190.55C169.55 192.511 167.669 193.458 152.607 198.407C144.794 201.164 138.3 203.539 138.396 203.82C138.397 204.196 145.177 202.288 153.367 199.717C169.089 194.671 170.879 194.381 170.324 196.823C170.046 197.669 162.894 200.704 154.234 203.559L138.607 208.698L137.173 204.483C136.502 202.14 136.303 199.89 136.866 199.324ZM148.511 189.513C159.432 186.085 165.651 185.493 163.024 188.132C162.555 188.604 156.343 190.884 149.283 193.262C139.399 196.592 136.385 197.169 136.377 195.48C136.369 193.791 139.19 192.277 148.511 189.513ZM147.268 185.86C149.433 185.193 152.636 184.616 154.334 184.795C156.315 185.068 154.811 185.825 149.445 187.633C145.114 188.966 141.911 189.544 142.379 188.697C142.752 187.945 145.009 186.621 147.268 185.86Z" fill="#393D3D"/>
<path d="M167.118 236.803C168.244 235.672 166.438 232.585 164.362 232.219C163.04 231.85 163.138 232.694 164.467 234.564C165.512 236.154 166.742 237.18 167.118 236.803Z" fill="#393D3D"/>
<path d="M140.044 173.51C140.607 172.944 141.164 171.065 141.438 169.281C141.619 167.592 141.426 166.655 140.957 167.126C140.394 167.691 139.742 169.477 139.562 171.166C139.287 172.95 139.575 173.981 140.044 173.51Z" fill="#393D3D"/>
<path d="M125.685 147.401C126.721 147.115 127.47 146.173 127.465 145.048C127.453 142.421 123.39 140.657 122.269 142.726C121.336 144.795 123.519 147.88 125.685 147.401ZM124.255 144.124C124.724 143.653 125.383 143.369 125.572 143.555C125.857 143.836 125.861 144.774 125.676 145.525C125.397 146.371 124.832 146.561 124.359 146.094C123.79 145.534 123.692 144.69 124.255 144.124Z" fill="#393D3D"/>
<path d="M187.139 183.704C187.893 183.513 187.796 183.044 186.757 182.58C185.717 182.116 184.958 180.994 185.142 180.055C185.421 179.209 184.848 177.711 183.996 176.87C182.954 175.843 182.864 176.876 183.725 179.405C185.256 184.276 185.161 184.183 187.139 183.704Z" fill="#393D3D"/>
<path d="M152.258 144.276C165.658 146.653 176.827 136 172.345 125.232C168.15 115.306 155.953 107.952 148.33 110.896C139.954 114.03 135.75 122.212 138.427 130.268C140.532 136.825 146.974 143.362 152.258 144.276ZM146.379 136.986C146.66 136.703 151.366 134.992 156.732 133.185C166.616 129.855 172.553 129.358 167.004 132.293C161.549 135.132 147.804 139.324 146.857 138.391C146.288 137.83 146.097 137.268 146.379 136.986ZM154.449 128.88C166.124 125.448 168.762 125.061 168.77 126.749C168.775 127.875 154.28 133.196 147.216 134.636C145.238 135.115 143.633 134.653 143.629 133.715C143.625 132.777 148.235 130.785 154.449 128.88ZM160.049 136.828C167.013 134.169 169.841 134.156 167.214 136.795C163.742 140.282 151.123 143.531 152.524 140.616C152.898 140.051 156.285 138.347 160.049 136.828ZM141.25 128.941C143.22 126.962 165.16 120.949 166.391 122.163C167.149 122.91 162.538 124.902 154.63 127.378C142.674 131.092 138.716 131.486 141.25 128.941ZM140.379 124.161C141.786 122.747 161.279 117.684 163.261 118.144C165.903 118.694 163.834 119.642 152.065 123.168C141.427 126.501 137.751 126.8 140.379 124.161ZM148.737 117.273C154.196 115.184 158.436 114.695 158.444 116.384C158.355 117.416 142.723 121.429 142.718 120.491C142.622 120.022 145.349 118.602 148.737 117.273Z" fill="#393D3D"/>
<path d="M211.793 193.44C214.905 193.707 217.639 193.601 218.014 193.224C218.484 192.753 217.068 192.478 214.994 192.487C212.92 192.497 210.844 192.131 210.37 191.665C209.897 191.198 208.671 191.297 207.542 191.678C205.096 192.815 205.096 192.815 211.793 193.44Z" fill="#393D3D"/>
<path d="M106.763 93.0768C107.61 92.7914 108.359 91.6621 108.354 90.724C108.343 88.2848 103.341 87.2761 102.786 89.5303C102.323 91.3149 104.69 93.4617 106.763 93.0768ZM105.144 89.8007C105.614 89.3295 106.272 89.045 106.462 89.2317C106.746 89.5118 106.75 90.45 106.565 91.2014C106.286 92.047 105.722 92.2373 105.248 91.7704C104.68 91.2101 104.581 90.3662 105.144 89.8007Z" fill="#393D3D"/>
<path d="M205.143 182.776C208.544 184.261 216.176 183.382 219.843 181.207C223.322 179.22 226.965 171.98 226.662 167.572C226.148 158.661 216.972 152.043 208.026 154.243C202.093 155.677 199.183 158.412 197.417 163.955C194.722 172.317 197.775 179.808 205.143 182.776ZM213.681 174.012C220.171 170.698 224.785 169.457 222.72 171.53C221.688 172.567 215.575 175.879 209.554 178.534C203.251 181.472 206.721 177.609 213.681 174.012ZM211.405 171.208C216.673 168.744 220.72 167.13 220.346 167.882C219.412 169.763 203.609 177.53 202.662 176.596C202.189 176.129 206.137 173.671 211.405 171.208ZM209.315 167.84C218.91 163.105 223.806 161.768 218.826 165.45C213.752 169.039 199.827 175.108 200.762 173.415C201.134 172.475 205.083 170.017 209.315 167.84ZM206.563 164.006C212.865 160.881 219.928 159.066 217.958 161.233C215.143 164.06 200.371 170.602 200.363 168.914C200.358 167.788 202.613 166.089 206.563 164.006ZM215.77 177.192C218.215 175.867 219.911 175.484 219.537 176.236C218.51 178.398 213.15 181.332 212.203 180.398C211.729 179.931 213.325 178.516 215.77 177.192ZM203.436 160.737C205.125 159.041 208.231 157.807 211.342 157.698C214.264 157.591 215.586 157.96 214.457 158.528C213.234 159.191 210.131 160.8 207.309 162.314C201.479 165.531 199.495 164.696 203.436 160.737Z" fill="#393D3D"/>
<path d="M125.862 104.809C126.613 104.055 120.455 97.7975 118.853 97.8988C118.287 97.9014 119.615 99.5839 121.51 101.639C123.5 103.788 125.487 105.186 125.862 104.809Z" fill="#393D3D"/>
<path d="M197.5 141.439C199.76 140.866 199.46 137.208 197.098 136.187C195.87 135.724 194.363 135.918 193.518 136.767C191.923 138.369 194.863 142.014 197.5 141.439ZM194.372 137.795C194.653 137.512 195.501 137.414 196.351 137.692C197.106 137.876 197.392 138.531 196.923 139.002C196.36 139.568 195.417 139.572 194.944 139.105C194.375 138.545 194.184 137.983 194.372 137.795Z" fill="#393D3D"/>
<path d="M178.815 117.602L182.787 120.211L179.944 117.034C178.333 115.447 176.253 114.143 175.5 114.334C174.652 114.62 174.181 114.716 174.371 114.902C174.654 114.995 176.64 116.205 178.815 117.602Z" fill="#393D3D"/>
<path d="M233.693 139.019C236.045 137.976 236.693 135.44 234.988 133.759C233.568 132.359 229.803 133.689 229.341 135.849C228.785 137.916 231.53 140.061 233.693 139.019ZM232.164 134.71C232.918 134.519 234.05 134.702 234.618 135.262C235.092 135.729 235.002 136.574 234.532 137.045C233.969 137.61 232.931 137.334 232.079 136.493C231.321 135.746 231.317 134.996 232.164 134.71Z" fill="#393D3D"/>
<path d="M53.9415 148.392C61.7733 149.763 65.5863 138.581 59.4295 132.512C55.5459 128.683 51.3038 128.797 47.4564 132.661C41.9199 138.222 45.5439 147.024 53.9415 148.392ZM47.2951 138.479C47.6573 135.287 51.6976 132.36 54.812 133.002C58.021 133.738 61.0626 138.978 59.9436 141.61C58.544 144.712 54.8746 146.324 52.5109 144.928C48.5406 142.695 47.118 140.919 47.2951 138.479Z" fill="#393D3D"/>
<path d="M129.737 46.6241C132.852 47.4539 136.608 44.2467 136.592 40.8694C136.586 39.556 135.445 37.4973 134.119 36.1901C129.667 31.8014 123.926 33.9859 123.954 39.99C123.97 43.3673 125.961 45.7035 129.737 46.6241ZM127.997 37.6258C129.687 35.9293 133.563 38.2566 133.575 40.8834C133.581 42.0092 132.831 42.9509 131.795 43.2371C129.346 43.8114 126.308 39.3224 127.997 37.6258Z" fill="#393D3D"/>
<path d="M229.789 110.892C232.897 110.221 234.024 109.277 234.956 106.834C237.75 99.5031 227.631 93.0769 222.095 98.6378C217.121 103.633 222.725 112.332 229.789 110.892ZM223.529 102.853C223.795 99.1928 227.278 98.1446 230.12 100.946C231.446 102.253 232.115 104.22 231.648 105.254C230.716 107.51 226.289 108.375 224.489 106.601C223.826 105.947 223.441 104.26 223.529 102.853Z" fill="#393D3D"/>
</g>
</svg>
