<svg width="80" height="80" viewBox="0 0 80 80" fill="none" xmlns="http://www.w3.org/2000/svg">
<path d="M21.9063 36.0656L23.9644 37.0959C24.1573 38.5779 24.8817 39.9389 26.0036 40.9259C27.126 41.9123 28.5683 42.4579 30.0625 42.4597H49.7422C51.3725 42.4579 52.9356 41.8097 54.0884 40.6568C55.2413 39.5038 55.8902 37.94 55.892 36.3099V29.2188C56.6733 28.5181 57.1201 27.519 57.1219 26.4697V22.7796C57.1225 21.6651 56.8192 20.5707 56.2454 19.6149L68.0051 5.1038L68.0057 5.10441C68.3042 4.73575 68.3646 4.22794 68.1601 3.80008C67.9557 3.37222 67.5235 3.0994 67.0493 3.0994H60.717C60.3459 3.0994 59.9949 3.26724 59.7611 3.55533L49.1649 16.6297H44.5036L53.8444 5.10377L53.845 5.10438C54.1435 4.73572 54.2039 4.22852 53.9995 3.80066C53.7956 3.37219 53.3635 3.09937 52.8892 3.09937H46.5563C46.1858 3.09998 45.8348 3.26721 45.6011 3.5553L35.0048 16.6297H32.0239C28.0889 16.6376 24.4518 18.7269 22.4621 22.1216L19.3445 27.4664V27.467C18.4876 28.9349 18.2764 30.6922 18.7616 32.3211C19.2468 33.9508 20.3853 35.3063 21.9063 36.0656ZM21.1195 31.6192C20.8644 30.777 20.923 29.8711 21.2843 29.068L28.7123 33.1189L27.6893 34.9091V34.9097C27.3646 35.4761 26.6548 35.6903 26.0707 35.3986L23.0062 33.8654C22.0913 33.4131 21.407 32.5988 21.1195 31.6192ZM24.98 22.7514L31.739 28.8964H31.7397C31.0451 29.4036 30.4659 30.0518 30.0386 30.7977L29.933 30.982L22.505 26.9311L24.5875 23.3604C24.7096 23.1511 24.8414 22.9486 24.98 22.7514ZM41.0019 19.0899L44.0065 22.9949L41.0884 26.5953L34.8342 19.0899H41.0019ZM38.8076 27.7L35.3769 27.6994C34.9838 27.7 34.5913 27.7385 34.205 27.8142L26.669 20.9629H26.6697C28.0899 19.8356 29.8289 19.1831 31.6403 19.0988L38.8076 27.7ZM53.4323 36.3102V36.3096C53.4311 37.288 53.0417 38.2255 52.3502 38.9175C51.658 39.6091 50.7205 39.9985 49.7422 39.9997H30.0625C29.382 39.9991 28.7155 39.8105 28.135 39.4546C27.5552 39.0988 27.0852 38.5898 26.7758 37.9837C28.0435 37.9312 29.1951 37.2311 29.8251 36.1295L32.175 32.0176C32.4979 31.4536 32.9642 30.9849 33.5269 30.6583C34.089 30.3318 34.7275 30.1603 35.3775 30.1597H38.2003L37.9037 30.5259C37.0736 31.5501 36.8533 32.9392 37.3251 34.1703C37.7969 35.4014 38.8901 36.287 40.192 36.4939C41.4939 36.7002 42.8073 36.1966 43.6374 35.1725L47.6999 30.1597H53.4329L53.4323 36.3102ZM54.6622 22.7799V26.47V26.4694C54.6616 26.9089 54.4272 27.3154 54.0469 27.5357C53.8602 27.6443 53.6478 27.7005 53.4323 27.6993H49.6926L54.5137 21.7502V21.7508C54.6114 22.0847 54.6614 22.4314 54.662 22.7793L54.6622 22.7799ZM61.3028 5.55955H64.4694L41.7256 33.6236C41.2953 34.1412 40.5281 34.2169 40.005 33.7927C39.4819 33.3685 39.3971 32.6025 39.8146 32.0745L61.3028 5.55955ZM45.5981 21.0302L44.1052 19.0899H47.171L45.5981 21.0302ZM47.1423 5.55955H50.3095L41.3379 16.6295H38.1707L47.1423 5.55955Z" fill="#0A0F0F"/>
<path d="M75.6703 54.7593H75.6666C75.6666 54.7465 75.6654 54.7325 75.6654 54.7221C75.6349 51.7351 71.9282 49.2979 64.6466 47.4779C58.047 45.828 49.292 44.9199 39.9951 44.9199C30.6982 44.9199 21.9435 45.8287 15.3435 47.4785C8.06195 49.2985 4.35539 51.7357 4.32429 54.7227C4.29866 55.2513 4.25349 59.0484 7.87101 62.9546C10.3076 65.5859 13.8549 67.6793 18.4143 69.1771C22.3621 70.4741 27.088 71.3243 32.5219 71.721L32.5226 73.2096C32.5238 74.188 32.9132 75.1262 33.6047 75.8176C34.2969 76.5092 35.2344 76.8986 36.2127 76.8998H43.593C44.5714 76.8986 45.5089 76.5092 46.201 75.8176C46.8925 75.1261 47.2819 74.1879 47.2825 73.2096V71.7338C52.7934 71.3432 57.5816 70.4887 61.5739 69.1771C66.1333 67.6793 69.6806 65.5859 72.1177 62.9546C75.5734 59.2229 75.687 55.5932 75.6675 54.8149C75.6681 54.7966 75.67 54.7783 75.67 54.7594L75.6703 54.7593ZM15.9406 49.8643C22.3504 48.2621 30.8929 47.3797 39.9953 47.3797C49.0976 47.3797 57.6406 48.2622 64.05 49.8643C70.8071 51.5537 73.2053 53.5576 73.2053 54.7593C73.2053 54.7813 73.2053 54.799 73.2065 54.8185C73.1528 55.6657 71.9418 56.8853 68.9298 58.112C67.8427 56.4793 64.946 55.1659 60.1566 54.1257C54.7312 52.9484 47.5388 52.2995 39.9035 52.2995C32.2681 52.2995 25.0751 52.9483 19.6504 54.1262C14.922 55.1528 12.0381 56.4456 10.9193 58.0501C7.94868 56.8154 6.79024 55.594 6.79024 54.7592H6.78536C6.78536 53.5574 9.18286 51.5535 15.9413 49.8642L15.9406 49.8643ZM66.4203 58.9982C65.6994 59.2204 64.9127 59.4401 64.0551 59.6544C57.6446 61.2572 49.1021 62.1397 40.0004 62.1397C30.8982 62.1397 22.3551 61.2571 15.9457 59.655C15.0326 59.4267 14.202 59.193 13.4432 58.9555C14.3521 58.2854 16.387 57.3521 20.1717 56.5305C25.4298 55.3886 32.4373 54.7593 39.9029 54.7593C47.3681 54.7593 54.3756 55.3885 59.6342 56.5305C63.502 57.3698 65.5412 58.3255 66.4201 58.9988L66.4203 58.9982ZM44.8234 73.2096C44.8228 73.889 44.2723 74.4389 43.5935 74.4395H36.2132C35.5345 74.4389 34.984 73.889 34.9834 73.2096V71.8669C36.5977 71.9419 38.2682 71.9792 39.9956 71.9798C41.657 71.9798 43.2665 71.945 44.8234 71.8754L44.8234 73.2096ZM70.2328 61.3682C63.8882 68.1053 50.2875 69.5195 39.9937 69.5195C21.3468 69.5195 13.2578 65.0872 9.75621 61.3682C9.22825 60.811 8.75157 60.2067 8.33225 59.5628C10.0955 60.4844 12.4338 61.3109 15.3488 62.0407C21.9473 63.6911 30.7016 64.5993 39.9988 64.5993C49.2957 64.5993 58.0504 63.6905 64.6504 62.0407C67.5563 61.3144 69.8896 60.4911 71.6512 59.5706V59.5712C71.2331 60.2115 70.7582 60.8127 70.2327 61.3681L70.2328 61.3682Z" fill="#0A0F0F"/>
</svg>
