<svg width="80" height="80" viewBox="0 0 80 80" fill="none" xmlns="http://www.w3.org/2000/svg">
<path d="M21.55 57.2203H34.3852L38.7748 63.7169H38.7742C38.8688 67.2428 40.3349 70.5931 42.8605 73.0547C45.3861 75.5169 48.773 76.8963 52.3002 76.9005H60.9103C61.2363 76.9005 61.5494 76.7705 61.7801 76.5404C62.0108 76.3096 62.1402 75.9965 62.1402 75.6706V48.4659C62.139 47.468 61.8961 46.4847 61.4322 45.6003L52.3002 26.1956V6.78937C52.2989 5.81098 51.9101 4.87343 51.218 4.1814C50.5265 3.48987 49.5883 3.10046 48.61 3.09924H21.5507C20.5723 3.10046 19.6347 3.48987 18.9427 4.1814C18.2512 4.87354 17.8618 5.81109 17.8605 6.78937V53.53C17.8618 54.5084 18.2512 55.4466 18.9427 56.138C19.6348 56.8301 20.5724 57.2189 21.5507 57.2201L21.55 57.2203ZM59.2453 46.7289C59.5297 47.2636 59.6787 47.8599 59.6793 48.4653V74.4403H52.2996C49.4047 74.4373 46.6263 73.3014 44.5585 71.2763C42.49 69.2511 41.2961 66.4972 41.2321 63.6036C41.2937 63.2832 41.226 62.9517 41.0435 62.682L33.0655 50.8729C32.5077 50.0624 32.2965 49.0626 32.4796 48.0959C32.6627 47.1292 33.2242 46.2753 34.0396 45.724C34.8551 45.1735 35.8567 44.9708 36.8217 45.1619C37.7873 45.3529 38.6362 45.9218 39.1801 46.7414C39.1874 46.7518 39.1954 46.7628 39.2027 46.7731L46.3835 56.7109C46.6148 57.0308 46.9853 57.2206 47.3796 57.2206H51.0697C51.3956 57.2206 51.7088 57.0912 51.9395 56.8605C52.1702 56.6298 52.2996 56.3166 52.2996 55.9907V31.9735L59.2185 46.6751C59.2264 46.6934 59.2356 46.7117 59.2453 46.73L59.2453 46.7289ZM41.2063 45.3471C40.3432 44.0763 39.0347 43.1766 37.5392 42.8257V5.56004H42.4592V47.0804L41.2063 45.3471ZM49.8397 6.78926V54.7596H48.008L44.9195 50.4858V5.55926H48.6097H48.6091C49.2884 5.55987 49.8383 6.1104 49.8395 6.78912L49.8397 6.78926ZM20.3194 6.78926C20.32 6.11054 20.8705 5.56001 21.5492 5.5594H35.0795V42.7469C33.022 43.1003 31.2844 44.4736 30.4653 46.3938C29.6456 48.3139 29.8574 50.5185 31.0262 52.2483L32.7219 54.7586H21.5494C20.8706 54.758 20.3201 54.2081 20.3195 53.5288L20.3194 6.78926Z" fill="#0A0F0F"/>
<path d="M26.4703 33.8501H31.3903C31.7163 33.8501 32.0294 33.7207 32.2601 33.4899C32.4908 33.2592 32.6202 32.9467 32.6202 32.6202V9.24988C32.6202 8.92335 32.4908 8.61085 32.2601 8.38013C32.0294 8.14941 31.7163 8.01941 31.3903 8.01941H26.4703C25.791 8.01941 25.2405 8.57055 25.2405 9.24988V32.6202C25.2405 32.9467 25.3699 33.2592 25.6006 33.4899C25.8313 33.7207 26.1444 33.8501 26.4703 33.8501ZM27.7002 10.4797H30.1599L30.1605 31.3907H27.7002L27.7002 10.4797Z" fill="#0A0F0F"/>
</svg>
