<svg width="270" height="161" viewBox="0 0 270 161" fill="none" xmlns="http://www.w3.org/2000/svg">
<path d="M153.729 2.40318C150.846 3.96526 147.842 4.56606 146.159 4.20557C144.477 3.84509 141.233 4.44589 138.349 5.8878C135.585 7.08939 132.101 8.5313 130.539 9.01193C124.531 10.8143 117.081 19.586 117.081 24.873C117.081 26.0746 117.802 28.3576 118.763 30.0398C120.085 32.5631 119.965 33.6446 118.523 36.5284C117.682 38.451 117.081 41.2146 117.441 42.6565C117.922 45.1799 117.441 45.5404 112.034 45.9008C108.309 46.1411 106.267 45.7807 106.267 44.9396C106.267 44.2186 105.185 42.1759 103.743 40.3735C101.821 37.9703 100.259 37.2494 96.2933 37.2494C93.5297 37.2494 90.1652 36.4082 88.9636 35.447C85.8395 33.0438 76.9477 33.1639 75.0251 35.447C74.184 36.4082 71.7808 37.2494 69.618 37.2494C65.2922 37.2494 58.8036 41.6953 57.602 45.6605C57.2416 46.9823 54.8384 48.5443 51.8344 49.5056C47.749 50.7072 46.5474 51.7886 45.7063 54.7926C44.8652 57.5563 43.3031 59.1183 39.9386 60.6804C37.4153 61.7618 35.3726 63.2038 35.3726 63.8046C35.3726 64.4053 33.3299 64.5255 30.5662 64.165C25.3994 63.3239 19.7519 65.8473 19.7519 69.0916C19.7519 70.0528 18.6705 70.8939 17.3487 70.8939C13.8641 70.8939 10.1391 75.2197 10.1391 79.1849C10.1391 81.9486 9.29803 83.2703 6.53437 84.9526C2.44896 87.3558 1.48768 89.5186 0.886886 97.329C-0.314706 112.349 -0.194547 114.271 2.80943 116.675C4.3715 117.876 6.89485 118.958 8.57708 118.958C12.6625 118.958 18.7906 125.687 19.1511 130.613C19.6317 138.544 24.9187 142.749 33.0896 141.548C35.9734 141.067 37.5354 141.668 39.8185 143.951C42.2217 146.354 43.4233 146.714 47.1482 145.993C49.5514 145.633 54.2376 145.272 57.4819 145.393C61.9278 145.513 63.9705 144.912 66.0132 142.989L68.7769 140.466L74.5445 143.35C77.7888 145.032 85.2387 149.718 91.2466 153.684C105.786 163.537 107.588 163.537 116.36 153.083C120.085 148.757 123.089 144.431 123.089 143.35C123.089 142.028 123.69 141.788 125.252 142.389C130.178 144.552 133.903 144.311 138.589 141.668C141.353 140.226 143.516 138.544 143.516 138.063C143.516 136.261 154.09 133.136 165.625 131.695C172.354 130.733 178.122 130.253 178.723 130.613C179.203 130.853 179.564 132.175 179.564 133.377C179.564 137.102 184.25 140.586 189.417 140.586C192.781 140.586 193.983 141.067 193.983 142.509C193.983 145.873 200.712 151.401 204.677 151.401C207.08 151.401 208.762 152.242 209.603 153.684C210.204 155.005 213.208 156.928 216.092 158.009C223.662 160.893 231.232 159.692 237 154.525C239.403 152.362 243.368 150.199 245.771 149.718C252.26 148.517 259.349 142.869 261.753 137.102C265.117 128.57 263.675 117.396 258.508 113.19C256.826 111.748 257.066 111.027 260.791 106.221C263.915 101.895 264.877 99.612 264.877 95.5266C264.877 92.4024 264.156 89.8791 263.074 88.9178C260.551 86.8751 260.791 86.034 265.478 79.1849C268.842 74.2584 269.683 71.8552 269.683 67.2892C269.683 59.3587 264.757 52.7499 256.706 49.7459C256.586 49.7459 257.307 47.5831 258.388 45.0597C259.59 42.0557 259.95 39.0517 259.47 35.8074C257.907 26.9157 246.492 17.6634 239.643 19.8263C235.918 21.0279 236.759 22.8302 241.205 22.8302C246.492 22.8302 252.02 26.5552 254.423 31.6019C257.187 37.2494 256.946 40.2533 253.462 47.8234C251.779 51.4281 250.458 55.0329 250.458 55.9942C250.458 58.5175 252.981 58.0369 253.702 55.2732C255.624 48.0637 267.28 57.9167 267.28 66.6884C267.28 70.5335 264.396 76.3011 259.95 81.468C255.865 86.034 255.624 87.4759 258.628 88.5574C264.757 90.8404 263.315 100.093 255.504 108.384L252.5 111.628L256.345 115.954C259.59 119.679 260.07 121.12 260.07 127.128C260.07 138.063 254.062 145.272 243.368 147.195C240.965 147.676 237.36 149.598 235.197 151.641C232.073 154.645 230.031 155.486 224.744 155.967C218.375 156.447 217.894 156.327 213.569 151.881C209.964 148.276 208.162 147.435 205.278 147.676C200.832 148.036 197.708 145.393 196.746 140.466C196.146 137.222 195.785 136.982 191.459 137.702C187.855 138.303 186.172 137.943 184.37 136.381C181.486 133.737 181.126 128.57 183.889 128.57C184.851 128.57 185.331 127.97 184.851 127.249C184.49 126.528 182.928 126.287 181.366 126.648C179.804 127.008 173.075 127.97 166.226 128.691C159.377 129.411 151.807 130.733 149.404 131.574C146.4 132.656 144.717 132.776 144.477 131.935C144.237 131.214 142.314 132.175 140.151 133.978C137.989 135.78 136.306 136.621 136.306 136.02C136.306 135.419 138.229 133.377 140.632 131.574C142.915 129.772 144.597 127.97 144.237 127.609C143.756 127.249 141.834 128.45 139.911 130.373C137.989 132.295 136.066 133.497 135.585 133.136C135.225 132.776 137.147 130.613 139.791 128.45C145.198 124.245 146.52 121.361 141.714 124.485C137.388 127.369 137.989 125.206 143.155 119.919C145.559 117.396 147.241 115.113 146.88 114.752C146.64 114.392 143.516 117.396 140.031 121.361C128.616 134.458 131.139 128.811 143.155 114.392C149.644 106.701 155.772 99.2515 156.733 97.9298C161.299 91.8016 153.97 99.3717 142.194 112.95C131.86 124.845 129.097 127.369 126.453 127.369C124.531 127.369 123.089 127.128 123.089 126.768C123.089 126.407 124.411 123.524 125.973 120.4C128.856 114.512 133.182 101.895 134.504 95.2863C135.465 90.6001 133.062 88.6775 131.981 93.3637C129.698 103.938 120.445 126.167 118.403 126.167C117.201 126.167 116.12 120.039 115.038 107.542C114.317 98.5306 114.317 98.5306 117.321 98.5306C121.286 98.5306 123.81 95.4064 124.771 89.1581C125.492 84.4719 125.372 84.1115 123.449 85.1929C122.007 86.034 121.286 87.8364 121.286 90.9605C121.286 95.0459 120.926 95.5266 118.042 95.8871L114.678 96.2475V86.6348C114.678 81.2276 114.197 76.9019 113.596 76.9019C112.395 76.9019 111.073 95.1661 111.794 102.616C112.755 112.469 110.232 107.543 108.67 96.4879C107.228 86.755 107.588 73.8979 109.391 67.5295C110.232 64.4053 108.189 63.9247 106.867 66.9287C105.185 71.1343 104.704 92.6428 106.267 101.655C106.987 106.701 107.468 111.027 107.108 111.267C106.867 111.628 104.704 108.143 102.301 103.577C97.4949 94.5653 94.2506 82.9099 94.2506 74.739C94.2506 71.1343 93.77 69.8125 92.9289 70.4133C90.8862 71.6149 92.3281 86.9953 95.332 95.5266C96.774 99.4918 100.859 107.663 104.584 113.791C108.309 119.919 111.073 125.446 110.833 126.167C109.751 129.652 90.6458 96.2475 90.6458 90.8404C90.6458 89.8791 90.045 88.6775 89.3241 88.1969C85.7193 86.034 95.5724 108.504 103.383 120.279C107.108 125.807 110.352 130.733 110.592 131.214C110.953 131.815 110.712 132.175 110.112 132.175C109.511 132.175 106.627 128.931 103.743 124.966C100.859 121 98.336 117.756 98.0957 117.756C97.2546 117.756 100.98 123.644 105.305 129.051C110.232 135.299 110.472 138.664 105.546 132.896C103.863 131.094 102.301 129.772 101.941 130.132C101.58 130.493 102.782 132.175 104.584 133.857C106.507 135.54 107.588 137.222 107.108 137.702C106.627 138.183 105.185 137.582 103.863 136.381C100.859 133.737 100.739 135.299 103.623 138.544C105.546 140.947 105.546 140.947 103.263 140.106C101.34 139.385 101.1 139.505 102.421 140.706C104.464 142.869 104.224 144.552 101.941 143.71C100.138 142.989 100.138 143.23 101.58 145.032C103.142 146.835 103.022 146.955 100.859 146.114C98.9368 145.393 98.6965 145.513 100.018 146.714C102.061 148.877 101.821 150.56 99.5376 149.718C97.9755 149.118 97.8554 149.358 98.8167 150.56C101.58 153.924 94.7312 152.122 88.2427 147.796C78.8702 141.427 70.0986 137.222 62.1681 135.179C54.2376 133.136 46.9079 132.776 47.9893 134.578C48.3498 135.179 50.5126 135.78 52.6755 135.78C56.04 135.78 63.8503 137.702 65.2922 138.904C65.5326 139.144 65.0519 140.106 64.2108 141.187C62.2883 143.47 58.2028 143.47 55.0787 141.307C53.036 139.745 52.5554 139.865 50.1522 142.028C46.7877 145.152 43.7837 144.431 40.7798 139.745C38.1362 135.419 36.454 134.939 34.171 137.582C32.1283 140.106 29.0041 139.865 25.1591 136.741C22.0349 134.338 21.9148 133.857 22.6357 126.528C23.3567 119.558 22.1551 116.314 20.4728 120.76C19.1511 124.365 16.1471 122.803 16.1471 118.477V114.392L11.9415 115.593C4.25134 117.996 0.0457717 111.267 4.25134 103.097C6.05373 99.612 6.41421 97.9298 5.45294 96.9685C1.60784 93.1234 5.93357 86.5146 12.1819 86.5146C17.1084 86.5146 17.8293 85.313 14.7052 82.0687C10.9803 78.1035 12.9028 75.2197 19.5116 74.739C23.9575 74.3786 24.3179 74.1382 24.1978 71.1343C23.9575 68.6109 24.5583 67.7698 26.7211 67.5295C28.2832 67.2892 30.9267 68.0101 32.4888 69.0916C34.171 70.173 35.7331 70.8939 35.8532 70.6536C35.9734 70.4133 36.6943 68.8512 37.4153 67.0489C38.3766 65.0061 40.0588 63.6844 42.7023 63.0836C46.1869 62.3626 47.028 62.7231 49.6715 65.9674C51.3538 68.0101 53.1562 69.6924 53.7569 69.6924C55.6795 69.6924 54.3577 65.9674 50.8731 62.0022C45.1055 55.3934 48.8304 49.9862 57.602 52.1491C60.2455 52.8701 60.606 52.5096 60.606 49.5056C60.606 45.5404 64.9318 40.8541 68.6567 40.8541C70.9397 40.8541 71.18 41.3348 70.5792 45.6605C70.0986 48.6645 70.3389 50.4669 71.18 50.4669C71.901 50.4669 72.6219 48.6645 72.8623 46.5016C73.1026 43.6178 73.8235 42.5364 75.8662 42.2961C78.0291 41.9356 78.7501 42.7767 79.9517 46.8621C81.2734 51.0677 81.8742 51.6685 83.9169 51.0677C85.3588 50.587 88.1225 50.1064 90.045 49.9862C93.4095 49.8661 93.6498 50.1064 94.0103 55.0329C94.2506 58.3974 94.8514 60.0796 95.8127 59.7191C98.0957 58.9982 98.2159 52.9902 96.053 49.6258C94.3708 47.1024 93.2893 46.7419 88.7233 47.1024C83.9169 47.4629 83.3161 47.2226 82.1145 44.0984C81.3936 42.2961 79.471 40.4937 77.7888 40.1332C75.5058 39.5324 75.2654 39.0517 76.3469 37.73C78.3896 35.3268 84.3976 35.6873 88.0023 38.451C90.2854 40.2533 92.0877 40.734 94.6111 40.1332C99.8981 39.0518 102.662 42.2961 102.662 49.5056C102.662 55.9942 104.224 57.0756 106.146 51.6685C107.228 48.4242 107.829 48.0637 112.154 48.0637C117.321 48.0637 117.922 49.025 115.759 53.1104C113.957 56.4748 116.48 62.1223 120.926 64.4053C124.891 66.4481 131.62 66.2077 132.341 64.0449C132.702 63.0836 131.38 62.8433 128.136 63.3239C124.29 63.8046 122.849 63.4441 120.806 61.4014C117.682 58.2772 117.682 56.4748 120.686 52.5096C123.329 49.2653 123.81 46.2613 121.887 45.0597C120.085 43.9783 120.445 38.9316 122.488 37.2494C123.449 36.4082 124.29 34.8462 124.29 33.6446C124.29 32.443 123.449 30.8809 122.488 30.0398C119.484 27.5165 120.205 21.2682 124.05 17.7836C127.054 14.8997 131.74 12.0159 133.182 12.0159C133.543 12.0159 133.903 13.0974 133.903 14.4191C133.903 15.7409 134.384 16.8223 134.985 16.8223C135.585 16.8223 136.066 15.3804 136.066 13.578C136.066 9.1321 139.43 6.84908 145.198 7.57002C148.683 8.05066 150.725 7.57002 153.008 5.8878C156.613 3.24429 164.183 2.52335 166.707 4.6862C167.668 5.40717 169.11 7.69019 169.951 9.61273C171.273 12.9772 171.633 13.0974 177.281 12.3764C180.765 12.0159 184.49 12.2562 186.773 13.2175C190.618 14.7796 193.983 19.8263 193.983 23.7915C193.983 26.435 198.309 30.6406 202.394 31.8422C205.037 32.6833 205.158 32.5631 203.716 30.7608C202.875 29.6793 201.072 28.8382 199.871 28.8382C198.068 28.8382 197.588 27.9971 197.588 24.7528C197.588 21.3883 198.549 19.8263 202.634 16.3416C205.398 13.9385 208.883 12.0159 210.324 12.0159C212.848 12.0159 215.251 10.0934 214.17 9.01193C212.968 7.69019 204.316 11.295 200.592 14.5393L196.386 18.2642L193.382 14.6594C189.657 10.2135 183.289 7.93051 177.521 8.77162C174.036 9.37242 173.195 9.01193 172.234 6.72891C170.672 3.36446 165.145 0 161.299 0C159.737 0 156.253 1.08144 153.729 2.40318ZM138.71 127.369C138.71 127.97 137.508 129.171 136.066 129.892C133.302 131.334 133.302 131.334 135.585 128.691C138.109 125.927 138.71 125.566 138.71 127.369ZM118.282 134.819C119.604 136.982 120.686 139.865 120.686 141.187C120.686 144.311 108.309 158.009 106.387 156.928C103.503 155.126 105.065 148.276 109.871 140.706C112.515 136.621 114.678 132.776 114.678 132.175C114.678 130.012 115.879 130.974 118.282 134.819ZM130.899 134.578C133.302 139.144 133.182 140.586 130.419 140.586C127.895 140.586 123.089 135.299 123.089 132.656C123.089 131.695 124.411 130.974 126.093 130.974C128.136 130.974 129.577 132.055 130.899 134.578Z" fill="#393D3D" fill-opacity="0.2"/>
<path d="M220.658 11.5349C221.019 13.5776 223.182 14.0583 223.782 12.2559C223.902 11.6551 223.302 10.814 222.22 10.3333C220.898 9.85271 220.418 10.2132 220.658 11.5349Z" fill="#393D3D" fill-opacity="0.2"/>
<path d="M225.946 16.582C225.586 17.3029 225.826 18.2642 226.547 18.6247C228.349 19.8263 229.551 18.2642 227.989 16.7021C227.148 15.861 226.427 15.861 225.946 16.582Z" fill="#393D3D" fill-opacity="0.2"/>
<path d="M211.527 17.7832C211.286 18.2639 211.407 19.4655 212.127 20.4267C212.969 21.8686 213.209 21.6283 213.209 19.4655C213.209 16.7018 212.608 16.101 211.527 17.7832Z" fill="#393D3D" fill-opacity="0.2"/>
<path d="M215.732 21.1479C215.732 22.4697 216.093 22.8302 216.453 21.8689C216.814 21.0278 216.694 19.9463 216.333 19.5859C215.973 19.1052 215.612 19.8262 215.732 21.1479Z" fill="#393D3D" fill-opacity="0.2"/>
<path d="M210.686 39.2916C211.406 40.7335 212.007 44.0979 212.007 46.7414C212.007 50.3462 212.488 51.668 213.81 51.668C216.934 51.668 216.093 43.8576 212.488 40.0125C210.085 37.369 209.724 37.2489 210.686 39.2916Z" fill="#393D3D" fill-opacity="0.2"/>
<path d="M132.702 46.5016C132.702 48.0636 135.947 52.3894 136.668 51.6684C137.028 51.3079 136.307 49.7459 134.985 48.1838C133.784 46.6217 132.702 45.9008 132.702 46.5016Z" fill="#393D3D" fill-opacity="0.2"/>
<path d="M191.581 48.0637C191.581 48.6645 192.182 49.2653 192.903 49.2653C193.504 49.2653 193.744 48.6645 193.384 48.0637C193.023 47.3427 192.422 46.8621 192.062 46.8621C191.822 46.8621 191.581 47.3427 191.581 48.0637Z" fill="#393D3D" fill-opacity="0.2"/>
<path d="M130.3 49.5054C130.3 50.5869 130.9 51.9086 131.501 52.2691C133.063 53.2304 133.063 51.6683 131.501 49.2651C130.54 47.703 130.3 47.703 130.3 49.5054Z" fill="#393D3D" fill-opacity="0.2"/>
<path d="M190.98 51.6682C191.341 52.269 191.941 52.8698 192.302 52.8698C192.542 52.8698 192.783 52.269 192.783 51.6682C192.783 50.9472 192.182 50.4666 191.461 50.4666C190.86 50.4666 190.62 50.9472 190.98 51.6682Z" fill="#393D3D" fill-opacity="0.2"/>
<path d="M127.896 53.9515C127.896 54.5523 128.497 55.5136 129.098 55.8741C129.819 56.2346 130.299 56.1144 130.299 55.3934C130.299 54.7926 129.819 53.8314 129.098 53.4709C128.497 53.1104 127.896 53.2306 127.896 53.9515Z" fill="#393D3D" fill-opacity="0.2"/>
<path d="M188.576 54.0712C188.936 54.672 189.897 55.2728 190.498 55.2728C191.219 55.2728 191.339 54.672 190.979 54.0712C190.618 53.3503 189.657 52.8696 189.056 52.8696C188.335 52.8696 188.215 53.3503 188.576 54.0712Z" fill="#393D3D" fill-opacity="0.2"/>
<path d="M123.81 55.9941C123.329 57.0756 123.329 58.2772 123.69 58.6376C124.05 58.9981 124.29 58.6376 124.29 57.9167C124.29 57.0756 125.131 56.8352 126.453 57.3159C128.256 58.0368 128.256 57.9167 126.814 56.1143C124.771 53.5909 124.771 53.5909 123.81 55.9941Z" fill="#393D3D" fill-opacity="0.2"/>
<path d="M185.693 55.6336C185.934 55.7538 187.255 56.7151 188.577 57.6764C190.86 59.3586 190.86 59.3586 189.298 57.3159C188.457 56.2344 187.135 55.2732 186.414 55.2732C185.693 55.2732 185.453 55.3933 185.693 55.6336Z" fill="#393D3D" fill-opacity="0.2"/>
<path d="M184.371 59.4787C184.371 59.7191 185.573 60.6803 187.135 61.4013C189.538 62.723 189.658 62.723 188.096 60.9206C186.534 58.9981 184.371 58.157 184.371 59.4787Z" fill="#393D3D" fill-opacity="0.2"/>
<path d="M257.187 63.0834C260.071 75.5799 260.071 75.4598 259.47 69.3316C259.11 66.0873 258.269 62.6027 257.548 61.5213C256.587 59.9592 256.467 60.3197 257.187 63.0834Z" fill="#393D3D" fill-opacity="0.2"/>
<path d="M182.57 62.7229C183.891 63.4438 185.453 64.7656 185.934 65.7269C186.415 66.568 187.496 67.2889 188.337 67.2889C189.178 67.2889 188.217 65.847 186.415 64.285C184.612 62.6027 182.449 61.281 181.608 61.281C180.767 61.281 181.248 62.0019 182.57 62.7229Z" fill="#393D3D" fill-opacity="0.2"/>
<path d="M253.703 65.4866C254.064 68.1301 254.905 70.7736 255.506 71.4945C256.347 72.3356 256.467 71.2542 255.866 68.4905C254.544 62.2423 252.862 59.8391 253.703 65.4866Z" fill="#393D3D" fill-opacity="0.2"/>
<path d="M250.218 66.6881C251.3 68.9711 252.381 70.5332 252.621 70.2929C253.462 69.5719 250.338 62.4825 249.257 62.4825C248.776 62.4825 249.257 64.4051 250.218 66.6881Z" fill="#393D3D" fill-opacity="0.2"/>
<path d="M246.492 65.8473C246.853 67.2892 247.574 68.8513 248.175 69.2118C249.857 70.1731 249.496 68.0102 247.454 65.3667C245.892 63.2038 245.771 63.2038 246.492 65.8473Z" fill="#393D3D" fill-opacity="0.2"/>
<path d="M134.384 66.9287C134.024 68.1302 133.303 70.2931 132.702 71.6149C131.621 74.2584 133.303 83.7509 135.225 85.7936C135.706 86.3944 136.187 81.9486 136.187 75.8204C136.187 65.1263 135.706 62.7231 134.384 66.9287Z" fill="#393D3D" fill-opacity="0.2"/>
<path d="M179.564 65.3666C179.564 65.6069 180.886 66.6884 182.568 67.7698C184.25 68.8512 185.572 69.3319 185.572 68.7311C185.572 68.1303 184.25 67.0488 182.568 66.3279C180.886 65.6069 179.564 65.1263 179.564 65.3666Z" fill="#393D3D" fill-opacity="0.2"/>
<path d="M240.365 67.8896C240.846 68.8509 241.567 69.692 242.167 69.692C242.648 69.692 242.888 68.8509 242.528 67.8896C242.047 66.9284 241.326 66.0872 240.726 66.0872C240.245 66.0872 240.005 66.9284 240.365 67.8896Z" fill="#393D3D" fill-opacity="0.2"/>
<path d="M64.211 70.2934C64.211 76.0611 62.1683 78.3441 57.2418 77.8635C53.5169 77.6231 52.7959 77.8635 53.1564 79.6659C53.8773 83.7513 50.1524 87.7165 45.4662 87.7165C41.6211 87.7165 41.3808 87.9568 42.5824 90.1197C43.3033 91.5616 43.784 94.8059 43.5437 97.5696C42.9429 105.019 45.9468 104.899 46.9081 97.4494C47.9895 89.1584 49.5516 89.2786 57.4821 98.1704L62.0482 103.337L58.3232 102.015C50.9935 99.4921 53.1564 102.136 61.2071 105.74C65.6529 107.783 74.4246 112.95 80.5527 117.156C91.6073 124.846 94.2508 126.047 94.2508 123.884C94.2508 122.322 88.6034 118.117 78.6301 112.109C74.3044 109.465 66.6142 103.217 61.5675 98.2905C52.5556 89.5189 52.4354 89.3987 54.4781 86.6351L56.5208 83.8714L58.5636 86.9956C60.6063 90.1197 77.5487 105.019 81.3938 107.062C82.9559 107.903 83.4365 107.783 83.4365 106.461C83.4365 105.5 81.1535 103.097 78.3898 101.174C71.3004 96.2478 58.2031 83.7513 58.2031 81.9489C58.2031 81.2279 59.1643 80.507 60.4861 80.507C61.6877 80.507 63.3699 79.786 64.0909 78.8247C66.1336 76.3014 67.0949 68.9717 65.5328 68.0104C64.6917 67.4096 64.211 68.2507 64.211 70.2934Z" fill="#393D3D" fill-opacity="0.2"/>
<path d="M75.0267 67.6491C75.0267 67.8895 76.9493 71.3741 79.2323 75.2192C81.5153 79.0643 83.4379 82.5489 83.4379 83.1497C83.4379 83.6303 84.0387 84.111 84.6395 84.111C86.8023 84.111 85.9612 81.2271 81.8758 74.6184C78.6315 69.0911 75.0267 65.4863 75.0267 67.6491Z" fill="#393D3D" fill-opacity="0.2"/>
<path d="M237.241 68.7313C237.241 69.8127 237.842 71.1344 238.443 71.4949C240.005 72.4562 240.005 70.8941 238.443 68.4909C237.481 66.9289 237.241 66.9289 237.241 68.7313Z" fill="#393D3D" fill-opacity="0.2"/>
<path d="M69.0179 70.8937C69.0179 72.6961 79.8323 95.6465 85.5999 106.221C88.9644 112.228 91.2474 115.232 91.9684 114.512C92.8095 113.67 90.5264 108.624 85.9604 100.453C81.9951 93.2433 77.0686 83.5104 74.9057 78.5839C71.4211 70.6534 69.0179 67.5293 69.0179 70.8937Z" fill="#393D3D" fill-opacity="0.2"/>
<path d="M180.886 71.7348C181.727 73.1767 182.688 74.138 183.049 73.7775C183.409 73.5372 182.688 72.3356 181.487 71.134C179.444 69.2114 179.324 69.2114 180.886 71.7348Z" fill="#393D3D" fill-opacity="0.2"/>
<path d="M233.636 70.5332C233.636 71.0138 234.237 72.3355 234.837 73.2968C235.799 74.8589 236.039 74.8589 236.039 73.0565C236.039 71.9751 235.558 70.6533 234.837 70.2928C234.237 69.9324 233.636 69.9324 233.636 70.5332Z" fill="#393D3D" fill-opacity="0.2"/>
<path d="M144.237 77.0222C143.276 83.2705 144.237 84.5922 146.04 79.5456C146.761 77.3827 147.842 75.7005 148.443 75.7005C149.885 75.7005 149.765 76.1811 148.203 79.7859C147.361 81.4681 147.241 83.7511 147.602 84.9527C148.323 86.7551 148.923 86.2745 150.846 82.4294C153.85 76.3013 153.73 75.2198 150.125 73.5376C145.559 71.3747 145.078 71.6151 144.237 77.0222Z" fill="#393D3D" fill-opacity="0.2"/>
<path d="M163.463 79.4251C163.944 80.3863 161.541 83.0298 146.521 98.6505C141.955 103.457 141.474 104.538 143.877 104.538C145.8 104.538 151.928 98.2901 151.928 96.3675C151.928 95.6465 152.889 94.445 154.091 93.8442C157.335 92.1619 166.587 78.4638 164.545 78.4638C163.583 78.4638 163.103 78.9444 163.463 79.4251Z" fill="#393D3D" fill-opacity="0.2"/>
<path d="M172.956 90.1192C171.754 91.4409 168.51 93.8441 165.746 95.5264C160.099 98.7707 154.331 104.899 154.331 107.662C154.331 110.787 160.099 110.907 169.592 107.662C175.599 105.62 179.204 104.899 180.045 105.74C181.487 107.182 175.239 109.825 164.064 112.589C155.293 114.632 153.851 116.194 155.653 121.12C156.975 124.605 161.421 126.167 169.111 126.047C180.166 125.806 182.569 124.845 182.569 120.64C182.569 118.717 183.65 115.112 184.972 112.589C187.255 108.263 187.255 108.263 184.972 105.62C183.65 104.298 182.689 102.015 182.929 100.693C183.29 98.6505 182.809 98.4102 178.844 98.7707C173.316 99.2513 172.595 97.4489 176.561 93.724C178.844 91.5611 179.204 90.5998 178.243 89.2781C176.441 87.1152 175.479 87.2354 172.956 90.1192ZM172.475 100.934C173.076 100.934 173.557 101.414 173.557 102.135C173.557 103.217 162.742 106.941 159.498 106.941C156.734 106.941 159.378 103.217 165.025 99.1311L170.553 95.0457L170.913 98.0497C171.154 99.6118 171.875 100.934 172.475 100.934ZM183.29 110.907C182.569 111.868 181.247 114.752 180.286 117.275C178.964 121.361 178.123 122.082 174.037 122.802C165.746 124.244 161.661 123.884 159.138 121.361C155.653 117.876 157.215 115.713 163.944 114.992C167.188 114.632 172.956 112.949 176.801 111.387C184.251 108.383 185.573 108.263 183.29 110.907Z" fill="#393D3D" fill-opacity="0.2"/>
<path d="M138.23 96.127C136.187 101.895 136.307 105.139 138.59 102.616C140.513 100.573 142.555 92.2819 141.474 91.2004C140.873 90.5996 139.551 92.5222 138.23 96.127Z" fill="#393D3D" fill-opacity="0.2"/>
<path d="M215.251 99.3716C213.689 100.814 214.41 101.895 216.573 101.294C219.577 100.573 221.38 103.097 221.86 108.744C222.221 113.19 222.461 113.55 226.787 114.271C229.19 114.632 231.593 115.233 231.954 115.713C232.795 116.554 230.391 121.241 227.387 124.485C225.585 126.528 225.465 127.369 226.546 128.09C229.671 130.012 236.039 119.078 234.357 114.752C233.636 112.829 232.915 112.469 227.387 111.267C224.624 110.667 224.023 109.825 224.023 106.942C224.023 101.655 218.015 96.4878 215.251 99.3716Z" fill="#393D3D" fill-opacity="0.2"/>
<path d="M17.3496 103.217C17.3496 103.938 16.9891 104.418 16.5085 104.298C14.1053 103.697 10.2602 105.98 10.9812 107.662C11.8223 110.066 13.144 109.825 16.7488 106.461C18.6714 104.658 19.3923 103.217 18.5512 102.736C17.9504 102.375 17.3496 102.616 17.3496 103.217Z" fill="#393D3D" fill-opacity="0.2"/>
<path d="M5.45331 108.263C5.33315 112.229 7.73633 114.512 9.65888 112.469C10.7403 111.387 10.6202 110.186 9.2984 108.023L7.61617 105.139L8.33713 108.744C9.17824 112.709 7.13554 111.628 6.17426 107.542C5.69363 105.62 5.57347 105.86 5.45331 108.263Z" fill="#393D3D" fill-opacity="0.2"/>
<path d="M42.9443 108.504C43.5451 110.426 85.2404 130.973 88.6048 130.973C91.6088 130.973 88.2443 128.21 80.7945 124.485C64.3327 116.314 42.4637 107.062 42.9443 108.504Z" fill="#393D3D" fill-opacity="0.2"/>
<path d="M38.9785 119.078C38.2575 120.399 37.7769 122.682 38.0172 124.124C38.2575 126.167 39.339 126.888 42.7034 127.128C45.4671 127.369 47.5098 126.888 48.5912 125.686C50.5138 123.283 53.8782 123.163 55.6806 125.446C56.5217 126.407 58.204 126.888 59.4056 126.527C60.7273 126.167 62.6499 126.527 63.6111 127.369C65.053 128.57 65.4135 128.57 65.4135 127.008C65.4135 124.124 62.6499 122.682 55.6806 121.841C50.8743 121.361 48.2308 121.601 45.5873 123.043C40.7809 125.566 39.9398 125.446 40.4204 122.202C40.6607 120.519 41.7422 119.438 43.5445 119.198C47.1493 118.597 46.909 116.554 43.1841 116.554C41.5018 116.554 39.6995 117.516 38.9785 119.078Z" fill="#393D3D" fill-opacity="0.2"/>
<path d="M34.7726 126.167C35.6138 128.81 35.4936 128.931 33.6912 127.489C30.9275 125.086 31.288 127.729 34.1718 130.373C36.575 132.535 36.6952 132.535 35.8541 130.252C35.013 128.21 35.1331 128.21 36.9355 129.652C39.8193 131.935 39.4588 130.132 36.4549 126.407L33.9315 123.163L34.7726 126.167Z" fill="#393D3D" fill-opacity="0.2"/>
<path d="M29.9667 129.772C30.8078 132.415 30.6876 132.535 28.8852 131.093C27.203 129.651 26.9627 129.651 27.6837 131.454C28.0441 132.535 27.8038 133.376 26.9627 133.376C26.2417 133.376 26.0014 133.857 26.3619 134.578C26.7224 135.179 27.6837 135.78 28.2845 135.78C29.0054 135.78 29.1256 135.179 28.6449 134.338C28.0441 133.376 28.4046 133.256 29.8465 133.737C30.928 134.217 31.6489 134.097 31.1683 133.497C30.8078 132.896 31.2884 132.175 32.0094 131.814C33.211 131.454 32.9707 130.613 31.2884 129.051C29.1256 126.768 29.1256 126.888 29.9667 129.772Z" fill="#393D3D" fill-opacity="0.2"/>
</svg>
