<svg width="80" height="80" viewBox="0 0 80 80" fill="none" xmlns="http://www.w3.org/2000/svg">
<path d="M58.45 62.1407C58.45 63.4456 58.9681 64.6968 59.891 65.6198C60.8139 66.5427 62.0651 67.0608 63.3701 67.0608C64.675 67.0608 65.9262 66.5426 66.8491 65.6198C67.7721 64.6969 68.2902 63.4457 68.2902 62.1407C68.2902 60.8358 67.772 59.5846 66.8491 58.6616C65.9263 57.7387 64.6751 57.2206 63.3701 57.2206C62.0651 57.2206 60.814 57.7388 59.891 58.6616C58.968 59.5845 58.45 60.8357 58.45 62.1407ZM63.3699 59.6804C64.0224 59.6804 64.648 59.9398 65.1095 60.4012C65.5709 60.8626 65.8303 61.4882 65.8303 62.1407C65.8303 62.7932 65.5709 63.4188 65.1095 63.8803C64.6481 64.3417 64.0224 64.6005 63.3699 64.6005C62.7175 64.6005 62.0919 64.3417 61.6304 63.8803C61.169 63.4188 60.9102 62.7932 60.9102 62.1407C60.9102 61.4883 61.169 60.8627 61.6304 60.4012C62.0919 59.9398 62.7174 59.6804 63.3699 59.6804Z" fill="white"/>
<path d="M68.289 46.6032V37.5394H69.5189C69.8454 37.5394 70.1579 37.41 70.3886 37.1793C70.6194 36.9486 70.7494 36.6355 70.7494 36.3095V28.9292C70.7494 28.6033 70.6194 28.2902 70.3886 28.0595C70.1579 27.8294 69.8454 27.6994 69.5189 27.6994H64.1295L62.1392 23.7192V19.0897C62.1392 18.7632 62.0098 18.4507 61.7791 18.2199C61.5484 17.9892 61.2353 17.8592 60.9093 17.8592H53.529C52.8497 17.8592 52.2992 18.4104 52.2992 19.0897V24.0097C52.2992 24.3356 52.4286 24.6487 52.6593 24.8794C52.89 25.1096 53.2031 25.2396 53.529 25.2396H60.1489L61.3787 27.6992H57.2192C56.5399 27.6992 55.9893 28.2498 55.9893 28.9291V31.3888L51.0693 31.3894C50.39 31.3894 49.8395 31.9399 49.8395 32.6193V37.5393H52.2992V33.8491H55.9893V36.3094C55.9893 36.6353 56.1187 36.9484 56.3494 37.1792C56.5802 37.4099 56.8927 37.5393 57.2192 37.5393H58.449V46.5797C53.6034 47.8401 49.6497 51.3357 47.8033 55.9896H40.7922C37.503 48.8838 39.7247 44.8507 40.5804 43.6897L41.2292 43.6891C42.5475 43.6891 43.7657 42.986 44.425 41.844C45.0841 40.7026 45.0841 39.2957 44.425 38.1544C43.7658 37.0125 42.5475 36.3093 41.2292 36.3093H27.6989V32.6191C27.6989 32.2932 27.5695 31.9801 27.3387 31.7494C27.108 31.5187 26.7949 31.3893 26.469 31.3893H25.2391V28.929H26.469C26.7949 28.929 27.108 28.7996 27.3387 28.5688C27.5695 28.3381 27.6989 28.0256 27.6989 27.6991V8.01941C27.6989 7.69349 27.5695 7.38038 27.3387 7.14966C27.108 6.91955 26.7949 6.78955 26.469 6.78955H6.78931C6.10998 6.78955 5.55945 7.34008 5.55945 8.01941V26.4694H4.32959C3.65026 26.4694 3.09912 27.0199 3.09912 27.6993V32.6193C3.09912 32.9458 3.22913 33.2583 3.45984 33.489C3.69056 33.7197 4.00306 33.8491 4.32959 33.8491H5.55945V36.3088L4.32959 36.3094C3.65026 36.3094 3.09912 36.86 3.09912 37.5393V43.6891H17.0994L15.85 46.1885H15.8494C12.4052 46.3893 9.16787 47.8969 6.79787 50.4041C4.42787 52.9115 3.10521 56.2293 3.09912 59.679V62.1393C3.09912 62.4652 3.22912 62.7783 3.45984 63.009C3.69056 63.2398 4.00306 63.3691 4.32959 63.3691H8.09178C8.50987 66.9995 10.6926 70.1898 13.9243 71.8951C17.1568 73.5998 21.0221 73.5998 24.2544 71.8951C27.4869 70.1898 29.6688 66.9995 30.0869 63.3691H52.3713C52.7211 66.6321 54.5008 69.5715 57.2298 71.394C59.9587 73.2165 63.3552 73.7341 66.5035 72.8082C69.6512 71.8817 72.2262 69.6063 73.5329 66.596C74.8396 63.5863 74.7432 60.1513 73.2704 57.2191H75.6692C75.9951 57.2191 76.3082 57.0897 76.5389 56.859C76.769 56.6283 76.899 56.3152 76.899 55.9893C76.899 51.5916 73.2729 47.86 68.2889 46.6027L68.289 46.6032ZM59.6789 22.7797H54.7589V20.32H59.6789V22.7797ZM41.2289 38.7703C41.9082 38.7703 42.4587 39.3215 42.4587 40.0008C42.4587 40.6801 41.9082 41.2307 41.2289 41.2307H25.2382V38.7704L41.2289 38.7703ZM8.01794 36.3107V33.8503H25.2382V36.31L8.01794 36.3107ZM8.01794 9.25128H25.2382V26.4716H8.01794V9.25128ZM5.55825 28.931H22.7786V31.3907L5.55825 31.3913V28.931ZM5.55825 41.2314V38.7711H22.7786V41.2308L5.55825 41.2314ZM19.0886 70.7518C17.0201 70.7475 15.0225 69.9998 13.4593 68.6449C11.8968 67.2899 10.8739 65.4186 10.5767 63.3714H14.3431C14.7038 64.7881 15.6779 65.9697 17.0006 66.5928C18.3226 67.216 19.854 67.216 21.1767 66.5928C22.4987 65.9697 23.4734 64.788 23.8336 63.3714H27.6C27.3027 65.4186 26.2798 67.2899 24.7173 68.6449C23.1542 69.9999 21.1565 70.7475 19.0887 70.7518H19.0886ZM16.9706 63.3721H21.2064V63.3715C20.9207 63.8719 20.4672 64.2546 19.9259 64.4524C19.3851 64.6508 18.7912 64.6508 18.2504 64.4524C17.709 64.2547 17.2555 63.872 16.9699 63.3715L16.9706 63.3721ZM32.6175 60.9118H5.55809V59.6813C5.56114 56.7468 6.72875 53.933 8.80387 51.8572C10.879 49.7821 13.6928 48.615 16.6279 48.6114H32.6186L32.6175 60.9118ZM33.8473 46.1516H18.6178L19.8477 43.6919L37.7305 43.6913C36.6294 45.9666 35.6492 50.0749 38.0857 55.9911L35.0785 55.9918V47.3816C35.0785 47.0557 34.9485 46.7426 34.7178 46.5118C34.4871 46.2811 34.1746 46.1517 33.848 46.1517L33.8473 46.1516ZM47.3776 60.9118H35.0778V58.4514H47.3776V60.9118ZM64.598 30.1618H68.2881V35.0818H64.598V30.1618ZM65.8278 37.5414V46.2018C65.4238 46.1682 65.0142 46.1517 64.598 46.1517H62.1383C61.7226 46.1517 61.3125 46.167 60.9084 46.1975V37.5415L65.8278 37.5414ZM58.4481 30.1618H62.1383V35.0818H58.4481V30.1618ZM63.3681 70.7524C61.2966 70.7481 59.2959 69.998 57.7322 68.6394C56.1684 67.2802 55.1467 65.4033 54.8544 63.3525C55.491 63.308 55.9854 62.78 55.9884 62.1422V57.73C56.0916 57.553 56.1978 57.3821 56.3095 57.2222H70.3927C71.6171 58.9435 72.1621 61.0558 71.9235 63.1542C71.6849 65.2527 70.6796 67.1886 69.1007 68.5913C67.5218 69.9933 65.48 70.7627 63.3681 70.7524ZM54.758 54.7618C54.0786 54.7618 53.5281 55.3129 53.5281 55.9922V60.9122H49.8386V57.468C52.175 51.8344 56.6403 48.6118 62.1384 48.6118H64.5981C69.465 48.6118 73.5184 51.276 74.3016 54.7616L54.758 54.7618Z" fill="white"/>
<path d="M16.6296 26.4704C18.9129 26.4704 21.1035 25.5634 22.7179 23.9483C24.3329 22.334 25.2399 20.144 25.2399 17.8601C25.2399 15.5768 24.3329 13.3868 22.7179 11.7718C21.1035 10.1574 18.9129 9.25037 16.6296 9.25037C14.3463 9.25037 12.1563 10.1574 10.5413 11.7718C8.92694 13.3868 8.01929 15.5768 8.01929 17.8601C8.02234 20.1427 8.93054 22.3308 10.5443 23.9452C12.1587 25.559 14.3468 26.4672 16.6294 26.4702L16.6296 26.4704ZM16.6296 11.7102C18.2605 11.7102 19.8248 12.3584 20.9783 13.5113C22.1319 14.6649 22.7794 16.2293 22.7794 17.8601C22.7794 19.4915 22.1319 21.0558 20.9783 22.2088C19.8248 23.3624 18.2604 24.0105 16.6296 24.0105C14.9988 24.0105 13.4344 23.3623 12.2808 22.2088C11.1279 21.0558 10.4798 19.4915 10.4798 17.8601C10.4816 16.2297 11.1304 14.6666 12.2833 13.5138C13.4363 12.3609 14.9994 11.7121 16.6296 11.7102Z" fill="white"/>
<path d="M12.9391 15.4H15.3988V17.8597H12.9391V15.4Z" fill="white"/>
<path d="M17.8594 17.8594H20.3191V20.3191H17.8594V17.8594Z" fill="white"/>
</svg>
