<svg width="38" height="70" viewBox="0 0 38 70" fill="none" xmlns="http://www.w3.org/2000/svg">
<path fill-rule="evenodd" clip-rule="evenodd" d="M22.9691 9.94231H25.1944C27.9773 9.94231 30.2333 12.1983 30.2333 14.9812C30.2333 15.9095 29.9822 16.7793 29.5443 17.5261C32.7555 17.8146 35.2722 20.513 35.2722 23.7992C35.2722 25.4 34.675 26.8614 33.6912 27.9726C36.0859 28.8645 37.7916 31.1715 37.7916 33.877C37.7916 37.3556 34.9716 40.1756 31.493 40.1756H8.88619L17.7007 66.6192C18.0836 67.7677 19.708 67.7677 20.0909 66.6192L27.7785 43.5564C27.9985 42.8964 28.7119 42.5397 29.3719 42.7597C30.0319 42.9797 30.3886 43.6931 30.1686 44.3531L22.481 67.4159C21.3325 70.8614 16.4591 70.8614 15.3106 67.4159L6.36325 40.5739C6.31922 40.4418 6.29828 40.3076 6.29826 40.1756C2.8198 40.1754 0 37.3555 0 33.877C0 31.1715 1.70571 28.8645 4.10039 27.9726C3.11664 26.8614 2.51944 25.4 2.51944 23.7992C2.51944 20.513 5.03612 17.8146 8.24729 17.5261C7.80937 16.7793 7.55832 15.9095 7.55832 14.9812C7.55832 12.1983 9.8143 9.94231 12.5972 9.94231H13.9278C14.0252 9.33818 14.1978 8.70969 14.3994 8.10636C14.7787 6.97144 15.3206 5.75452 15.9112 4.63786C16.5002 3.52439 17.159 2.47008 17.7867 1.67221C18.0982 1.27633 18.4289 0.908912 18.7646 0.626257C19.0492 0.386649 19.5478 0.0233158 20.174 0.00117874C21.2017 -0.0351436 21.7072 0.777008 21.8957 1.18842C22.1083 1.65257 22.2255 2.2225 22.3033 2.75593C22.4388 3.68435 22.4996 4.86219 22.5572 5.97893C22.5671 6.169 22.5768 6.3573 22.5868 6.54229C22.6592 7.88445 22.745 9.04264 22.9294 9.79363C22.9431 9.84929 22.9564 9.89866 22.9691 9.94231ZM16.3673 11.0504C16.3339 10.6405 16.455 9.90428 16.789 8.90495C17.1159 7.92668 17.5979 6.83755 18.1383 5.81583C18.6804 4.79093 19.2598 3.87455 19.7668 3.22999L19.8171 3.16675C19.9293 3.9612 19.9822 4.97902 20.0398 6.08567C20.0499 6.2806 20.0602 6.47835 20.071 6.67806C20.1404 7.96391 20.2314 9.37087 20.4827 10.3944C20.6012 10.8771 20.8031 11.4938 21.2241 11.9436C21.4594 12.1951 21.7927 12.4254 22.2283 12.5075C22.5369 12.5657 22.828 12.5366 23.0868 12.4617H25.1944C26.5858 12.4617 27.7138 13.5897 27.7138 14.9812C27.7138 16.3726 26.5858 17.5006 25.1944 17.5006H22.675C21.9792 17.5006 21.4152 18.0646 21.4152 18.7603C21.4152 19.4561 21.9792 20.0201 22.675 20.0201H28.9736C31.0607 20.0201 32.7527 21.7121 32.7527 23.7992C32.7527 25.8864 31.0607 27.5784 28.9736 27.5784H17.6361C16.9404 27.5784 16.3764 28.1424 16.3764 28.8381C16.3764 29.5338 16.9404 30.0978 17.6361 30.0978H31.493C33.5802 30.0978 35.2722 31.7898 35.2722 33.877C35.2722 35.9642 33.5802 37.6561 31.493 37.6561H6.2986C4.21143 37.6561 2.51944 35.9642 2.51944 33.877C2.51944 31.7898 4.21143 30.0978 6.2986 30.0978H10.2577C10.9534 30.0978 11.5174 29.5338 11.5174 28.8381C11.5174 28.1424 10.9534 27.5784 10.2577 27.5784H8.81804C6.73087 27.5784 5.03888 25.8864 5.03888 23.7992C5.03888 21.7121 6.73086 20.0201 8.81804 20.0201H12.4172C12.4373 20.0201 12.4573 20.0196 12.4772 20.0187C12.5171 20.0196 12.5571 20.0201 12.5972 20.0201H13.8569C14.5526 20.0201 15.1166 19.4561 15.1166 18.7603C15.1166 18.0646 14.5526 17.5006 13.8569 17.5006H12.5972C11.2057 17.5006 10.0778 16.3726 10.0778 14.9812C10.0778 13.5897 11.2057 12.4617 12.5972 12.4617H15.1166C15.8124 12.4617 16.3764 11.8977 16.3764 11.202C16.3764 11.1507 16.3733 11.1001 16.3673 11.0504ZM19.5853 2.1981L19.5889 2.20451C19.5875 2.2018 19.5859 2.19909 19.5853 2.1981C19.5853 2.19806 19.5849 2.19745 19.5853 2.1981Z" fill="white"/>
</svg>
