<svg width="56" height="70" viewBox="0 0 56 70" fill="none" xmlns="http://www.w3.org/2000/svg">
<path fill-rule="evenodd" clip-rule="evenodd" d="M18.0051 4.37499C18.0051 1.95875 19.9639 0 22.3801 0H25.2968C26.4173 0 27.4394 0.421244 28.2134 1.11401C28.9875 0.421244 30.0096 0 31.1301 0H34.0468C36.463 0 38.4218 1.95875 38.4218 4.37499V6.08227C38.8779 5.92105 39.3688 5.83332 39.8801 5.83332H42.7968C45.213 5.83332 47.1717 7.79207 47.1717 10.2083V20.4167H51.2605C53.8381 20.4167 55.857 22.6337 55.6164 25.2L51.5404 68.6777C51.4652 69.4796 50.7542 70.0687 49.9523 69.9935C49.1504 69.9184 48.5613 69.2073 48.6365 68.4054L52.7125 24.9278C52.7927 24.0723 52.1197 23.3333 51.2605 23.3333H47.0676C46.8431 24.4733 46.2661 25.5346 45.4353 26.4766C44.3597 27.6962 42.849 28.7328 41.0575 29.5683C39.2587 30.4073 37.1606 31.0512 34.893 31.4774C32.623 31.9041 30.2074 32.1082 27.7847 32.0809C25.3621 32.0536 22.9671 31.7955 20.7374 31.3172C18.5106 30.8397 16.4697 30.147 14.7443 29.2628C13.0266 28.3824 11.5992 27.3003 10.6266 26.0337C9.98814 25.2023 9.54843 24.2918 9.35936 23.3333H5.16639C4.30721 23.3333 3.63423 24.0723 3.71443 24.9278L7.54255 65.761C7.6128 66.5104 8.24183 67.0832 8.99451 67.0832H42.7968C43.6022 67.0832 44.2551 67.7362 44.2551 68.5416C44.2551 69.347 43.6022 69.9999 42.7968 69.9999H8.99451C6.73647 69.9999 4.84938 68.2814 4.63861 66.0333L0.810494 25.2C0.569901 22.6337 2.58885 20.4167 5.16639 20.4167H9.25515V10.2083C9.25515 7.79207 11.2139 5.83332 13.6301 5.83332H16.5468C17.0581 5.83332 17.549 5.92105 18.0051 6.08227V4.37499ZM12.1718 21.6354C12.1923 21.7591 12.1971 21.8876 12.1842 22.0183C12.1171 22.6973 12.3193 23.4492 12.9399 24.2573C13.5735 25.0824 14.6119 25.9175 16.0746 26.6671C16.6651 26.9698 17.3107 27.2512 18.0051 27.508V10.2083C18.0051 9.4029 17.3522 8.74998 16.5468 8.74998H13.6301C12.8247 8.74998 12.1718 9.4029 12.1718 10.2083V21.6354ZM20.7796 28.3371C20.9672 28.3815 21.1571 28.4243 21.349 28.4654C23.0542 28.8312 24.8825 29.0585 26.7551 29.1364V4.37499C26.7551 3.56958 26.1022 2.91666 25.2968 2.91666H22.3801C21.5747 2.91666 20.9218 3.56958 20.9218 4.37499V27.7083C20.9218 27.9334 20.8708 28.1467 20.7796 28.3371ZM29.6718 29.1364C31.2784 29.0695 32.8561 28.8926 34.3542 28.611C34.7458 28.5374 35.1296 28.457 35.5051 28.3703V4.37499C35.5051 3.56958 34.8522 2.91666 34.0468 2.91666H31.1301C30.3247 2.91666 29.6718 3.56958 29.6718 4.37499V29.1364ZM38.4218 27.508C38.9141 27.326 39.3826 27.1312 39.8247 26.925C41.371 26.2039 42.5127 25.3809 43.2479 24.5473C43.9717 23.7266 44.2531 22.9566 44.2551 22.2761V10.2083C44.2551 9.4029 43.6022 8.74998 42.7968 8.74998H39.8801C39.0747 8.74998 38.4218 9.4029 38.4218 10.2083V27.508Z" fill="white"/>
<path d="M34.3882 51.5002C35.758 48.5842 34.5046 45.1099 31.5887 43.7401C28.6727 42.3703 25.1985 43.6237 23.8287 46.5397C22.4589 49.4556 23.7123 52.9299 26.6282 54.2997C27.3572 54.6421 27.6705 55.5107 27.3281 56.2397C26.9856 56.9687 26.1171 57.282 25.3881 56.9396C21.0142 54.8849 19.1341 49.6735 21.1888 45.2996C23.2435 40.9256 28.4549 39.0456 32.8288 41.1003C37.2027 43.155 39.0828 48.3664 37.0281 52.7403C36.0248 54.8761 34.2659 56.4188 32.2234 57.1967C31.4707 57.4833 30.6282 57.1055 30.3415 56.3529C30.0549 55.6002 30.4326 54.7577 31.1853 54.471C32.55 53.9513 33.7189 52.9249 34.3882 51.5002Z" fill="white"/>
</svg>
